<svg xmlns="http://www.w3.org/2000/svg" viewBox="0 0 600 300"><g><text x="50%" y="0" style="fill: rgb(54, 58, 61); dominant-baseline: text-before-edge; text-anchor: middle; font-weight: bold; font-size: 13px; font-family: sans-serif;">Training Loss</text><svg viewBox="0 0 1024 1024" x="167.6875" y="26" height="11" width="11"><path d="M128 533.333h768c23.564 0 42.667-19.103 42.667-42.667v-85.333c0-23.564-19.103-42.667-42.667-42.667h-768c-23.564 0-42.667 19.103-42.667 42.667v85.333c0 23.564 19.103 42.667 42.667 42.667z" style="fill: rgb(85, 170, 153);"/></svg><text x="186.6875" y="24" style="fill: rgb(85, 170, 153); dominant-baseline: text-before-edge; font-size: 11px; font-family: sans-serif;">group: rembert</text><svg viewBox="0 0 1024 1024" x="319.96875" y="26" height="11" width="11"><path d="M128 533.333h768c23.564 0 42.667-19.103 42.667-42.667v-85.333c0-23.564-19.103-42.667-42.667-42.667h-768c-23.564 0-42.667 19.103-42.667 42.667v85.333c0 23.564 19.103 42.667 42.667 42.667z" style="fill: rgb(98, 128, 44);"/></svg><text x="338.96875" y="24" style="fill: rgb(98, 128, 44); dominant-baseline: text-before-edge; font-size: 11px; font-family: sans-serif;">group: muril</text></g><g transform="translate(0, 41)"><svg class="rv-xy-plot__inner" width="600" height="259"><g transform="translate(40.8,5)" class="rv-xy-plot__grid-lines"><line y1="224" y2="224" x1="0" x2="539.2" class="rv-xy-plot__grid-lines__line" style="stroke-width: 0.5;"/><line y1="189.6987410391726" y2="189.6987410391726" x1="0" x2="539.2" class="rv-xy-plot__grid-lines__line" style="stroke-width: 0.5;"/><line y1="155.3974820783452" y2="155.3974820783452" x1="0" x2="539.2" class="rv-xy-plot__grid-lines__line" style="stroke-width: 0.5;"/><line y1="121.09622311751782" y2="121.09622311751782" x1="0" x2="539.2" class="rv-xy-plot__grid-lines__line" style="stroke-width: 0.5;"/><line y1="86.79496415669043" y2="86.79496415669043" x1="0" x2="539.2" class="rv-xy-plot__grid-lines__line" style="stroke-width: 0.5;"/><line y1="52.49370519586303" y2="52.49370519586303" x1="0" x2="539.2" class="rv-xy-plot__grid-lines__line" style="stroke-width: 0.5;"/><line y1="18.19244623503564" y2="18.19244623503564" x1="0" x2="539.2" class="rv-xy-plot__grid-lines__line" style="stroke-width: 0.5;"/></g><path d="M0,20.658691116683812L2.1654618473895586,19.87219153714261L4.330923694779117,20.760789260192L6.496385542168676,24.20354594164958L8.661847389558234,28.003461489958784L10.827309236947794,28.247147273981223L12.992771084337353,31.32608106269449L15.15823293172691,30.457373279708936L17.32369477911647,32.13319421191704L19.489156626506023,34.15348568164436L21.65461847389559,36.190758018288555L23.820080321285147,37.57432997465868L25.9855421686747,38.13981290297159L28.151004016064256,39.20636300557322L30.316465863453818,41.385985861473344L32.48192771084337,40.799018363803256L34.64738955823294,39.35773257362478L36.812851405622496,39.36429197124516L38.97831325301205,39.51192548794474L41.14377510040161,38.581762115234014L43.30923694779117,38.40524842207974L45.47469879518072,38.46173229038726L47.64016064257029,38.043517170307695L49.805622489959845,37.93712205265984L51.9710843373494,38.50827316322412L54.13654618473897,40.68696090937551L56.30200803212853,42.450315492502774L58.46746987951808,44.849455949240685L60.63293172690764,46.90042279721075L62.798393574297215,49.87369787793039L64.96385542168676,52.06616394875588L67.12931726907632,54.178313439225036L69.29477911646588,55.74187295300696L71.46024096385543,57.41358755743855L73.62570281124499,58.2153597515251L75.79116465863456,60.13880437160323L77.95662650602411,61.48417784376329L80.12208835341367,62.89519803582891L82.28755020080324,64.40395245464414L84.45301204819278,65.85725982214814L86.61847389558235,66.88219951874702L88.7839357429719,67.98454764210788L90.94939759036146,69.52143834272472L93.11485943775102,71.73408403950249L95.28032128514059,72.80348139780382L97.44578313253014,73.90486221664582L99.6112449799197,74.2882638613071L101.77670682730927,75.5685290776588L103.9421686746988,76.3781043684189L106.10763052208839,76.82279943436416L108.27309236947794,78.39734267097968L110.43855421686747,79.37723054819166L112.60401606425707,79.88394835719699L114.7694779116466,79.9621680969377L116.93493975903615,80.66781912679559L119.10040160642575,80.40580844725572L121.26586345381529,80.58531481297494L123.43132530120484,80.89033253958223L125.59678714859439,80.75388376272188L127.76224899598397,81.54368246487145L129.92771084337352,82.64684700854173L132.09317269076308,83.07148965740977L134.25863453815265,82.71067764184252L136.4240963855422,83.04058182967624L138.58955823293175,83.63549069509193L140.75502008032132,84.34736969486596L142.92048192771085,84.85236241024406L145.08594377510042,84.64448283284135L147.25140562248998,84.94266034448839L149.41686746987958,84.34909044096568L151.5823293172691,84.45364140561566L153.74779116465868,83.92700346580675L155.9132530120482,83.3636306249445L158.07871485943778,82.85177236777795L160.24417670682735,82.3989405831025L162.40963855421688,82.47669567126131L164.57510040160648,82.83110383476256L166.74056224899604,83.41238441510245L168.90602409638555,84.17948311359828L171.07148594377512,84.33895274446907L173.2369477911647,85.13530157662163L175.40240963855425,85.77175751386439L177.5678714859438,86.78922151408942L179.73333333333338,86.60601303806008L181.8987951807229,86.91003691404838L184.06425702811248,87.51289773120463L186.22971887550204,88.09037752290737L188.3951807228916,88.48755544914121L190.56064257028117,88.26488672253792L192.7261044176707,88.86404237438576L194.89156626506025,88.95032538791415L197.05702811244984,88.66218026795448L199.2224899598394,89.02302881126629L201.38795180722894,89.00125545276632L203.55341365461854,89.67990895608757L205.71887550200807,90.24146169022953L207.8843373493976,90.39398285459609L210.04979919678718,90.63013941979193L212.21526104417677,90.2475123437275L214.3807228915663,90.29717847720146L216.54618473895587,90.4620947695209L218.7116465863454,90.66492630387253L220.87710843373495,91.0417032393553L223.04257028112457,91.18565479642342L225.20803212851413,91.15424331751514L227.37349397590367,91.51200683677503L229.5389558232932,91.84556400731945L231.70441767068274,91.7204984179474L233.8698795180723,91.27796154212723L236.03534136546187,91.41983681551945L238.2008032128515,91.69220878798095L240.366265060241,91.76620491645656L242.53172690763057,91.78792552846136L244.6971887550201,91.9275156323097L246.86265060240967,92.17328720458481L249.02811244979924,92.4165409943432L251.19357429718877,92.90750628374354L253.35903614457837,93.11394659153191L255.52449799196793,93.3816030448864L257.68995983935747,93.72227851214369L259.85542168674704,93.60952643764773L262.0208835341366,93.78536208999556L264.18634538152617,93.94415174393029L266.35180722891573,94.32989722555142L268.5172690763053,94.60719204330657L270.68273092369486,94.67266027169455L272.8481927710844,94.98706261591683L275.01365461847394,95.50990682183166L277.1791164658635,95.2668728505374L279.344578313253,95.64070132448906L281.51004016064263,96.19001021217741L283.67550200803214,96.90971150945212L285.8409638554217,96.80969474622545L288.0064257028113,97.04906323939035L290.17188755020084,97.27871347521805L292.3373493975904,97.32907468709311L294.50281124497997,97.46233492972274L296.66827309236953,97.93627791859276L298.83373493975904,98.29562509269333L300.99919678714866,98.53221321875803L303.1646586345382,98.61987528839072L305.33012048192774,98.95850643156145L307.49558232931736,99.40613130567876L309.66104417670687,99.78375918686712L311.8265060240964,100.16506762881421L313.991967871486,100.31361272821346L316.15742971887556,100.47002548731255L318.3228915662651,100.7273480032075L320.4883534136547,101.04211880162146L322.65381526104426,101.19658684914108L324.81927710843377,101.38031745761394L326.98473895582333,101.50237923644147L329.1502008032129,101.39851770486273L331.31566265060246,101.60745743779569L333.4811244979921,101.7534664422038L335.6465863453816,101.92232509807239L337.8120481927711,101.97120541173976L339.9775100401607,102.39410968605141L342.14297188755023,102.60994133491856L344.3084337349398,102.93445483227131L346.4738955823294,103.19502818282515L348.6393574297189,103.41271446572509L350.8048192771085,103.67860649473647L352.97028112449806,103.68526402706574L355.1357429718876,103.79560548269176L357.30120481927713,104.00834204998472L359.46666666666675,104.07459339642861L361.6321285140563,104.20733526373095L363.7975903614458,104.45608347865429L365.96305220883545,104.86686224976559L368.12851405622496,104.98686204435447L370.2939759036145,105.1863082141461L372.4594377510041,105.38829476535541L374.6248995983936,105.56993445442137L376.7903614457832,105.84665880873364L378.9558232931728,106.13804997679028L381.12128514056235,106.42303397518482L383.28674698795186,106.57602300809047L385.4522088353414,106.79706956669288L387.617670682731,106.48703956143538L389.7831325301205,106.65269996348245L391.9485943775102,106.95654647178357L394.1140562248997,107.12826620632954L396.2795180722892,107.16468841353577L398.4449799196788,107.26266740140906L400.6104417670683,107.56308864022927L402.7759036144579,107.61720511669401L404.94136546184745,107.16052446930593L407.1068273092371,107.435345436106L409.2722891566266,107.69378431880372L411.43775100401615,108.0799014529064L413.6032128514057,108.2889811604024L415.7686746987952,108.20205316465453L417.93413654618485,108.40840087191813L420.09959839357435,108.6709774542286L422.2650602409639,108.76154232558272L424.43052208835354,108.76047351322006L426.59598393574305,108.87536653118157L428.7614457831326,108.82977311705503L430.9269076305222,109.30430919480952L433.09236947791175,109.86703023938452L433.09236947791175,166.5279829194626L430.9269076305222,166.41551735414416L428.7614457831326,166.09145439392205L426.59598393574305,165.97187490145484L424.43052208835354,166.03361509644745L422.2650602409639,165.92534558937743L420.09959839357435,165.74363280354186L417.93413654618485,165.7176415940454L415.7686746987952,165.47587203537066L413.6032128514057,165.32984759218087L411.43775100401615,165.29499673557748L409.2722891566266,165.10223144230082L407.1068273092371,164.88799429594772L404.94136546184745,164.7841702600877L402.7759036144579,164.69867363225316L400.6104417670683,164.66273465802442L398.4449799196788,164.62675195687697L396.2795180722892,164.61924375941922L394.1140562248997,164.66577844419646L391.9485943775102,164.60813765644153L389.7831325301205,164.4012477627293L387.617670682731,164.3244596727631L385.4522088353414,164.27867153729585L383.28674698795186,164.28174500791883L381.12128514056235,164.123459277227L378.9558232931728,164.02436855090585L376.7903614457832,163.93209764145388L374.6248995983936,163.71956840760492L372.4594377510041,163.5058196873584L370.2939759036145,163.26939930143445L368.12851405622496,163.19765407195368L365.96305220883545,163.07323998525953L363.7975903614458,162.79324432916147L361.6321285140563,162.77650853240243L359.46666666666675,162.62582642848108L357.30120481927713,162.53860843191654L355.1357429718876,162.42673349154046L352.97028112449806,162.32596874658446L350.8048192771085,162.25945180504232L348.6393574297189,162.052945772087L346.4738955823294,161.85523456211007L344.3084337349398,161.7939329508531L342.14297188755023,161.57845074150228L339.9775100401607,161.55651558538344L337.8120481927711,161.40757038840903L335.6465863453816,161.3598224399296L333.4811244979921,161.2227749621395L331.31566265060246,161.3866976173117L329.1502008032129,161.41920177314083L326.98473895582333,161.18095390983606L324.81927710843377,160.862258116211L322.65381526104426,160.6937056532055L320.4883534136547,160.64738335960203L318.3228915662651,160.58527231113092L316.15742971887556,160.42616790267147L313.991967871486,160.1853315071177L311.8265060240964,160.21443188675522L309.66104417670687,159.93928985985684L307.49558232931736,159.6892834626139L305.33012048192774,159.53078851952034L303.1646586345382,159.54307523336317L300.99919678714866,159.42990813694038L298.83373493975904,159.474940352984L296.66827309236953,159.274729221087L294.50281124497997,159.01362362190744L292.3373493975904,158.7683663088265L290.17188755020084,158.6487275163101L288.0064257028113,158.7024137894585L285.8409638554217,158.47863126219224L283.67550200803214,158.1993565602838L281.51004016064263,157.9397464381362L279.344578313253,157.83391811827383L277.1791164658635,157.75689417374133L275.01365461847394,157.47055480754673L272.8481927710844,157.20352744405324L270.68273092369486,157.10366125760362L268.5172690763053,156.91563931987025L266.35180722891573,156.81121875635083L264.18634538152617,156.5914090397976L262.0208835341366,156.31767129327892L259.85542168674704,156.40220295406831L257.68995983935747,156.07744509995183L255.52449799196793,155.99102775952053L253.35903614457837,155.73628396427284L251.19357429718877,155.6589835993762L249.02811244979924,155.45722652441995L246.86265060240967,155.21981702896835L244.6971887550201,154.97972916094182L242.53172690763057,154.66508773058584L240.366265060241,154.63092656842102L238.2008032128515,154.53445460335018L236.03534136546187,154.53461213358764L233.8698795180723,154.58352447333752L231.70441767068274,154.2452682757698L229.5389558232932,154.05213124039977L227.37349397590367,153.879041912181L225.20803212851413,153.74790695198809L223.04257028112457,153.60150617753206L220.87710843373495,153.31728915350013L218.7116465863454,153.10239014160808L216.54618473895587,153.0523409161225L214.3807228915663,152.88511849574664L212.21526104417677,152.47072434877174L210.04979919678718,152.22845193896367L207.8843373493976,151.76146412217406L205.71887550200807,151.63265570356143L203.55341365461854,151.2927096367768L201.38795180722894,151.1408554357227L199.2224899598394,150.6347633104719L197.05702811244984,150.6042429239871L194.89156626506025,150.14787864146618L192.7261044176707,150.0826700508625L190.56064257028117,149.92326092163103L188.3951807228916,149.71636595106088L186.22971887550204,149.43931098633237L184.06425702811248,148.98677778038063L181.8987951807229,148.57176718746592L179.73333333333338,148.2277134812197L177.5678714859438,147.74952901042013L175.40240963855425,147.04413892621227L173.2369477911647,146.71877933112054L171.07148594377512,146.3789432654519L168.90602409638555,145.84126994297037L166.74056224899604,145.72294948645845L164.57510040160648,145.13457766051405L162.40963855421688,144.8964678387457L160.24417670682735,144.50411485377947L158.07871485943778,144.742216479925L155.9132530120482,144.25388462724084L153.74779116465868,143.7089480971704L151.5823293172691,143.3286356251589L149.41686746987958,142.68832730829791L147.25140562248998,142.5865056220644L145.08594377510042,142.07644953831175L142.92048192771085,141.70596397765988L140.75502008032132,141.1909663498445L138.58955823293175,140.4912598892439L136.4240963855422,140.71940520638046L134.25863453815265,140.2364359323164L132.09317269076308,139.7065340241828L129.92771084337352,138.87656865391384L127.76224899598397,138.14407080338657L125.59678714859439,137.52563630579195L123.43132530120484,137.23226660401548L121.26586345381529,136.99278858373034L119.10040160642575,136.17947458453747L116.93493975903615,135.50735892143115L114.7694779116466,134.8476081217496L112.60401606425707,134.5582129394096L110.43855421686747,133.6089369622231L108.27309236947794,133.40851774434026L106.10763052208839,132.91276614952125L103.9421686746988,132.4821629861836L101.77670682730927,131.84653049249735L99.6112449799197,131.5271252176704L97.44578313253014,130.48731495699025L95.28032128514059,129.62489542573184L93.11485943775102,128.61587126116518L90.94939759036146,127.43812925424578L88.7839357429719,126.72203727768095L86.61847389558235,125.81212617425L84.45301204819278,124.71565259324387L82.28755020080324,123.96538835885906L80.12208835341367,122.93429190410708L77.95662650602411,122.72914681079595L75.79116465863456,121.93567929766255L73.62570281124499,120.34241927170203L71.46024096385543,118.32298204766734L69.29477911646588,116.58039908424554L67.12931726907632,115.21471640333024L64.96385542168676,114.22424939481655L62.798393574297215,111.97807723759504L60.63293172690764,110.35773867509332L58.46746987951808,109.15123230784118L56.30200803212853,107.4641152863348L54.13654618473897,105.22109313262538L51.9710843373494,102.32763977113919L49.805622489959845,99.2999973087928L47.64016064257029,96.64731318389306L45.47469879518072,94.60899099931103L43.30923694779117,91.87066212240434L41.14377510040161,88.32019415740996L38.97831325301205,85.67107791453785L36.812851405622496,81.92758713431272L34.64738955823294,77.95805417990366L32.48192771084337,75.21071271913124L30.316465863453818,72.20459432287853L28.151004016064256,68.46297032486133L25.9855421686747,65.52313422683388L23.820080321285147,58.70151459804667L21.65461847389559,56.005302442749326L19.489156626506023,52.57987205889407L17.32369477911647,50.109341081681706L15.15823293172691,44.92966085952027L12.992771084337353,41.46465038670367L10.827309236947794,38.695547850390156L8.661847389558234,34.00173178442181L6.496385542168676,29.121134759478313L4.330923694779117,25.456245755904025L2.1654618473895586,23.77274832750165L0,23.962728169497126Z" class="rv-xy-plot__series rv-xy-plot__series--line" transform="translate(40.8,5)" style="opacity: 1; stroke: rgba(160, 199, 92, 0); fill: rgba(160, 199, 92, 0.1);"/><path d="M0,22.797465074547922L2.1654618473895586,22.394488049580445L4.330923694779117,23.38776853118111L6.496385542168676,26.859307032418467L8.661847389558234,31.057049706059978L10.827309236947794,33.546022218413995L12.992771084337353,36.474914623325795L15.15823293172691,37.82931553016427L17.32369477911647,40.789286501168064L19.489156626506023,43.473641937507736L21.65461847389559,46.35367436902136L23.820080321285147,48.28977490434099L25.9855421686747,50.70378388833902L28.151004016064256,53.23641019613086L30.316465863453818,56.80842016007804L32.48192771084337,58.55263499910663L34.64738955823294,58.758721391427706L36.812851405622496,60.63902260118383L38.97831325301205,63.281871319122985L41.14377510040161,65.2375477782786L43.30923694779117,67.47941261013935L45.47469879518072,69.58318615834665L47.64016064257029,71.05249945054274L49.805622489959845,72.76726507794382L51.9710843373494,74.76781168837317L54.13654618473897,76.99843912671466L56.30200803212853,78.97583363155238L58.46746987951808,80.59594786368002L60.63293172690764,82.17880251360853L62.798393574297215,84.21500802756103L64.96385542168676,86.55904093092539L67.12931726907632,87.81444699923289L69.29477911646588,89.40755847949161L71.46024096385543,91.36672084699325L73.62570281124499,92.66878476531669L75.79116465863456,94.19673107412886L77.95662650602411,95.22133372654233L80.12208835341367,95.95471222241738L82.28755020080324,97.04942571437317L84.45301204819278,98.19478557496672L86.61847389558235,99.38824066499619L88.7839357429719,100.38873220526175L90.94939759036146,101.35419899670629L93.11485943775102,102.94965126156248L95.28032128514059,104.0877962208858L97.44578313253014,105.08810596111977L99.6112449799197,105.85805569247685L101.77670682730927,106.52239457215134L103.9421686746988,107.2969557418521L106.10763052208839,107.62678184376828L108.27309236947794,108.58859336779469L110.43855421686747,109.0674273466563L112.60401606425707,109.73935194377808L114.7694779116466,110.0721749012704L116.93493975903615,110.80441107843438L119.10040160642575,111.29765388410998L121.26586345381529,111.95194194629457L123.43132530120484,112.36246015450044L125.59678714859439,112.69406880611965L127.76224899598397,113.37431784262535L129.92771084337352,114.25715212155893L132.09317269076308,114.84803231980379L134.25863453815265,115.20297408891568L136.4240963855422,115.6704259577437L138.58955823293175,115.80033221498775L140.75502008032132,116.36185187804992L142.92048192771085,116.92910177456562L145.08594377510042,117.2376937881838L147.25140562248998,117.63014996693583L149.41686746987958,117.65979945281005L151.5823293172691,118.26819066442368L153.74779116465868,118.29102581043693L155.9132530120482,118.26714094665174L158.07871485943778,118.29666794843911L160.24417670682735,117.82522306526255L162.40963855421688,118.01405829678814L164.57510040160648,118.17012454301953L166.74056224899604,118.50315012756464L168.90602409638555,118.83615162461771L171.07148594377512,119.28092406107238L173.2369477911647,119.79770198614128L175.40240963855425,120.19908169511714L177.5678714859438,120.9069468185633L179.73333333333338,121.16797415528055L181.8987951807229,121.59350528175818L184.06425702811248,122.14328192575451L186.22971887550204,122.482401383573L188.3951807228916,122.80201772938722L190.56064257028117,123.0396786252904L192.7261044176707,123.43456102689099L194.89156626506025,123.55700098793142L197.05702811244984,123.76514086734116L199.2224899598394,123.98110968983646L201.38795180722894,124.18044544158215L203.55341365461854,124.57992482356215L205.71887550200807,124.97737833181696L207.8843373493976,125.16582943841362L210.04979919678718,125.49985136315236L212.21526104417677,125.63791320011211L214.3807228915663,125.9257957548973L216.54618473895587,126.02113863255981L218.7116465863454,126.15184888555292L220.87710843373495,126.45768471336146L223.04257028112457,126.76689095336552L225.20803212851413,126.71752187090469L227.37349397590367,126.8387768602355L229.5389558232932,127.0721506571563L231.70441767068274,127.09702782935511L233.8698795180723,127.21629666580284L236.03534136546187,127.32400522724318L238.2008032128515,127.4897089227712L240.366265060241,127.56521527931778L242.53172690763057,127.64242274990953L244.6971887550201,127.82274147076365L246.86265060240967,128.05770619043273L249.02811244979924,128.32526622003155L251.19357429718877,128.6987543367711L253.35903614457837,128.86007621282272L255.52449799196793,129.12815746309303L257.68995983935747,129.28746136496403L259.85542168674704,129.4462553380033L262.0208835341366,129.48280872376154L264.18634538152617,129.69380742501784L266.35180722891573,130.00930503204978L268.5172690763053,130.21919634473676L270.68273092369486,130.2473229524963L272.8481927710844,130.4175197291323L275.01365461847394,130.7205194204028L277.1791164658635,130.84504450432337L279.344578313253,130.99776171974008L281.51004016064263,131.2628285201178L283.67550200803214,131.67733278559376L285.8409638554217,131.84000630216258L288.0064257028113,132.05651898686352L290.17188755020084,132.12778487659702L292.3373493975904,132.263727427912L294.50281124497997,132.5550179832449L296.66827309236953,132.90262201521293L298.83373493975904,133.17321753440177L300.99919678714866,133.2679562434425L303.1646586345382,133.30314138222678L305.33012048192774,133.4241379735475L307.49558232931736,133.68822549989858L309.66104417670687,133.98390922798419L311.8265060240964,134.1687195382802L313.991967871486,134.25438790964148L316.15742971887556,134.48570462510946L318.3228915662651,134.691811129053L320.4883534136547,134.84192808028772L322.65381526104426,135.00923673771322L324.81927710843377,135.24249007600292L326.98473895582333,135.43386108716578L329.1502008032129,135.52406108111936L331.31566265060246,135.5743153104472L333.4811244979921,135.56622712219882L335.6465863453816,135.76910284998243L337.8120481927711,135.8745300562036L339.9775100401607,136.16613179464738L342.14297188755023,136.27884062218558L344.3084337349398,136.5131229278415L346.4738955823294,136.68024856528012L348.6393574297189,136.8454763133389L350.8048192771085,137.0437904445422L352.97028112449806,137.0453328979443L355.1357429718876,137.21294245732514L357.30120481927713,137.38555550667553L359.46666666666675,137.41569429256492L361.6321285140563,137.51647557819282L363.7975903614458,137.60963081273934L365.96305220883545,137.87331372386367L368.12851405622496,137.88086859380627L370.2939759036145,137.97158427204945L372.4594377510041,138.12389369707682L374.6248995983936,138.23986098485295L376.7903614457832,138.42394696137723L378.9558232931728,138.5873772991336L381.12128514056235,138.69777140005237L383.28674698795186,138.8431710632389L385.4522088353414,138.9449041897993L387.617670682731,138.9677392786562L389.7831325301205,139.08635163428323L391.9485943775102,139.27063254234568L394.1140562248997,139.36403048766206L396.2795180722892,139.41723960359343L398.4449799196788,139.51305530517547L400.6104417670683,139.66867208637035L402.7759036144579,139.724324337429L404.94136546184745,139.72484613679313L407.1068273092371,139.92641101742868L409.2722891566266,140.12843477068765L411.43775100401615,140.35883889002676L413.6032128514057,140.4198459095206L415.7686746987952,140.48484569461476L417.93413654618485,140.6357532837702L420.09959839357435,140.72789254807608L422.2650602409639,140.8735588541823L424.43052208835354,140.97383345214232L426.59598393574305,140.94418514253462L428.7614457831326,141.00584438836773L430.9269076305222,141.35630242479036L433.09236947791175,141.6663307661637" class="rv-xy-plot__series rv-xy-plot__series--line" transform="translate(40.8,5)" style="opacity: 1; stroke-width: 1.5; stroke: rgb(160, 199, 92);"/><path d="M0,0L2.1654618473895586,7.760984569097676L4.330923694779117,20.795921119668375L6.496385542168676,38.13185915860043L8.661847389558234,45.69976073819399L10.827309236947794,49.0980444278682L12.992771084337353,46.835078301701486L15.15823293172691,51.77806178441532L17.32369477911647,55.897872690987L19.489156626506023,58.18886896357091L21.65461847389559,61.28616899064362L23.820080321285147,61.43337325016157L25.9855421686747,64.23436229256995L28.151004016064256,63.081102732813164L30.316465863453818,65.7179022739887L32.48192771084337,59.611449244748165L34.64738955823294,62.15997433979108L36.812851405622496,62.87679436124395L38.97831325301205,64.50504503517567L41.14377510040161,64.60487538972279L43.30923694779117,65.59059705264704L45.47469879518072,65.32636270004713L47.64016064257029,68.74437017419181L49.805622489959845,69.14436751316839L51.9710843373494,71.5550007151904L54.13654618473897,69.99253524161867L56.30200803212853,71.35315134506449L58.46746987951808,72.46888116861935L60.63293172690764,73.48316812145553L62.798393574297215,75.83158810910264L64.96385542168676,76.02404836830846L67.12931726907632,78.49422502832262L69.29477911646588,79.76055064280109L71.46024096385543,81.82674621181953L73.62570281124499,83.02237792920806L75.79116465863456,84.44596040165106L77.95662650602411,85.22834809770492L80.12208835341367,86.76778711383228L82.28755020080324,88.15506294562968L84.45301204819278,88.86261452660607L86.61847389558235,90.31737481477211L88.7839357429719,91.85784069563807L90.94939759036146,92.91358973294939L93.11485943775102,93.77911499958529L95.28032128514059,95.13225021145102L97.44578313253014,94.93380303074174L99.6112449799197,96.05652063329362L101.77670682730927,96.4614627275822L103.9421686746988,97.51603030485609L106.10763052208839,97.97060600234684L108.27309236947794,97.44474524693139L110.43855421686747,98.28988000750047L112.60401606425707,98.7226768491564L114.7694779116466,99.75789367991656L116.93493975903615,99.82473933854573L119.10040160642575,100.358944468906L121.26586345381529,101.05866335928008L123.43132530120484,100.44178702541703L125.59678714859439,101.43730661489643L127.76224899598397,101.91719429010118L129.92771084337352,102.5910819065993L132.09317269076308,102.92324634494963L134.25863453815265,102.19188587351091L136.4240963855422,102.98326511834291L138.58955823293175,103.51076475045613L140.75502008032132,103.65864779871458L142.92048192771085,104.2753073008097L145.08594377510042,105.04139450606814L147.25140562248998,105.90026082550466L149.41686746987958,106.30925614010604L151.5823293172691,106.77428625251058L153.74779116465868,107.24641869196897L155.9132530120482,106.45399908107547L158.07871485943778,106.74805830824681L160.24417670682735,107.45439008752979L162.40963855421688,107.78271166629148L164.57510040160648,107.53751714023295L166.74056224899604,107.64026848793422L168.90602409638555,107.73311427359093L171.07148594377512,107.63564995556416L173.2369477911647,108.00754307574394L175.40240963855425,108.57789975821878L177.5678714859438,108.80794730150802L179.73333333333338,109.00592099763591L181.8987951807229,109.62764635518089L184.06425702811248,110.06167117285096L186.22971887550204,110.49435638243537L188.3951807228916,110.69792453206912L190.56064257028117,110.88533452492132L192.7261044176707,111.28741437717207L194.89156626506025,111.84752661084744L197.05702811244984,111.57399346304409L199.2224899598394,112.04320232109251L201.38795180722894,111.92642442106728L203.55341365461854,112.3062296440161L205.71887550200807,112.7981052090455L207.8843373493976,113.19361998178783L210.04979919678718,113.50956889343897L212.21526104417677,113.68240521091747L214.3807228915663,113.33463536686105L216.54618473895587,113.16417433011773L218.7116465863454,113.43516236761744L220.87710843373495,113.74886113274135L223.04257028112457,112.92405433113296L225.20803212851413,113.44956188774657L227.37349397590367,114.03571327502421L229.5389558232932,114.54754379270362L231.70441767068274,114.82543642085658L233.8698795180723,115.37201518839947L236.03534136546187,115.56375616202368L238.2008032128515,115.86021566725337L240.366265060241,116.05070891663267L242.53172690763057,115.65957579549902L244.6971887550201,116.08575563909173L246.86265060240967,116.41987912705466L249.02811244979924,116.77690733214254L251.19357429718877,117.17653966030993L253.35903614457837,117.4619592102937L255.52449799196793,117.81217121071225L257.68995983935747,117.75668992631225L259.85542168674704,117.75289321900752L262.0208835341366,118.05467695560506L264.18634538152617,118.20465306186183L266.35180722891573,118.6301952447962L268.5172690763053,118.87115094292395L270.68273092369486,119.40560639355043L272.8481927710844,119.81740288257157L275.01365461847394,120.21278978932692L277.1791164658635,120.83820589020478L279.344578313253,121.17307554542668L281.51004016064263,121.36961764173446L283.67550200803214,121.20982709773848L285.8409638554217,120.99754868577176L288.0064257028113,121.18073892123189L290.17188755020084,121.57384313690983L292.3373493975904,120.93465374334801L294.50281124497997,121.45381476424232L296.66827309236953,121.5172340638248L298.83373493975904,121.50375346266506L300.99919678714866,120.87591728975167L303.1646586345382,121.33281565790202L305.33012048192774,121.099304334795L307.49558232931736,121.34006973031843L309.66104417670687,121.63776417014694L311.8265060240964,121.49532998052447L313.991967871486,121.67629832827393L316.15742971887556,122.07299485897576L318.3228915662651,122.41441831542576L320.4883534136547,122.74139895816916L322.65381526104426,122.72447369307274L324.81927710843377,122.95400084805843L326.98473895582333,123.18841715630039L329.1502008032129,123.2311028081013L331.31566265060246,122.90927402251567L333.4811244979921,123.12724658808318L335.6465863453816,123.30457650008407L337.8120481927711,122.93521802092383L339.9775100401607,123.05975127904738L342.14297188755023,123.3205162041082L344.3084337349398,123.64463552300673L346.4738955823294,124.08734838278002L348.6393574297189,124.42292568449918L350.8048192771085,124.54257354414987L352.97028112449806,124.73321170732628L355.1357429718876,124.79028129247335L357.30120481927713,125.13102289617602L359.46666666666675,124.56992810241849L361.6321285140563,124.7868222048777L363.7975903614458,125.01988331051612L365.96305220883545,125.12637767167723L368.12851405622496,125.46152358028701L370.2939759036145,125.68663856141102L372.4594377510041,125.71611884030274L374.6248995983936,125.51890658125406L376.7903614457832,125.73831437519593L378.9558232931728,126.13665584791431L381.12128514056235,126.48100559913361L383.28674698795186,126.81305048739767L385.4522088353414,127.0408930963425L387.617670682731,127.22528955175753L389.7831325301205,127.2557378025435L391.9485943775102,127.39923412466733L394.1140562248997,127.5506233379817L396.2795180722892,127.31643311452078L398.4449799196788,127.66775777106568L400.6104417670683,127.96271506277367L402.7759036144579,128.10831765182837L404.94136546184745,128.50928976026017L407.1068273092371,128.7039777372082L409.2722891566266,128.9998991392961L411.43775100401615,129.26573809314147L413.6032128514057,129.41460562557802L415.7686746987952,129.51437575615353L417.93413654618485,129.7121848566677L420.09959839357435,129.6864529967574L422.2650602409639,129.8718186688473L424.43052208835354,130.08435231470818L426.59598393574305,130.2965592011441L428.7614457831326,130.53635612228112L430.9269076305222,130.8330321367369L433.09236947791175,130.59680101115964L435.25783132530125,130.42416949725998L437.4232931726908,130.63565938264364L439.5887550200804,130.76415050495984L441.7542168674699,130.89255738283222L443.9196787148595,131.29750125920475L446.085140562249,131.40420670544125L448.2506024096386,131.6492547987664L450.4160642570281,131.94672372362933L452.5815261044177,132.04543860085997L454.7469879518072,132.2350696286635L456.91244979919674,132.51928515061564L459.07791164658636,132.2582387823067L461.243373493976,132.48333917991621L463.4088353413655,132.70371729949284L465.5742971887551,132.75231677913504L467.7397590361446,132.8820247713103L469.9052208835342,132.9210877889925L472.07068273092375,133.02039723131284L474.2361445783133,133.24469410497804L476.4016064257028,133.40428658002935L478.5670682730924,133.56438251322152L480.73253012048195,133.754540712616L482.89799196787146,133.88329975110304L485.0634538152611,134.11651467950674L487.2289156626506,134.28909440632236L489.39437751004016,134.28852662981137L491.5598393574297,134.44651068099677L493.72530120481935,134.6408441194028L495.8907630522089,134.92929698326674L498.0562248995985,135.17067056493232L500.221686746988,135.37244587823315L502.38714859437755,135.65533722922635L504.5526104417671,135.7376622805373L506.7180722891567,135.87903738473943L508.8835341365462,136.1229117268358L511.0489959839358,136.40887889728475L513.2144578313254,136.50483204134585L515.3799196787149,136.6703646367843L517.5453815261044,136.9325312276285L519.710843373494,137.14710284434827L521.8763052208835,137.09033512006945L524.0417670682732,137.13206178312336L526.2072289156628,137.21187218671338L528.3726907630523,137.45312685343566L530.5381526104418,137.70865275466002L532.7036144578315,137.96216650281713L534.8690763052209,138.27757840572895L537.0345381526105,138.38206812534415L539.2,138.39354859743705L539.2,218.09213906782304L537.0345381526105,218.0865128124266L534.8690763052209,218.08102645815052L532.7036144578315,218.0520642213183L530.5381526104418,218.0266995042846L528.3726907630523,217.9878730395285L526.2072289156628,217.94651800918905L524.0417670682732,217.9094129128235L521.8763052208835,217.86591376649022L519.710843373494,217.89573088737998L517.5453815261044,217.89265366156087L515.3799196787149,217.85009717268738L513.2144578313254,217.81034116397046L511.0489959839358,217.78686721530883L508.8835341365462,217.74238825394528L506.7180722891567,217.71890533680542L504.5526104417671,217.67981203143438L502.38714859437755,217.65221305564253L500.221686746988,217.65549406268215L498.0562248995985,217.62116961496315L495.8907630522089,217.5749797894722L493.72530120481935,217.52848737090054L491.5598393574297,217.5465221600134L489.39437751004016,217.5223581934915L487.2289156626506,217.48792515857653L485.0634538152611,217.44012840350757L482.89799196787146,217.3915347322937L480.73253012048195,217.3588549583068L478.5670682730924,217.31026917428318L476.4016064257028,217.2770338001399L474.2361445783133,217.22807021937018L472.07068273092375,217.17710848901652L469.9052208835342,217.12649077058862L467.7397590361446,217.07451432435846L465.5742971887551,217.02191944493137L463.4088353413655,216.9688366076056L461.243373493976,216.9154339240232L459.07791164658636,216.87160346859443L456.91244979919674,216.87094400620003L454.7469879518072,216.8162464457244L452.5815261044177,216.7630716961856L450.4160642570281,216.71017486293653L448.2506024096386,216.65638000132532L446.085140562249,216.63697501879574L443.9196787148595,216.57953342248945L441.7542168674699,216.52297421296817L439.5887550200804,216.46431294024973L437.4232931726908,216.46422917134046L435.25783132530125,216.40621249084967L433.09236947791175,216.37055049564867L430.9269076305222,216.347161247967L428.7614457831326,216.3082714329426L426.59598393574305,216.2493899640839L424.43052208835354,216.188938462279L422.2650602409639,216.1959692063779L420.09959839357435,216.16806831562351L417.93413654618485,216.10837741690932L415.7686746987952,216.0447880292855L413.6032128514057,215.99043035482927L411.43775100401615,215.9334437572491L409.2722891566266,215.87382563001077L407.1068273092371,215.81827851143444L404.94136546184745,215.85149889657941L402.7759036144579,215.78593226257854L400.6104417670683,215.80610678925177L398.4449799196788,215.7520638459097L396.2795180722892,215.73589254045993L394.1140562248997,215.74695243045912L391.9485943775102,215.6834187316495L389.7831325301205,215.683260667203L387.617670682731,215.6721639714087L385.4522088353414,215.64588478104932L383.28674698795186,215.5748377472862L381.12128514056235,215.55082086184294L378.9558232931728,215.5369602480011L376.7903614457832,215.4644017584882L374.6248995983936,215.4980119165376L372.4594377510041,215.42565817180272L370.2939759036145,215.35163983613896L368.12851405622496,215.3618528370472L365.96305220883545,215.28735708472334L363.7975903614458,215.21102372907498L361.6321285140563,215.14501790358935L359.46666666666675,215.0734895513443L357.30120481927713,215.02164579202326L355.1357429718876,214.9422399095858L352.97028112449806,214.87004912648263L350.8048192771085,214.94647569414434L348.6393574297189,214.8714618255533L346.4738955823294,214.83430484903707L344.3084337349398,214.7549254755884L342.14297188755023,214.7691331526001L339.9775100401607,214.68533156749322L337.8120481927711,214.60081122168793L335.6465863453816,214.55284302149437L333.4811244979921,214.47128674712684L331.31566265060246,214.39191133298354L329.1502008032129,214.4488572519948L326.98473895582333,214.36986488245293L324.81927710843377,214.29799984635918L322.65381526104426,214.2699210574318L320.4883534136547,214.1925028559419L318.3228915662651,214.1368768674642L316.15742971887556,214.0418787644786L313.991967871486,214.0397778978168L311.8265060240964,214.0808821526632L309.66104417670687,213.9866576443808L307.49558232931736,213.91963838285037L305.33012048192774,213.8224105868499L303.1646586345382,213.72173810519146L300.99919678714866,213.6850225404741L298.83373493975904,213.5834450292679L296.66827309236953,213.53298069375734L294.50281124497997,213.4364226229746L292.3373493975904,213.34769641534007L290.17188755020084,213.275967354924L288.0064257028113,213.18227133241507L285.8409638554217,213.14638198682425L283.67550200803214,213.18383011166708L281.51004016064263,213.0713856818433L279.344578313253,212.95688364589793L277.1791164658635,212.86548680023387L275.01365461847394,212.7650275328063L272.8481927710844,212.68107557766706L270.68273092369486,212.6035921516382L268.5172690763053,212.57943671685896L266.35180722891573,212.45545787323593L264.18634538152617,212.32998972132896L262.0208835341366,212.21415581998485L259.85542168674704,212.0846456969269L257.68995983935747,212.0943801991053L255.52449799196793,211.96919493652254L253.35903614457837,211.96233335979L251.19357429718877,211.94892436021624L249.02811244979924,211.81441096830298L246.86265060240967,211.68132225821944L244.6971887550201,211.5721968172591L242.53172690763057,211.43269248818964L240.366265060241,211.32892836968344L238.2008032128515,211.28758773854761L236.03534136546187,211.1372002075137L233.8698795180723,211.0877126425505L231.70441767068274,210.9326113673947L229.5389558232932,210.7744596660296L227.37349397590367,210.68838719254052L225.20803212851413,210.61627728288565L223.04257028112457,210.45081047011217L220.87710843373495,210.49397973572684L218.7116465863454,210.39319553508554L216.54618473895587,210.22116984848475L214.3807228915663,210.0464705518417L212.21526104417677,209.86789774440564L210.04979919678718,209.68518881313233L207.8843373493976,209.56343773607622L205.71887550200807,209.42816194987125L203.55341365461854,209.4055883470507L201.38795180722894,209.32633519949965L199.2224899598394,209.1411892786212L197.05702811244984,208.95275474893913L194.89156626506025,208.8920013815922L192.7261044176707,208.86813266083684L190.56064257028117,208.66887000961407L188.3951807228916,208.49562126797645L186.22971887550204,208.27542940926244L184.06425702811248,208.08792119541363L181.8987951807229,208.043757044756L179.73333333333338,207.8734483366047L177.5678714859438,207.6361466374927L175.40240963855425,207.39878864439646L173.2369477911647,207.1645751673913L171.07148594377512,206.9857567239421L168.90602409638555,206.8964986174409L166.74056224899604,206.63089073826706L164.57510040160648,206.4569534006889L162.40963855421688,206.3916313548387L160.24417670682735,206.22064092342035L158.07871485943778,206.11803817374647L155.9132530120482,206.1013186033017L153.74779116465868,206.0999458194261L151.5823293172691,205.92689981895938L149.41686746987958,205.71014095169923L147.25140562248998,205.39639180322604L145.08594377510042,205.07328230484487L142.92048192771085,204.74147309327793L140.75502008032132,204.4319427484996L138.58955823293175,204.10372382373367L136.4240963855422,203.742655247821L134.25863453815265,203.3741552194724L132.09317269076308,203.01174337206632L129.92771084337352,202.7890499074058L127.76224899598397,202.64106366875225L125.59678714859439,202.2485820304665L123.43132530120484,201.95335388818418L121.26586345381529,201.64323119766325L119.10040160642575,201.26475778176467L116.93493975903615,201.083296843233L114.7694779116466,200.88926760435112L112.60401606425707,200.5644435495386L110.43855421686747,200.30305052627423L108.27309236947794,199.81552318253267L106.10763052208839,199.3603270288504L103.9421686746988,199.1616605362746L101.77670682730927,198.81758372198715L99.6112449799197,198.42896826695448L97.44578313253014,198.07436204143914L95.28032128514059,197.52738895968906L93.11485943775102,196.860775944358L90.94939759036146,196.35227426644155L88.7839357429719,195.81148970555228L86.61847389558235,195.2279447184061L84.45301204819278,194.55016228271063L82.28755020080324,193.88180538336138L80.12208835341367,193.16795514745087L77.95662650602411,193.10033606328687L75.79116465863456,192.22453526412448L73.62570281124499,191.2702927701984L71.46024096385543,191.0901707210499L69.29477911646588,190.78237510034018L67.12931726907632,189.92678165296738L64.96385542168676,189.0553870265451L62.798393574297215,188.17364003468302L60.63293172690764,187.04007345868115L58.46746987951808,186.06904154916901L56.30200803212853,185.95210470801658L54.13654618473897,184.6195903435185L51.9710843373494,183.92495691203604L49.805622489959845,182.15562869826178L47.64016064257029,181.09537217190717L45.47469879518072,180.1643613223864L43.30923694779117,178.91020546564684L41.14377510040161,177.77209497324398L38.97831325301205,176.09277187617008L36.812851405622496,174.17158371799965L34.64738955823294,171.7503627700856L32.48192771084337,170.30189693874922L30.316465863453818,168.09589813128287L28.151004016064256,167.12213711801718L25.9855421686747,164.33525548623012L23.820080321285147,161.29582722012827L21.65461847389559,158.86016588466492L19.489156626506023,157.58933704141995L17.32369477911647,153.88251393729328L15.15823293172691,144.99220616362675L12.992771084337353,134.8388423102362L10.827309236947794,119.99633141606753L8.661847389558234,102.85962661734004L6.496385542168676,83.61824715578358L4.330923694779117,61.38618635820782L2.1654618473895586,36.890934154644704L0,23.873003975492082Z" class="rv-xy-plot__series rv-xy-plot__series--line" transform="translate(40.8,5)" style="opacity: 1; stroke: rgba(135, 206, 191, 0); fill: rgba(135, 206, 191, 0.1);"/><path d="M0,13.083698990843082L2.1654618473895586,23.91818866477255L4.330923694779117,41.70615504075327L6.496385542168676,59.91174853651577L8.661847389558234,73.97581632691751L10.827309236947794,83.49797891674783L12.992771084337353,89.00146526953222L15.15823293172691,95.44371303289873L17.32369477911647,100.60747966503064L19.489156626506023,104.35723357506828L21.65461847389559,108.32907781224662L23.820080321285147,110.02597910293484L25.9855421686747,113.23417192692789L28.151004016064256,115.79263230210432L30.316465863453818,118.21287963691623L32.48192771084337,119.78032066027933L34.64738955823294,121.82981971629718L36.812851405622496,124.01340630832878L38.97831325301205,125.78929271316312L41.14377510040161,127.37163079221992L43.30923694779117,129.42227891211243L45.47469879518072,130.80243094235354L47.64016064257029,132.61651768093864L49.805622489959845,133.8992485214261L51.9710843373494,135.49873348675925L54.13654618473897,136.19632973656132L56.30200803212853,137.42648668249686L58.46746987951808,138.07775400476186L60.63293172690764,139.1752603035465L62.798393574297215,140.69718072602546L64.96385542168676,141.37625747861816L67.12931726907632,142.8468284317119L69.29477911646588,143.71396009740772L71.46024096385543,144.5914776011868L73.62570281124499,145.32698398989018L75.79116465863456,146.0776136993993L77.95662650602411,146.74582063944317L80.12208835341367,147.51898471135232L82.28755020080324,148.26059266047477L84.45301204819278,149.08214217394396L86.61847389558235,149.91352225693598L88.7839357429719,150.7959607118412L90.94939759036146,151.5033232992303L93.11485943775102,152.32363811379656L95.28032128514059,153.03590352358162L97.44578313253014,153.4949671927437L99.6112449799197,154.10575689951057L101.77670682730927,154.40644309689577L103.9421686746988,154.90676881769534L106.10763052208839,155.39942572872513L108.27309236947794,155.99721119416606L110.43855421686747,156.59991617060624L112.60401606425707,157.05249541734545L114.7694779116466,157.65891739533137L116.93493975903615,157.95598933159502L119.10040160642575,158.30025018903174L121.26586345381529,158.79034089211927L123.43132530120484,159.21823128881454L125.59678714859439,159.7904253079808L127.76224899598397,160.1984476165643L129.92771084337352,160.6423227615217L132.09317269076308,160.8050020252762L134.25863453815265,161.04417702100127L136.4240963855422,161.54425839176423L138.58955823293175,161.88644621274003L140.75502008032132,162.0483432476383L142.92048192771085,162.37698264589017L145.08594377510042,162.7748467173372L147.25140562248998,163.20978991581416L149.41686746987958,163.69644065508416L151.5823293172691,164.0109482087548L153.74779116465868,164.27436923815958L155.9132530120482,164.4174218728429L158.07871485943778,164.5538706814521L160.24417670682735,164.88499487378095L162.40963855421688,165.2505609890826L164.57510040160648,165.56397290497102L166.74056224899604,165.64818956900646L168.90602409638555,165.82022270959197L171.07148594377512,165.90696305119968L173.2369477911647,166.24561808177484L175.40240963855425,166.64189453395304L177.5678714859438,166.69593737216402L179.73333333333338,167.02749841842666L181.8987951807229,167.41980957283974L184.06425702811248,167.63082135105293L186.22971887550204,167.94402933217157L188.3951807228916,168.16926056675962L190.56064257028117,168.35942018811076L192.7261044176707,168.6399714652443L194.89156626506025,168.84866792251097L197.05702811244984,168.94719417848574L199.2224899598394,169.1747923935898L201.38795180722894,169.30142114265178L203.55341365461854,169.5101061758416L205.71887550200807,169.7000622555923L207.8843373493976,169.83763072850786L210.04979919678718,170.03449480770024L212.21526104417677,170.1386064582344L214.3807228915663,170.22213966541366L216.54618473895587,170.30404657148352L218.7116465863454,170.46473385843348L220.87710843373495,170.671566217905L223.04257028112457,170.60991801266445L225.20803212851413,170.85814550409557L227.37349397590367,171.1244553460195L229.5389558232932,171.31751269844244L231.70441767068274,171.5118791962351L233.8698795180723,171.7349047246673L236.03534136546187,171.8753253954622L238.2008032128515,172.01611482233366L240.366265060241,172.12235158218314L242.53172690763057,172.1518939228677L244.6971887550201,172.3997949554747L246.86265060240967,172.6337236229678L249.02811244979924,172.81922444818613L251.19357429718877,173.00621847134585L253.35903614457837,173.12997319011765L255.52449799196793,173.28324195590906L257.68995983935747,173.46292078098327L259.85542168674704,173.62557450511468L262.0208835341366,173.8664198072409L264.18634538152617,173.9591086935599L266.35180722891573,174.14201064071656L268.5172690763053,174.2245090905661L270.68273092369486,174.438192314689L272.8481927710844,174.65025545090242L275.01365461847394,174.88562529076046L277.1791164658635,175.11528164700408L279.344578313253,175.32156949261474L281.51004016064263,175.40773876641947L283.67550200803214,175.51603715796415L285.8409638554217,175.52036684831165L288.0064257028113,175.5829795938619L290.17188755020084,175.7965090619997L292.3373493975904,175.81160037056475L294.50281124497997,176.1050636278041L296.66827309236953,176.21925168570388L298.83373493975904,176.3690588721121L300.99919678714866,176.49006804786154L303.1646586345382,176.6931691571464L305.33012048192774,176.80581252707805L307.49558232931736,176.89146409515777L309.66104417670687,176.98932309246322L311.8265060240964,177.07724657100522L313.991967871486,177.18589215180157L316.15742971887556,177.31682510064803L318.3228915662651,177.41869128916494L320.4883534136547,177.57256698889125L322.65381526104426,177.64747834494028L324.81927710843377,177.76198319692236L326.98473895582333,177.92064304204484L329.1502008032129,178.09678684046537L331.31566265060246,178.04151497177895L333.4811244979921,178.17222333879243L335.6465863453816,178.34454210549657L337.8120481927711,178.45778805117274L339.9775100401607,178.59114080367257L342.14297188755023,178.63992444698997L344.3084337349398,178.7504165282701L346.4738955823294,178.93928642894983L348.6393574297189,179.07279931430918L350.8048192771085,179.16012895517358L352.97028112449806,179.2053307075119L355.1357429718876,179.29163440343828L357.30120481927713,179.43459912309578L359.46666666666675,179.55689932042387L361.6321285140563,179.7343923156758L363.7975903614458,179.83177319661743L365.96305220883545,179.8990990270054L368.12851405622496,180.05333074395395L370.2939759036145,180.1252990900184L372.4594377510041,180.17710560471093L374.6248995983936,180.23689823151744L376.7903614457832,180.29985649630856L378.9558232931728,180.4448518788313L381.12128514056235,180.5419557604526L383.28674698795186,180.67822425969328L385.4522088353414,180.80835629772608L387.617670682731,180.93101220193913L389.7831325301205,180.98916940401648L391.9485943775102,181.03606762207437L394.1140562248997,181.1580600018425L396.2795180722892,181.18141180481456L398.4449799196788,181.36324009578175L400.6104417670683,181.45004749248693L402.7759036144579,181.45553342514364L404.94136546184745,181.61303730769396L407.1068273092371,181.68155123906502L409.2722891566266,181.83168720322772L411.43775100401615,181.97458493117742L413.6032128514057,182.01793965628553L415.7686746987952,182.1575464791486L417.93413654618485,182.26733128218203L420.09959839357435,182.38014278492312L422.2650602409639,182.45353040730464L424.43052208835354,182.58105741045654L426.59598393574305,182.6491201022059L428.7614457831326,182.77679814843782L430.9269076305222,182.8962088655629L433.09236947791175,182.895723948333L435.25783132530125,182.9642489198519L437.4232931726908,183.06074081958792L439.5887550200804,183.1354116673824L441.7542168674699,183.24874207993776L443.9196787148595,183.39149625802054L446.085140562249,183.47591060417705L448.2506024096386,183.576860017828L450.4160642570281,183.7184172163961L452.5815261044177,183.80013883560497L454.7469879518072,183.93241235072986L456.91244979919674,184.08776196809703L459.07791164658636,184.0980303084853L461.243373493976,184.2103596585426L463.4088353413655,184.29598293318384L465.5742971887551,184.41580470733723L467.7397590361446,184.42365557334676L469.9052208835342,184.51558788797755L472.07068273092375,184.57465931057325L474.2361445783133,184.6853014631199L476.4016064257028,184.78943575631624L478.5670682730924,184.8347804593669L480.73253012048195,184.89552958336657L482.89799196787146,184.97323587547996L485.0634538152611,185.09998011979616L487.2289156626506,185.20103594847285L489.39437751004016,185.3317251278715L491.5598393574297,185.3962748934908L493.72530120481935,185.44004643521416L495.8907630522089,185.5232671503715L498.0562248995985,185.59319630234836L500.221686746988,185.65880430909453L502.38714859437755,185.7353891992248L504.5526104417671,185.77818055888727L506.7180722891567,185.89521577218318L508.8835341365462,185.9747200552904L511.0489959839358,186.09756213278243L513.2144578313254,186.16517379025277L515.3799196787149,186.2599132779474L517.5453815261044,186.3530867956417L519.710843373494,186.4119379356664L521.8763052208835,186.41179355749344L524.0417670682732,186.44073143462458L526.2072289156628,186.52794842889088L528.3726907630523,186.6258805693641L530.5381526104418,186.75216385273222L532.7036144578315,186.82370779689558L534.8690763052209,186.94269486499098L537.0345381526105,187.01708121569357L539.2,187.02599172384174" class="rv-xy-plot__series rv-xy-plot__series--line" transform="translate(40.8,5)" style="opacity: 1; stroke-width: 1.5; stroke: rgb(135, 206, 191);"/><g class="rv-xy-plot__series rv-xy-plot__series--mark" transform="translate(40.8,5)"><circle r="2" cx="539.2" cy="187.02599172384174" style="opacity: 1; stroke: rgb(135, 206, 191); fill: rgb(135, 206, 191); stroke-width: 1;"/></g><g class="rv-xy-plot__series rv-xy-plot__series--mark" transform="translate(40.8,5)"><circle r="2" cx="433.09236947791175" cy="141.6663307661637" style="opacity: 1; stroke: rgb(160, 199, 92); fill: rgb(160, 199, 92); stroke-width: 1;"/></g><defs class="rv-gradient-defs"><linearGradient id="leftFadeGradient" x1="0" x2="1" y1="0" y2="0"><stop offset="0%" stop-color="white" stop-opacity="1"/><stop offset="60%" stop-color="white" stop-opacity="1"/><stop offset="100%" stop-color="white" stop-opacity="0"/></linearGradient><linearGradient id="rightFadeGradient" x1="1" x2="0" y1="0" y2="0"><stop offset="0%" stop-color="white" stop-opacity="1"/><stop offset="100%" stop-color="white" stop-opacity="0"/></linearGradient><linearGradient id="bottomFadeGradient" x1="0" x2="0" y1="1" y2="0"><stop offset="0%" stop-color="white" stop-opacity="1"/><stop offset="40%" stop-color="white" stop-opacity="1"/><stop offset="100%" stop-color="white" stop-opacity="0"/></linearGradient><linearGradient id="topFadeGradient" x1="0" x2="0" y1="0" y2="1"><stop offset="0%" stop-color="white" stop-opacity="1"/><stop offset="100%" stop-color="white" stop-opacity="0"/></linearGradient></defs><g class="rv-xy-plot__borders plot-border"><rect class="rv-xy-plot__borders-bottom plot-border-bottom" x="0" y="229" width="600" height="30" style="fill: url(&quot;#bottomFadeGradient&quot;); opacity: 1;"/><rect class="rv-xy-plot__borders-left plot-border-left" x="0" y="0" width="40.8" height="259" style="fill: url(&quot;#leftFadeGradient&quot;); opacity: 1;"/><rect class="rv-xy-plot__borders-right plot-border-right" x="580" y="0" width="20" height="259" style="fill: url(&quot;#rightFadeGradient&quot;); opacity: 1;"/><rect class="rv-xy-plot__borders-top plot-border-top" x="0" y="0" width="600" height="5" style="fill: url(&quot;#topFadeGradient&quot;); opacity: 1;"/></g><g transform="translate(40.8,229)" class="rv-xy-plot__axis rv-xy-plot__axis--horizontal"><line x1="0" x2="539.2" y1="0" y2="0" class="rv-xy-plot__axis__line"/><g transform="translate(0, 0)" class="rv-xy-plot__axis__ticks"/></g><g transform="translate(40.8,229)" class="rv-xy-plot__axis rv-xy-plot__axis--horizontal" style="font-family: &quot;Source Sans Pro&quot;; fill: rgb(107, 107, 118); font-size: 14px;"><line x1="0" x2="539.2" y1="0" y2="0" class="rv-xy-plot__axis__line" style="font-family: &quot;Source Sans Pro&quot;; fill: rgb(107, 107, 118); font-size: 14px; stroke-width: 0;"/><g transform="translate(0, 0)" class="rv-xy-plot__axis__ticks"><g transform="translate(104.46269412510195, 0)" class="rv-xy-plot__axis__tick" style="font-family: &quot;Source Sans Pro&quot;; fill: rgb(107, 107, 118); font-size: 14px;"><line x1="0" x2="0" y1="-6" y2="6" class="rv-xy-plot__axis__tick__line" style="font-family: &quot;Source Sans Pro&quot;; fill: rgb(107, 107, 118); font-size: 14px; stroke-width: 0;"/><text text-anchor="middle" dy="0.72em" transform="translate(0, 14)" class="rv-xy-plot__axis__tick__text" style="font-family: sans-serif; fill: rgb(107, 107, 118); font-size: 14px;">2k</text></g><g transform="translate(209.9817394125768, 0)" class="rv-xy-plot__axis__tick" style="font-family: &quot;Source Sans Pro&quot;; fill: rgb(107, 107, 118); font-size: 14px;"><line x1="0" x2="0" y1="-6" y2="6" class="rv-xy-plot__axis__tick__line" style="font-family: &quot;Source Sans Pro&quot;; fill: rgb(107, 107, 118); font-size: 14px; stroke-width: 0;"/><text text-anchor="middle" dy="0.72em" transform="translate(0, 14)" class="rv-xy-plot__axis__tick__text" style="font-family: sans-serif; fill: rgb(107, 107, 118); font-size: 14px;">4k</text></g><g transform="translate(315.5007847000516, 0)" class="rv-xy-plot__axis__tick" style="font-family: &quot;Source Sans Pro&quot;; fill: rgb(107, 107, 118); font-size: 14px;"><line x1="0" x2="0" y1="-6" y2="6" class="rv-xy-plot__axis__tick__line" style="font-family: &quot;Source Sans Pro&quot;; fill: rgb(107, 107, 118); font-size: 14px; stroke-width: 0;"/><text text-anchor="middle" dy="0.72em" transform="translate(0, 14)" class="rv-xy-plot__axis__tick__text" style="font-family: sans-serif; fill: rgb(107, 107, 118); font-size: 14px;">6k</text></g><g transform="translate(421.01982998752646, 0)" class="rv-xy-plot__axis__tick" style="font-family: &quot;Source Sans Pro&quot;; fill: rgb(107, 107, 118); font-size: 14px;"><line x1="0" x2="0" y1="-6" y2="6" class="rv-xy-plot__axis__tick__line" style="font-family: &quot;Source Sans Pro&quot;; fill: rgb(107, 107, 118); font-size: 14px; stroke-width: 0;"/><text text-anchor="middle" dy="0.72em" transform="translate(0, 14)" class="rv-xy-plot__axis__tick__text" style="font-family: sans-serif; fill: rgb(107, 107, 118); font-size: 14px;">8k</text></g><g transform="translate(526.5388752750013, 0)" class="rv-xy-plot__axis__tick" style="font-family: &quot;Source Sans Pro&quot;; fill: rgb(107, 107, 118); font-size: 14px;"><line x1="0" x2="0" y1="-6" y2="6" class="rv-xy-plot__axis__tick__line" style="font-family: &quot;Source Sans Pro&quot;; fill: rgb(107, 107, 118); font-size: 14px; stroke-width: 0;"/><text text-anchor="middle" dy="0.72em" transform="translate(0, 14)" class="rv-xy-plot__axis__tick__text" style="font-family: sans-serif; fill: rgb(107, 107, 118); font-size: 14px;">10k</text></g></g><g transform="translate(0, 0)" class="rv-xy-plot__axis__title"><g transform="translate(533.2, -6) rotate(0)" style="text-anchor: end; font-family: &quot;Source Sans Pro&quot;; fill: rgb(107, 107, 118); font-size: 14px;"><text style="font-family: sans-serif; fill: rgb(107, 107, 118); font-size: 14px;">Step</text></g></g></g><g transform="translate(40.8,229)" class="rv-xy-plot__axis rv-xy-plot__axis--horizontal"><line x1="0" x2="0" y1="0" y2="0" class="rv-xy-plot__axis__line"/><g transform="translate(0, 0)" class="rv-xy-plot__axis__ticks"><g transform="translate(104.46269412510195, 0)" class="rv-xy-plot__axis__tick"><line x1="0" x2="0" y1="-6" y2="6" class="rv-xy-plot__axis__tick__line"/><text text-anchor="middle" dy="0.72em" transform="translate(0, 14)" class="rv-xy-plot__axis__tick__text" style="font-family: sans-serif;"/></g><g transform="translate(209.9817394125768, 0)" class="rv-xy-plot__axis__tick"><line x1="0" x2="0" y1="-6" y2="6" class="rv-xy-plot__axis__tick__line"/><text text-anchor="middle" dy="0.72em" transform="translate(0, 14)" class="rv-xy-plot__axis__tick__text" style="font-family: sans-serif;"/></g><g transform="translate(315.5007847000516, 0)" class="rv-xy-plot__axis__tick"><line x1="0" x2="0" y1="-6" y2="6" class="rv-xy-plot__axis__tick__line"/><text text-anchor="middle" dy="0.72em" transform="translate(0, 14)" class="rv-xy-plot__axis__tick__text" style="font-family: sans-serif;"/></g><g transform="translate(421.01982998752646, 0)" class="rv-xy-plot__axis__tick"><line x1="0" x2="0" y1="-6" y2="6" class="rv-xy-plot__axis__tick__line"/><text text-anchor="middle" dy="0.72em" transform="translate(0, 14)" class="rv-xy-plot__axis__tick__text" style="font-family: sans-serif;"/></g><g transform="translate(526.5388752750013, 0)" class="rv-xy-plot__axis__tick"><line x1="0" x2="0" y1="-6" y2="6" class="rv-xy-plot__axis__tick__line"/><text text-anchor="middle" dy="0.72em" transform="translate(0, 14)" class="rv-xy-plot__axis__tick__text" style="font-family: sans-serif;"/></g></g></g><g transform="translate(0,5)" class="rv-xy-plot__axis rv-xy-plot__axis--vertical" style="font-family: &quot;Source Sans Pro&quot;; fill: rgb(107, 107, 118); font-size: 14px;"><line x1="40.8" x2="40.8" y1="0" y2="224" class="rv-xy-plot__axis__line" style="font-family: &quot;Source Sans Pro&quot;; fill: rgb(107, 107, 118); font-size: 14px; stroke: none;"/><g transform="translate(40.8, 0)" class="rv-xy-plot__axis__ticks"><g transform="translate(0, 224)" class="rv-xy-plot__axis__tick" style="font-family: &quot;Source Sans Pro&quot;; fill: rgb(107, 107, 118); font-size: 14px;"><line y1="0" y2="0" x1="6" x2="-6" class="rv-xy-plot__axis__tick__line" style="font-family: &quot;Source Sans Pro&quot;; fill: rgb(107, 107, 118); font-size: 14px; stroke: none;"/><text text-anchor="end" dy="0.32em" transform="translate(-14, 0)" class="rv-xy-plot__axis__tick__text" style="font-family: sans-serif; fill: rgb(107, 107, 118); font-size: 14px;">0</text></g><g transform="translate(0, 189.6987410391726)" class="rv-xy-plot__axis__tick" style="font-family: &quot;Source Sans Pro&quot;; fill: rgb(107, 107, 118); font-size: 14px;"><line y1="0" y2="0" x1="6" x2="-6" class="rv-xy-plot__axis__tick__line" style="font-family: &quot;Source Sans Pro&quot;; fill: rgb(107, 107, 118); font-size: 14px; stroke: none;"/><text text-anchor="end" dy="0.32em" transform="translate(-14, 0)" class="rv-xy-plot__axis__tick__text" style="font-family: sans-serif; fill: rgb(107, 107, 118); font-size: 14px;">0.5</text></g><g transform="translate(0, 155.3974820783452)" class="rv-xy-plot__axis__tick" style="font-family: &quot;Source Sans Pro&quot;; fill: rgb(107, 107, 118); font-size: 14px;"><line y1="0" y2="0" x1="6" x2="-6" class="rv-xy-plot__axis__tick__line" style="font-family: &quot;Source Sans Pro&quot;; fill: rgb(107, 107, 118); font-size: 14px; stroke: none;"/><text text-anchor="end" dy="0.32em" transform="translate(-14, 0)" class="rv-xy-plot__axis__tick__text" style="font-family: sans-serif; fill: rgb(107, 107, 118); font-size: 14px;">1</text></g><g transform="translate(0, 121.09622311751782)" class="rv-xy-plot__axis__tick" style="font-family: &quot;Source Sans Pro&quot;; fill: rgb(107, 107, 118); font-size: 14px;"><line y1="0" y2="0" x1="6" x2="-6" class="rv-xy-plot__axis__tick__line" style="font-family: &quot;Source Sans Pro&quot;; fill: rgb(107, 107, 118); font-size: 14px; stroke: none;"/><text text-anchor="end" dy="0.32em" transform="translate(-14, 0)" class="rv-xy-plot__axis__tick__text" style="font-family: sans-serif; fill: rgb(107, 107, 118); font-size: 14px;">1.5</text></g><g transform="translate(0, 86.79496415669043)" class="rv-xy-plot__axis__tick" style="font-family: &quot;Source Sans Pro&quot;; fill: rgb(107, 107, 118); font-size: 14px;"><line y1="0" y2="0" x1="6" x2="-6" class="rv-xy-plot__axis__tick__line" style="font-family: &quot;Source Sans Pro&quot;; fill: rgb(107, 107, 118); font-size: 14px; stroke: none;"/><text text-anchor="end" dy="0.32em" transform="translate(-14, 0)" class="rv-xy-plot__axis__tick__text" style="font-family: sans-serif; fill: rgb(107, 107, 118); font-size: 14px;">2</text></g><g transform="translate(0, 52.49370519586303)" class="rv-xy-plot__axis__tick" style="font-family: &quot;Source Sans Pro&quot;; fill: rgb(107, 107, 118); font-size: 14px;"><line y1="0" y2="0" x1="6" x2="-6" class="rv-xy-plot__axis__tick__line" style="font-family: &quot;Source Sans Pro&quot;; fill: rgb(107, 107, 118); font-size: 14px; stroke: none;"/><text text-anchor="end" dy="0.32em" transform="translate(-14, 0)" class="rv-xy-plot__axis__tick__text" style="font-family: sans-serif; fill: rgb(107, 107, 118); font-size: 14px;">2.5</text></g><g transform="translate(0, 18.19244623503564)" class="rv-xy-plot__axis__tick" style="font-family: &quot;Source Sans Pro&quot;; fill: rgb(107, 107, 118); font-size: 14px;"><line y1="0" y2="0" x1="6" x2="-6" class="rv-xy-plot__axis__tick__line" style="font-family: &quot;Source Sans Pro&quot;; fill: rgb(107, 107, 118); font-size: 14px; stroke: none;"/><text text-anchor="end" dy="0.32em" transform="translate(-14, 0)" class="rv-xy-plot__axis__tick__text" style="font-family: sans-serif; fill: rgb(107, 107, 118); font-size: 14px;">3</text></g></g></g></svg></g><style xmlns="http://www.w3.org/1999/xhtml">/*&lt;![CDATA[*/<br />text { font-size: 10px; fill: black }<br />.react-vis-magic-css-import-rule{display:inherit}.rv-treemap{font-size:12px;position:relative}.rv-treemap__leaf{overflow:hidden;position:absolute}.rv-treemap__leaf--circle{align-items:center;border-radius:100%;display:flex;justify-content:center}.rv-treemap__leaf__content{overflow:hidden;padding:10px;text-overflow:ellipsis}.rv-xy-plot{color:#c3c3c3;position:relative}.rv-xy-plot canvas{pointer-events:none}.rv-xy-plot .rv-xy-canvas{pointer-events:none;position:absolute}.rv-xy-plot__inner{display:block}.rv-xy-plot__axis__line{fill:none;stroke-width:2px;stroke:#e6e6e9}.rv-xy-plot__axis__tick__line{stroke:#e6e6e9}.rv-xy-plot__axis__tick__text{fill:#6b6b76;font-size:11px}.rv-xy-plot__axis__title text{fill:#6b6b76;font-size:11px}.rv-xy-plot__grid-lines__line{stroke:#e6e6e9}.rv-xy-plot__circular-grid-lines__line{fill-opacity:0;stroke:#e6e6e9}.rv-xy-plot__series,.rv-xy-plot__series path{pointer-events:all}.rv-xy-plot__series--line{fill:none;stroke:#000;stroke-width:2px}.rv-crosshair{position:absolute;font-size:11px;pointer-events:none}.rv-crosshair__line{background:#47d3d9;width:1px}.rv-crosshair__inner{position:absolute;text-align:left;top:0}.rv-crosshair__inner__content{border-radius:4px;background:#3a3a48;color:#fff;font-size:12px;padding:7px 10px;box-shadow:0 2px 4px rgba(0,0,0,0.5)}.rv-crosshair__inner--left{right:4px}.rv-crosshair__inner--right{left:4px}.rv-crosshair__title{font-weight:bold;white-space:nowrap}.rv-crosshair__item{white-space:nowrap}.rv-hint{position:absolute;pointer-events:none}.rv-hint__content{border-radius:4px;padding:7px 10px;font-size:12px;background:#3a3a48;box-shadow:0 2px 4px rgba(0,0,0,0.5);color:#fff;text-align:left;white-space:nowrap}.rv-discrete-color-legend{box-sizing:border-box;overflow-y:auto;font-size:12px}.rv-discrete-color-legend.horizontal{white-space:nowrap}.rv-discrete-color-legend-item{color:#3a3a48;border-radius:1px;padding:9px 10px}.rv-discrete-color-legend-item.horizontal{display:inline-block}.rv-discrete-color-legend-item.horizontal .rv-discrete-color-legend-item__title{margin-left:0;display:block}.rv-discrete-color-legend-item__color{display:inline-block;vertical-align:middle;overflow:visible}.rv-discrete-color-legend-item__color__path{stroke:#dcdcdc;stroke-width:2px}.rv-discrete-color-legend-item__title{margin-left:10px}.rv-discrete-color-legend-item.disabled{color:#b8b8b8}.rv-discrete-color-legend-item.clickable{cursor:pointer}.rv-discrete-color-legend-item.clickable:hover{background:#f9f9f9}.rv-search-wrapper{display:flex;flex-direction:column}.rv-search-wrapper__form{flex:0}.rv-search-wrapper__form__input{width:100%;color:#a6a6a5;border:1px solid #e5e5e4;padding:7px 10px;font-size:12px;box-sizing:border-box;border-radius:2px;margin:0 0 9px;outline:0}.rv-search-wrapper__contents{flex:1;overflow:auto}.rv-continuous-color-legend{font-size:12px}.rv-continuous-color-legend .rv-gradient{height:4px;border-radius:2px;margin-bottom:5px}.rv-continuous-size-legend{font-size:12px}.rv-continuous-size-legend .rv-bubbles{text-align:justify;overflow:hidden;margin-bottom:5px;width:100%}.rv-continuous-size-legend .rv-bubble{background:#d8d9dc;display:inline-block;vertical-align:bottom}.rv-continuous-size-legend .rv-spacer{display:inline-block;font-size:0;line-height:0;width:100%}.rv-legend-titles{height:16px;position:relative}.rv-legend-titles__left,.rv-legend-titles__right,.rv-legend-titles__center{position:absolute;white-space:nowrap;overflow:hidden}.rv-legend-titles__center{display:block;text-align:center;width:100%}.rv-legend-titles__right{right:0}.rv-radial-chart .rv-xy-plot__series--label{pointer-events:none}<br /><br />/*]]&gt;*/</style></svg>