<svg xmlns="http://www.w3.org/2000/svg" viewBox="0 0 600 482"><g><text x="50%" y="0" style="fill: rgb(54, 58, 61); dominant-baseline: text-before-edge; text-anchor: middle; font-weight: bold; font-size: 13px; font-family: sans-serif;">train/loss</text><svg viewBox="0 0 1024 1024" x="46.1875" y="26" height="11" width="11"><path d="M128 533.333h768c23.564 0 42.667-19.103 42.667-42.667v-85.333c0-23.564-19.103-42.667-42.667-42.667h-768c-23.564 0-42.667 19.103-42.667 42.667v85.333c0 23.564 19.103 42.667 42.667 42.667z" style="fill: rgb(160, 199, 92);"/></svg><text x="65.1875" y="24" style="fill: rgb(160, 199, 92); dominant-baseline: text-before-edge; font-size: 11px; font-family: sans-serif;">electra-base-squad2</text><svg viewBox="0 0 1024 1024" x="238.96875" y="26" height="11" width="11"><path d="M128 533.333h768c23.564 0 42.667-19.103 42.667-42.667v-85.333c0-23.564-19.103-42.667-42.667-42.667h-768c-23.564 0-42.667 19.103-42.667 42.667v85.333c0 23.564 19.103 42.667 42.667 42.667z" style="fill: rgb(34, 148, 135);"/></svg><text x="257.96875" y="24" style="fill: rgb(34, 148, 135); dominant-baseline: text-before-edge; font-size: 11px; font-family: sans-serif;">distilbert-base-cased-distilled-squad</text><svg viewBox="0 0 1024 1024" x="25.9375" y="44" height="11" width="11"><path d="M128 533.333h768c23.564 0 42.667-19.103 42.667-42.667v-85.333c0-23.564-19.103-42.667-42.667-42.667h-768c-23.564 0-42.667 19.103-42.667 42.667v85.333c0 23.564 19.103 42.667 42.667 42.667z" style="fill: rgb(197, 101, 199);"/></svg><text x="44.9375" y="42" style="fill: rgb(197, 101, 199); dominant-baseline: text-before-edge; font-size: 11px; font-family: sans-serif;">bert-base-cased-squad2</text><svg viewBox="0 0 1024 1024" x="243.015625" y="44" height="11" width="11"><path d="M128 533.333h768c23.564 0 42.667-19.103 42.667-42.667v-85.333c0-23.564-19.103-42.667-42.667-42.667h-768c-23.564 0-42.667 19.103-42.667 42.667v85.333c0 23.564 19.103 42.667 42.667 42.667z" style="fill: rgb(240, 184, 153);"/></svg><text x="262.015625" y="42" style="fill: rgb(240, 184, 153); dominant-baseline: text-before-edge; font-size: 11px; font-family: sans-serif;">distilbert-base-uncased-distilled-squad</text><svg viewBox="0 0 1024 1024" x="114.234375" y="62" height="11" width="11"><path d="M128 533.333h768c23.564 0 42.667-19.103 42.667-42.667v-85.333c0-23.564-19.103-42.667-42.667-42.667h-768c-23.564 0-42.667 19.103-42.667 42.667v85.333c0 23.564 19.103 42.667 42.667 42.667z" style="fill: rgb(91, 197, 219);"/></svg><text x="133.234375" y="60" style="fill: rgb(91, 197, 219); dominant-baseline: text-before-edge; font-size: 11px; font-family: sans-serif;">bert-large-uncased-whole-word-masking-squad2</text><svg viewBox="0 0 1024 1024" x="77.78125" y="80" height="11" width="11"><path d="M128 533.333h768c23.564 0 42.667-19.103 42.667-42.667v-85.333c0-23.564-19.103-42.667-42.667-42.667h-768c-23.564 0-42.667 19.103-42.667 42.667v85.333c0 23.564 19.103 42.667 42.667 42.667z" style="fill: rgb(237, 183, 50);"/></svg><text x="96.78125" y="78" style="fill: rgb(237, 183, 50); dominant-baseline: text-before-edge; font-size: 11px; font-family: sans-serif;">bert-large-uncased-whole-word-masking-finetuned-squad</text><svg viewBox="0 0 1024 1024" x="199.28125" y="98" height="11" width="11"><path d="M128 533.333h768c23.564 0 42.667-19.103 42.667-42.667v-85.333c0-23.564-19.103-42.667-42.667-42.667h-768c-23.564 0-42.667 19.103-42.667 42.667v85.333c0 23.564 19.103 42.667 42.667 42.667z" style="fill: rgb(83, 135, 221);"/></svg><text x="218.28125" y="96" style="fill: rgb(83, 135, 221); dominant-baseline: text-before-edge; font-size: 11px; font-family: sans-serif;">xlm-roberta-base-squad2</text><svg viewBox="0 0 1024 1024" x="110.1875" y="116" height="11" width="11"><path d="M128 533.333h768c23.564 0 42.667-19.103 42.667-42.667v-85.333c0-23.564-19.103-42.667-42.667-42.667h-768c-23.564 0-42.667 19.103-42.667 42.667v85.333c0 23.564 19.103 42.667 42.667 42.667z" style="fill: rgb(229, 116, 57);"/></svg><text x="129.1875" y="114" style="fill: rgb(229, 116, 57); dominant-baseline: text-before-edge; font-size: 11px; font-family: sans-serif;">distilbert-multi-finetuned-for-xqua-on-tydiqa</text><svg viewBox="0 0 1024 1024" x="146.625" y="134" height="11" width="11"><path d="M128 533.333h768c23.564 0 42.667-19.103 42.667-42.667v-85.333c0-23.564-19.103-42.667-42.667-42.667h-768c-23.564 0-42.667 19.103-42.667 42.667v85.333c0 23.564 19.103 42.667 42.667 42.667z" style="fill: rgb(232, 123, 159);"/></svg><text x="165.625" y="132" style="fill: rgb(232, 123, 159); dominant-baseline: text-before-edge; font-size: 11px; font-family: sans-serif;">bert-multi-uncased-finetuned-xquadv1</text><svg viewBox="0 0 1024 1024" x="154.734375" y="152" height="11" width="11"><path d="M128 533.333h768c23.564 0 42.667-19.103 42.667-42.667v-85.333c0-23.564-19.103-42.667-42.667-42.667h-768c-23.564 0-42.667 19.103-42.667 42.667v85.333c0 23.564 19.103 42.667 42.667 42.667z" style="fill: rgb(125, 84, 178);"/></svg><text x="173.734375" y="150" style="fill: rgb(125, 84, 178); dominant-baseline: text-before-edge; font-size: 11px; font-family: sans-serif;">bert-multi-cased-finetuned-xquadv1</text><svg viewBox="0 0 1024 1024" x="114.234375" y="170" height="11" width="11"><path d="M128 533.333h768c23.564 0 42.667-19.103 42.667-42.667v-85.333c0-23.564-19.103-42.667-42.667-42.667h-768c-23.564 0-42.667 19.103-42.667 42.667v85.333c0 23.564 19.103 42.667 42.667 42.667z" style="fill: rgb(218, 76, 76);"/></svg><text x="133.234375" y="168" style="fill: rgb(218, 76, 76); dominant-baseline: text-before-edge; font-size: 11px; font-family: sans-serif;">bert-base-multilingual-cased-finetuned-squad</text><svg viewBox="0 0 1024 1024" x="170.9375" y="188" height="11" width="11"><path d="M128 533.333h768c23.564 0 42.667-19.103 42.667-42.667v-85.333c0-23.564-19.103-42.667-42.667-42.667h-768c-23.564 0-42.667 19.103-42.667 42.667v85.333c0 23.564 19.103 42.667 42.667 42.667z" style="fill: rgb(135, 206, 191);"/></svg><text x="189.9375" y="186" style="fill: rgb(135, 206, 191); dominant-baseline: text-before-edge; font-size: 11px; font-family: sans-serif;">xlm-multi-roberta-large-squad2</text><svg viewBox="0 0 1024 1024" x="106.125" y="206" height="11" width="11"><path d="M128 533.333h768c23.564 0 42.667-19.103 42.667-42.667v-85.333c0-23.564-19.103-42.667-42.667-42.667h-768c-23.564 0-42.667 19.103-42.667 42.667v85.333c0 23.564 19.103 42.667 42.667 42.667z" style="fill: rgb(71, 154, 95);"/></svg><text x="125.125" y="204" style="fill: rgb(71, 154, 95); dominant-baseline: text-before-edge; font-size: 11px; font-family: sans-serif;">bert-multi-cased-finedtuned-xquad-tydiqa-goldp</text><svg viewBox="0 0 1024 1024" x="38.09375" y="224" height="11" width="11"><path d="M128 533.333h768c23.564 0 42.667-19.103 42.667-42.667v-85.333c0-23.564-19.103-42.667-42.667-42.667h-768c-23.564 0-42.667 19.103-42.667 42.667v85.333c0 23.564 19.103 42.667 42.667 42.667z" style="fill: rgb(164, 103, 80);"/></svg><text x="57.09375" y="222" style="fill: rgb(164, 103, 80); dominant-baseline: text-before-edge; font-size: 11px; font-family: sans-serif;">longformer-base-4096-finetuned-squadv1</text><svg viewBox="0 0 1024 1024" x="384.78125" y="224" height="11" width="11"><path d="M128 533.333h768c23.564 0 42.667-19.103 42.667-42.667v-85.333c0-23.564-19.103-42.667-42.667-42.667h-768c-23.564 0-42.667 19.103-42.667 42.667v85.333c0 23.564 19.103 42.667 42.667 42.667z" style="fill: rgb(161, 169, 173);"/></svg><text x="403.78125" y="222" style="fill: rgb(161, 169, 173); dominant-baseline: text-before-edge; font-size: 11px; font-family: sans-serif;">roberta-large-squad2</text><svg viewBox="0 0 1024 1024" x="215.484375" y="242" height="11" width="11"><path d="M128 533.333h768c23.564 0 42.667-19.103 42.667-42.667v-85.333c0-23.564-19.103-42.667-42.667-42.667h-768c-23.564 0-42.667 19.103-42.667 42.667v85.333c0 23.564 19.103 42.667 42.667 42.667z" style="fill: rgb(161, 40, 100);"/></svg><text x="234.484375" y="240" style="fill: rgb(161, 40, 100); dominant-baseline: text-before-edge; font-size: 11px; font-family: sans-serif;">roberta-base-squad2</text></g><g transform="translate(0, 257)"><svg class="rv-xy-plot__inner" width="600" height="225"><g transform="translate(40.8,5)" class="rv-xy-plot__grid-lines"><line y1="190" y2="190" x1="0" x2="539.2" class="rv-xy-plot__grid-lines__line" style="stroke-width: 0.5;"/><line y1="150.31746031746033" y2="150.31746031746033" x1="0" x2="539.2" class="rv-xy-plot__grid-lines__line" style="stroke-width: 0.5;"/><line y1="110.63492063492063" y2="110.63492063492063" x1="0" x2="539.2" class="rv-xy-plot__grid-lines__line" style="stroke-width: 0.5;"/><line y1="70.95238095238096" y2="70.95238095238096" x1="0" x2="539.2" class="rv-xy-plot__grid-lines__line" style="stroke-width: 0.5;"/><line y1="31.26984126984128" y2="31.26984126984128" x1="0" x2="539.2" class="rv-xy-plot__grid-lines__line" style="stroke-width: 0.5;"/></g><path d="M0,156.23015873015873L179.73333333333335,160.70634920634922L359.4666666666667,161.83333333333334L539.2,161.64285714285714L718.9333333333334,163.15079365079364L898.6666666666667,166.23015873015873L1078.4,164.4047619047619L1258.1333333333334,165.88888888888889L1437.8666666666668,166.3968253968254L1617.6000000000001,167.77777777777777L1797.3333333333335,167.34920634920636L1977.0666666666668,166.27777777777777L2156.8,169.04761904761904L2336.5333333333333,169.18253968253967L2516.266666666667,167.95238095238093L2696,167.8968253968254L2875.7333333333336,169.65873015873018L3055.466666666667,167.05555555555557L3235.2000000000003,168.94444444444446L3414.9333333333334,170.84920634920636L3594.666666666667,169.35714285714286L3774.4000000000005,169.88888888888889L3954.1333333333337,171.26984126984127" class="rv-xy-plot__series rv-xy-plot__series--line" transform="translate(40.8,5)" style="opacity: 1; stroke-width: 1.5; stroke: rgb(161, 40, 100);"/><path d="M0,151.93650793650795L179.73333333333335,159.0793650793651L359.4666666666667,158.54761904761907L539.2,158.52380952380952L718.9333333333334,159.83333333333334L898.6666666666667,161.68253968253967L1078.4,161.4206349206349L1258.1333333333334,162.44444444444446L1437.8666666666668,163.71428571428572L1617.6000000000001,166.13492063492063L1797.3333333333335,165.23809523809524L1977.0666666666668,163.78571428571428L2156.8,167.57142857142858L2336.5333333333333,168.44444444444446L2516.266666666667,166.4126984126984L2696,164.34126984126985L2875.7333333333336,156.31746031746033L3055.466666666667,164.34126984126985L3235.2000000000003,166.984126984127L3414.9333333333334,169.5L3594.666666666667,168.18253968253967L3774.4000000000005,168.94444444444446L3954.1333333333337,170.25396825396825" class="rv-xy-plot__series rv-xy-plot__series--line" transform="translate(40.8,5)" style="opacity: 1; stroke-width: 1.5; stroke: rgb(161, 169, 173);"/><path d="M0,143.26190476190476L179.73333333333335,159.9126984126984L359.4666666666667,161.5793650793651L539.2,161.14285714285714L718.9333333333334,162.4126984126984L898.6666666666667,166.46825396825398L1078.4,164.1984126984127L1258.1333333333334,165.45238095238096L1437.8666666666668,165.19841269841268L1617.6000000000001,167.53968253968256L1797.3333333333335,167.13492063492063L1977.0666666666668,166.42857142857142L2156.8,168.92857142857144L2336.5333333333333,169.62698412698413L2516.266666666667,168.03968253968256L2696,167.79365079365078L2875.7333333333336,169.6825396825397L3055.466666666667,167.015873015873L3235.2000000000003,168.93650793650792L3414.9333333333334,170.5079365079365L3594.666666666667,169.26984126984127L3774.4000000000005,170.24603174603175" class="rv-xy-plot__series rv-xy-plot__series--line" transform="translate(40.8,5)" style="opacity: 1; stroke-width: 1.5; stroke: rgb(164, 103, 80);"/><path d="M0,132.44444444444446L179.73333333333335,138.8809523809524L359.4666666666667,141.14285714285714" class="rv-xy-plot__series rv-xy-plot__series--line" transform="translate(40.8,5)" style="opacity: 1; stroke-width: 1.5; stroke: rgb(71, 154, 95);"/><path d="M0,130.79365079365078L179.73333333333335,140.72222222222223" class="rv-xy-plot__series rv-xy-plot__series--line" transform="translate(40.8,5)" style="opacity: 1; stroke-width: 1.5; stroke: rgb(135, 206, 191);"/><path d="M0,126.15873015873017L179.73333333333335,138.21428571428572L359.4666666666667,140.34126984126985" class="rv-xy-plot__series rv-xy-plot__series--line" transform="translate(40.8,5)" style="opacity: 1; stroke-width: 1.5; stroke: rgb(218, 76, 76);"/><path d="M0,119.83333333333334L179.73333333333335,135.53174603174602L359.4666666666667,138.2777777777778" class="rv-xy-plot__series rv-xy-plot__series--line" transform="translate(40.8,5)" style="opacity: 1; stroke-width: 1.5; stroke: rgb(125, 84, 178);"/><path d="M0,110.75396825396825L179.73333333333335,128.56349206349208L359.4666666666667,133.87301587301585" class="rv-xy-plot__series rv-xy-plot__series--line" transform="translate(40.8,5)" style="opacity: 1; stroke-width: 1.5; stroke: rgb(232, 123, 159);"/><path d="M0,105.89682539682539L179.73333333333335,123.8015873015873L359.4666666666667,127.88095238095241" class="rv-xy-plot__series rv-xy-plot__series--line" transform="translate(40.8,5)" style="opacity: 1; stroke-width: 1.5; stroke: rgb(229, 116, 57);"/><path d="M0,116.11904761904763L179.73333333333335,127.23809523809524" class="rv-xy-plot__series rv-xy-plot__series--line" transform="translate(40.8,5)" style="opacity: 1; stroke-width: 1.5; stroke: rgb(83, 135, 221);"/><path d="M0,88.72222222222221L179.73333333333335,108.15873015873017L359.4666666666667,114.1031746031746L539.2,118.03174603174602" class="rv-xy-plot__series rv-xy-plot__series--line" transform="translate(40.8,5)" style="opacity: 1; stroke-width: 1.5; stroke: rgb(237, 183, 50);"/><path d="M0,94.12698412698413L179.73333333333335,107.96031746031744L359.4666666666667,113.43650793650792L539.2,116.93650793650794" class="rv-xy-plot__series rv-xy-plot__series--line" transform="translate(40.8,5)" style="opacity: 1; stroke-width: 1.5; stroke: rgb(91, 197, 219);"/><path d="M0,76.3809523809524L179.73333333333335,93.65873015873017L359.4666666666667,99.04761904761907L539.2,102.76190476190477" class="rv-xy-plot__series rv-xy-plot__series--line" transform="translate(40.8,5)" style="opacity: 1; stroke-width: 1.5; stroke: rgb(197, 101, 199);"/><path d="M0,0L179.73333333333335,25.547619047619065L359.4666666666667,29.94444444444444L539.2,32.674603174603185" class="rv-xy-plot__series rv-xy-plot__series--line" transform="translate(40.8,5)" style="opacity: 1; stroke-width: 1.5; stroke: rgb(160, 199, 92);"/><path d="M0,78.26984126984128L179.73333333333335,97.64285714285717L359.4666666666667,104.29365079365078L539.2,105.53968253968254" class="rv-xy-plot__series rv-xy-plot__series--line" transform="translate(40.8,5)" style="opacity: 1; stroke-width: 1.5; stroke: rgb(240, 184, 153);"/><path d="M0,75.03174603174604L179.73333333333335,88.03174603174604L359.4666666666667,93.97619047619048L539.2,97.1904761904762" class="rv-xy-plot__series rv-xy-plot__series--line" transform="translate(40.8,5)" style="opacity: 1; stroke-width: 1.5; stroke: rgb(34, 148, 135);"/><g class="rv-xy-plot__series rv-xy-plot__series--mark" transform="translate(40.8,5)"><circle r="2" cx="539.2" cy="97.1904761904762" style="opacity: 1; stroke: rgb(34, 148, 135); fill: rgb(34, 148, 135); stroke-width: 1;"/></g><g class="rv-xy-plot__series rv-xy-plot__series--mark" transform="translate(40.8,5)"><circle r="2" cx="539.2" cy="105.53968253968254" style="opacity: 1; stroke: rgb(240, 184, 153); fill: rgb(240, 184, 153); stroke-width: 1;"/></g><g class="rv-xy-plot__series rv-xy-plot__series--mark" transform="translate(40.8,5)"><circle r="2" cx="539.2" cy="32.674603174603185" style="opacity: 1; stroke: rgb(160, 199, 92); fill: rgb(160, 199, 92); stroke-width: 1;"/></g><g class="rv-xy-plot__series rv-xy-plot__series--mark" transform="translate(40.8,5)"><circle r="2" cx="539.2" cy="102.76190476190477" style="opacity: 1; stroke: rgb(197, 101, 199); fill: rgb(197, 101, 199); stroke-width: 1;"/></g><g class="rv-xy-plot__series rv-xy-plot__series--mark" transform="translate(40.8,5)"><circle r="2" cx="539.2" cy="116.93650793650794" style="opacity: 1; stroke: rgb(91, 197, 219); fill: rgb(91, 197, 219); stroke-width: 1;"/></g><g class="rv-xy-plot__series rv-xy-plot__series--mark" transform="translate(40.8,5)"><circle r="2" cx="539.2" cy="118.03174603174602" style="opacity: 1; stroke: rgb(237, 183, 50); fill: rgb(237, 183, 50); stroke-width: 1;"/></g><g class="rv-xy-plot__series rv-xy-plot__series--mark" transform="translate(40.8,5)"><circle r="2" cx="179.73333333333335" cy="127.23809523809524" style="opacity: 1; stroke: rgb(83, 135, 221); fill: rgb(83, 135, 221); stroke-width: 1;"/></g><g class="rv-xy-plot__series rv-xy-plot__series--mark" transform="translate(40.8,5)"><circle r="2" cx="359.4666666666667" cy="127.88095238095241" style="opacity: 1; stroke: rgb(229, 116, 57); fill: rgb(229, 116, 57); stroke-width: 1;"/></g><g class="rv-xy-plot__series rv-xy-plot__series--mark" transform="translate(40.8,5)"><circle r="2" cx="359.4666666666667" cy="133.87301587301585" style="opacity: 1; stroke: rgb(232, 123, 159); fill: rgb(232, 123, 159); stroke-width: 1;"/></g><g class="rv-xy-plot__series rv-xy-plot__series--mark" transform="translate(40.8,5)"><circle r="2" cx="359.4666666666667" cy="138.2777777777778" style="opacity: 1; stroke: rgb(125, 84, 178); fill: rgb(125, 84, 178); stroke-width: 1;"/></g><g class="rv-xy-plot__series rv-xy-plot__series--mark" transform="translate(40.8,5)"><circle r="2" cx="359.4666666666667" cy="140.34126984126985" style="opacity: 1; stroke: rgb(218, 76, 76); fill: rgb(218, 76, 76); stroke-width: 1;"/></g><g class="rv-xy-plot__series rv-xy-plot__series--mark" transform="translate(40.8,5)"><circle r="2" cx="179.73333333333335" cy="140.72222222222223" style="opacity: 1; stroke: rgb(135, 206, 191); fill: rgb(135, 206, 191); stroke-width: 1;"/></g><g class="rv-xy-plot__series rv-xy-plot__series--mark" transform="translate(40.8,5)"><circle r="2" cx="359.4666666666667" cy="141.14285714285714" style="opacity: 1; stroke: rgb(71, 154, 95); fill: rgb(71, 154, 95); stroke-width: 1;"/></g><g class="rv-xy-plot__series rv-xy-plot__series--mark" transform="translate(40.8,5)"><circle r="2" cx="3774.4000000000005" cy="170.24603174603175" style="opacity: 1; stroke: rgb(164, 103, 80); fill: rgb(164, 103, 80); stroke-width: 1;"/></g><g class="rv-xy-plot__series rv-xy-plot__series--mark" transform="translate(40.8,5)"><circle r="2" cx="3954.1333333333337" cy="170.25396825396825" style="opacity: 1; stroke: rgb(161, 169, 173); fill: rgb(161, 169, 173); stroke-width: 1;"/></g><g class="rv-xy-plot__series rv-xy-plot__series--mark" transform="translate(40.8,5)"><circle r="2" cx="3954.1333333333337" cy="171.26984126984127" style="opacity: 1; stroke: rgb(161, 40, 100); fill: rgb(161, 40, 100); stroke-width: 1;"/></g><defs class="rv-gradient-defs"><linearGradient id="leftFadeGradient" x1="0" x2="1" y1="0" y2="0"><stop offset="0%" stop-color="white" stop-opacity="1"/><stop offset="60%" stop-color="white" stop-opacity="1"/><stop offset="100%" stop-color="white" stop-opacity="0"/></linearGradient><linearGradient id="rightFadeGradient" x1="1" x2="0" y1="0" y2="0"><stop offset="0%" stop-color="white" stop-opacity="1"/><stop offset="100%" stop-color="white" stop-opacity="0"/></linearGradient><linearGradient id="bottomFadeGradient" x1="0" x2="0" y1="1" y2="0"><stop offset="0%" stop-color="white" stop-opacity="1"/><stop offset="40%" stop-color="white" stop-opacity="1"/><stop offset="100%" stop-color="white" stop-opacity="0"/></linearGradient><linearGradient id="topFadeGradient" x1="0" x2="0" y1="0" y2="1"><stop offset="0%" stop-color="white" stop-opacity="1"/><stop offset="100%" stop-color="white" stop-opacity="0"/></linearGradient></defs><g class="rv-xy-plot__borders plot-border"><rect class="rv-xy-plot__borders-bottom plot-border-bottom" x="0" y="195" width="600" height="30" style="fill: url(&quot;#bottomFadeGradient&quot;); opacity: 1;"/><rect class="rv-xy-plot__borders-left plot-border-left" x="0" y="0" width="40.8" height="225" style="fill: url(&quot;#leftFadeGradient&quot;); opacity: 1;"/><rect class="rv-xy-plot__borders-right plot-border-right" x="580" y="0" width="20" height="225" style="fill: url(&quot;#rightFadeGradient&quot;); opacity: 1;"/><rect class="rv-xy-plot__borders-top plot-border-top" x="0" y="0" width="600" height="5" style="fill: url(&quot;#topFadeGradient&quot;); opacity: 1;"/></g><g transform="translate(40.8,195)" class="rv-xy-plot__axis rv-xy-plot__axis--horizontal"><line x1="0" x2="539.2" y1="0" y2="0" class="rv-xy-plot__axis__line"/><g transform="translate(0, 0)" class="rv-xy-plot__axis__ticks"/></g><g transform="translate(40.8,195)" class="rv-xy-plot__axis rv-xy-plot__axis--horizontal" style="font-family: &quot;Source Sans Pro&quot;; fill: rgb(107, 107, 118); font-size: 14px;"><line x1="0" x2="539.2" y1="0" y2="0" class="rv-xy-plot__axis__line" style="font-family: &quot;Source Sans Pro&quot;; fill: rgb(107, 107, 118); font-size: 14px; stroke-width: 0;"/><g transform="translate(0, 0)" class="rv-xy-plot__axis__ticks"><g transform="translate(0, 0)" class="rv-xy-plot__axis__tick" style="font-family: &quot;Source Sans Pro&quot;; fill: rgb(107, 107, 118); font-size: 14px;"><line x1="0" x2="0" y1="-6" y2="6" class="rv-xy-plot__axis__tick__line" style="font-family: &quot;Source Sans Pro&quot;; fill: rgb(107, 107, 118); font-size: 14px; stroke-width: 0;"/><text text-anchor="middle" dy="0.72em" transform="translate(0, 14)" class="rv-xy-plot__axis__tick__text" style="font-family: sans-serif; fill: rgb(107, 107, 118); font-size: 14px;">0</text></g><g transform="translate(179.73333333333335, 0)" class="rv-xy-plot__axis__tick" style="font-family: &quot;Source Sans Pro&quot;; fill: rgb(107, 107, 118); font-size: 14px;"><line x1="0" x2="0" y1="-6" y2="6" class="rv-xy-plot__axis__tick__line" style="font-family: &quot;Source Sans Pro&quot;; fill: rgb(107, 107, 118); font-size: 14px; stroke-width: 0;"/><text text-anchor="middle" dy="0.72em" transform="translate(0, 14)" class="rv-xy-plot__axis__tick__text" style="font-family: sans-serif; fill: rgb(107, 107, 118); font-size: 14px;">1</text></g><g transform="translate(359.4666666666667, 0)" class="rv-xy-plot__axis__tick" style="font-family: &quot;Source Sans Pro&quot;; fill: rgb(107, 107, 118); font-size: 14px;"><line x1="0" x2="0" y1="-6" y2="6" class="rv-xy-plot__axis__tick__line" style="font-family: &quot;Source Sans Pro&quot;; fill: rgb(107, 107, 118); font-size: 14px; stroke-width: 0;"/><text text-anchor="middle" dy="0.72em" transform="translate(0, 14)" class="rv-xy-plot__axis__tick__text" style="font-family: sans-serif; fill: rgb(107, 107, 118); font-size: 14px;">2</text></g><g transform="translate(539.2, 0)" class="rv-xy-plot__axis__tick" style="font-family: &quot;Source Sans Pro&quot;; fill: rgb(107, 107, 118); font-size: 14px;"><line x1="0" x2="0" y1="-6" y2="6" class="rv-xy-plot__axis__tick__line" style="font-family: &quot;Source Sans Pro&quot;; fill: rgb(107, 107, 118); font-size: 14px; stroke-width: 0;"/><text text-anchor="middle" dy="0.72em" transform="translate(0, 14)" class="rv-xy-plot__axis__tick__text" style="font-family: sans-serif; fill: rgb(107, 107, 118); font-size: 14px;">3</text></g></g><g transform="translate(0, 0)" class="rv-xy-plot__axis__title"><g transform="translate(533.2, -6) rotate(0)" style="text-anchor: end; font-family: &quot;Source Sans Pro&quot;; fill: rgb(107, 107, 118); font-size: 14px;"><text style="font-family: sans-serif; fill: rgb(107, 107, 118); font-size: 14px;">Step</text></g></g></g><g transform="translate(40.8,195)" class="rv-xy-plot__axis rv-xy-plot__axis--horizontal"><line x1="0" x2="0" y1="0" y2="0" class="rv-xy-plot__axis__line"/><g transform="translate(0, 0)" class="rv-xy-plot__axis__ticks"><g transform="translate(0, 0)" class="rv-xy-plot__axis__tick"><line x1="0" x2="0" y1="-6" y2="6" class="rv-xy-plot__axis__tick__line"/><text text-anchor="middle" dy="0.72em" transform="translate(0, 14)" class="rv-xy-plot__axis__tick__text" style="font-family: sans-serif;"/></g><g transform="translate(179.73333333333335, 0)" class="rv-xy-plot__axis__tick"><line x1="0" x2="0" y1="-6" y2="6" class="rv-xy-plot__axis__tick__line"/><text text-anchor="middle" dy="0.72em" transform="translate(0, 14)" class="rv-xy-plot__axis__tick__text" style="font-family: sans-serif;"/></g><g transform="translate(359.4666666666667, 0)" class="rv-xy-plot__axis__tick"><line x1="0" x2="0" y1="-6" y2="6" class="rv-xy-plot__axis__tick__line"/><text text-anchor="middle" dy="0.72em" transform="translate(0, 14)" class="rv-xy-plot__axis__tick__text" style="font-family: sans-serif;"/></g><g transform="translate(539.2, 0)" class="rv-xy-plot__axis__tick"><line x1="0" x2="0" y1="-6" y2="6" class="rv-xy-plot__axis__tick__line"/><text text-anchor="middle" dy="0.72em" transform="translate(0, 14)" class="rv-xy-plot__axis__tick__text" style="font-family: sans-serif;"/></g></g></g><g transform="translate(0,5)" class="rv-xy-plot__axis rv-xy-plot__axis--vertical" style="font-family: &quot;Source Sans Pro&quot;; fill: rgb(107, 107, 118); font-size: 14px;"><line x1="40.8" x2="40.8" y1="0" y2="190" class="rv-xy-plot__axis__line" style="font-family: &quot;Source Sans Pro&quot;; fill: rgb(107, 107, 118); font-size: 14px; stroke: none;"/><g transform="translate(40.8, 0)" class="rv-xy-plot__axis__ticks"><g transform="translate(0, 190)" class="rv-xy-plot__axis__tick" style="font-family: &quot;Source Sans Pro&quot;; fill: rgb(107, 107, 118); font-size: 14px;"><line y1="0" y2="0" x1="6" x2="-6" class="rv-xy-plot__axis__tick__line" style="font-family: &quot;Source Sans Pro&quot;; fill: rgb(107, 107, 118); font-size: 14px; stroke: none;"/><text text-anchor="end" dy="0.32em" transform="translate(-14, 0)" class="rv-xy-plot__axis__tick__text" style="font-family: sans-serif; fill: rgb(107, 107, 118); font-size: 14px;">0</text></g><g transform="translate(0, 150.31746031746033)" class="rv-xy-plot__axis__tick" style="font-family: &quot;Source Sans Pro&quot;; fill: rgb(107, 107, 118); font-size: 14px;"><line y1="0" y2="0" x1="6" x2="-6" class="rv-xy-plot__axis__tick__line" style="font-family: &quot;Source Sans Pro&quot;; fill: rgb(107, 107, 118); font-size: 14px; stroke: none;"/><text text-anchor="end" dy="0.32em" transform="translate(-14, 0)" class="rv-xy-plot__axis__tick__text" style="font-family: sans-serif; fill: rgb(107, 107, 118); font-size: 14px;">0.5</text></g><g transform="translate(0, 110.63492063492063)" class="rv-xy-plot__axis__tick" style="font-family: &quot;Source Sans Pro&quot;; fill: rgb(107, 107, 118); font-size: 14px;"><line y1="0" y2="0" x1="6" x2="-6" class="rv-xy-plot__axis__tick__line" style="font-family: &quot;Source Sans Pro&quot;; fill: rgb(107, 107, 118); font-size: 14px; stroke: none;"/><text text-anchor="end" dy="0.32em" transform="translate(-14, 0)" class="rv-xy-plot__axis__tick__text" style="font-family: sans-serif; fill: rgb(107, 107, 118); font-size: 14px;">1</text></g><g transform="translate(0, 70.95238095238096)" class="rv-xy-plot__axis__tick" style="font-family: &quot;Source Sans Pro&quot;; fill: rgb(107, 107, 118); font-size: 14px;"><line y1="0" y2="0" x1="6" x2="-6" class="rv-xy-plot__axis__tick__line" style="font-family: &quot;Source Sans Pro&quot;; fill: rgb(107, 107, 118); font-size: 14px; stroke: none;"/><text text-anchor="end" dy="0.32em" transform="translate(-14, 0)" class="rv-xy-plot__axis__tick__text" style="font-family: sans-serif; fill: rgb(107, 107, 118); font-size: 14px;">1.5</text></g><g transform="translate(0, 31.26984126984128)" class="rv-xy-plot__axis__tick" style="font-family: &quot;Source Sans Pro&quot;; fill: rgb(107, 107, 118); font-size: 14px;"><line y1="0" y2="0" x1="6" x2="-6" class="rv-xy-plot__axis__tick__line" style="font-family: &quot;Source Sans Pro&quot;; fill: rgb(107, 107, 118); font-size: 14px; stroke: none;"/><text text-anchor="end" dy="0.32em" transform="translate(-14, 0)" class="rv-xy-plot__axis__tick__text" style="font-family: sans-serif; fill: rgb(107, 107, 118); font-size: 14px;">2</text></g></g></g></svg></g><style xmlns="http://www.w3.org/1999/xhtml">/*&lt;![CDATA[*/<br />text { font-size: 10px; fill: black }<br />.react-vis-magic-css-import-rule{display:inherit}.rv-treemap{font-size:12px;position:relative}.rv-treemap__leaf{overflow:hidden;position:absolute}.rv-treemap__leaf--circle{align-items:center;border-radius:100%;display:flex;justify-content:center}.rv-treemap__leaf__content{overflow:hidden;padding:10px;text-overflow:ellipsis}.rv-xy-plot{color:#c3c3c3;position:relative}.rv-xy-plot canvas{pointer-events:none}.rv-xy-plot .rv-xy-canvas{pointer-events:none;position:absolute}.rv-xy-plot__inner{display:block}.rv-xy-plot__axis__line{fill:none;stroke-width:2px;stroke:#e6e6e9}.rv-xy-plot__axis__tick__line{stroke:#e6e6e9}.rv-xy-plot__axis__tick__text{fill:#6b6b76;font-size:11px}.rv-xy-plot__axis__title text{fill:#6b6b76;font-size:11px}.rv-xy-plot__grid-lines__line{stroke:#e6e6e9}.rv-xy-plot__circular-grid-lines__line{fill-opacity:0;stroke:#e6e6e9}.rv-xy-plot__series,.rv-xy-plot__series path{pointer-events:all}.rv-xy-plot__series--line{fill:none;stroke:#000;stroke-width:2px}.rv-crosshair{position:absolute;font-size:11px;pointer-events:none}.rv-crosshair__line{background:#47d3d9;width:1px}.rv-crosshair__inner{position:absolute;text-align:left;top:0}.rv-crosshair__inner__content{border-radius:4px;background:#3a3a48;color:#fff;font-size:12px;padding:7px 10px;box-shadow:0 2px 4px rgba(0,0,0,0.5)}.rv-crosshair__inner--left{right:4px}.rv-crosshair__inner--right{left:4px}.rv-crosshair__title{font-weight:bold;white-space:nowrap}.rv-crosshair__item{white-space:nowrap}.rv-hint{position:absolute;pointer-events:none}.rv-hint__content{border-radius:4px;padding:7px 10px;font-size:12px;background:#3a3a48;box-shadow:0 2px 4px rgba(0,0,0,0.5);color:#fff;text-align:left;white-space:nowrap}.rv-discrete-color-legend{box-sizing:border-box;overflow-y:auto;font-size:12px}.rv-discrete-color-legend.horizontal{white-space:nowrap}.rv-discrete-color-legend-item{color:#3a3a48;border-radius:1px;padding:9px 10px}.rv-discrete-color-legend-item.horizontal{display:inline-block}.rv-discrete-color-legend-item.horizontal .rv-discrete-color-legend-item__title{margin-left:0;display:block}.rv-discrete-color-legend-item__color{display:inline-block;vertical-align:middle;overflow:visible}.rv-discrete-color-legend-item__color__path{stroke:#dcdcdc;stroke-width:2px}.rv-discrete-color-legend-item__title{margin-left:10px}.rv-discrete-color-legend-item.disabled{color:#b8b8b8}.rv-discrete-color-legend-item.clickable{cursor:pointer}.rv-discrete-color-legend-item.clickable:hover{background:#f9f9f9}.rv-search-wrapper{display:flex;flex-direction:column}.rv-search-wrapper__form{flex:0}.rv-search-wrapper__form__input{width:100%;color:#a6a6a5;border:1px solid #e5e5e4;padding:7px 10px;font-size:12px;box-sizing:border-box;border-radius:2px;margin:0 0 9px;outline:0}.rv-search-wrapper__contents{flex:1;overflow:auto}.rv-continuous-color-legend{font-size:12px}.rv-continuous-color-legend .rv-gradient{height:4px;border-radius:2px;margin-bottom:5px}.rv-continuous-size-legend{font-size:12px}.rv-continuous-size-legend .rv-bubbles{text-align:justify;overflow:hidden;margin-bottom:5px;width:100%}.rv-continuous-size-legend .rv-bubble{background:#d8d9dc;display:inline-block;vertical-align:bottom}.rv-continuous-size-legend .rv-spacer{display:inline-block;font-size:0;line-height:0;width:100%}.rv-legend-titles{height:16px;position:relative}.rv-legend-titles__left,.rv-legend-titles__right,.rv-legend-titles__center{position:absolute;white-space:nowrap;overflow:hidden}.rv-legend-titles__center{display:block;text-align:center;width:100%}.rv-legend-titles__right{right:0}.rv-radial-chart .rv-xy-plot__series--label{pointer-events:none}<br /><br />/*]]&gt;*/</style></svg>
