<svg xmlns="http://www.w3.org/2000/svg" viewBox="0 0 600 300"><g><text x="50%" y="0" style="fill: rgb(54, 58, 61); dominant-baseline: text-before-edge; text-anchor: middle; font-weight: bold; font-size: 13px; font-family: sans-serif;">PreTraining Perplexity</text><svg viewBox="0 0 1024 1024" x="38.125" y="25" height="11" width="11"><path d="M128 533.333h768c23.564 0 42.667-19.103 42.667-42.667v-85.333c0-23.564-19.103-42.667-42.667-42.667h-768c-23.564 0-42.667 19.103-42.667 42.667v85.333c0 23.564 19.103 42.667 42.667 42.667z" style="fill: rgb(135, 206, 191);"/></svg><text x="57.125" y="23" style="fill: rgb(135, 206, 191); dominant-baseline: text-before-edge; font-size: 11px; font-family: sans-serif;"> displayName: Pretraining-electra-base</text><svg viewBox="0 0 1024 1024" x="304.09375" y="25" height="11" width="11"><path d="M128 533.333h768c23.564 0 42.667-19.103 42.667-42.667v-85.333c0-23.564-19.103-42.667-42.667-42.667h-768c-23.564 0-42.667 19.103-42.667 42.667v85.333c0 23.564 19.103 42.667 42.667 42.667z" style="fill: rgb(232, 123, 159);"/></svg><text x="323.09375" y="23" style="fill: rgb(232, 123, 159); dominant-baseline: text-before-edge; font-size: 11px; font-family: sans-serif;"> displayName: Pretraining-electra-small</text><svg viewBox="0 0 1024 1024" x="10.671875" y="39" height="11" width="11"><path d="M128 533.333h768c23.564 0 42.667-19.103 42.667-42.667v-85.333c0-23.564-19.103-42.667-42.667-42.667h-768c-23.564 0-42.667 19.103-42.667 42.667v85.333c0 23.564 19.103 42.667 42.667 42.667z" style="fill: rgb(160, 199, 92);"/></svg><text x="29.671875" y="37" style="fill: rgb(160, 199, 92); dominant-baseline: text-before-edge; font-size: 11px; font-family: sans-serif;"> displayName: Pretraining-distilbert-base-uncased</text><svg viewBox="0 0 1024 1024" x="343.75" y="39" height="11" width="11"><path d="M128 533.333h768c23.564 0 42.667-19.103 42.667-42.667v-85.333c0-23.564-19.103-42.667-42.667-42.667h-768c-23.564 0-42.667 19.103-42.667 42.667v85.333c0 23.564 19.103 42.667 42.667 42.667z" style="fill: rgb(76, 159, 218);"/></svg><text x="362.75" y="37" style="fill: rgb(76, 159, 218); dominant-baseline: text-before-edge; font-size: 11px; font-family: sans-serif;"> displayName: Pretraining-albert-base</text><svg viewBox="0 0 1024 1024" x="22.875" y="53" height="11" width="11"><path d="M128 533.333h768c23.564 0 42.667-19.103 42.667-42.667v-85.333c0-23.564-19.103-42.667-42.667-42.667h-768c-23.564 0-42.667 19.103-42.667 42.667v85.333c0 23.564 19.103 42.667 42.667 42.667z" style="fill: rgb(229, 116, 57);"/></svg><text x="41.875" y="51" style="fill: rgb(229, 116, 57); dominant-baseline: text-before-edge; font-size: 11px; font-family: sans-serif;"> displayName: Pretraining-electra-large</text><svg viewBox="0 0 1024 1024" x="294.953125" y="53" height="11" width="11"><path d="M128 533.333h768c23.564 0 42.667-19.103 42.667-42.667v-85.333c0-23.564-19.103-42.667-42.667-42.667h-768c-23.564 0-42.667 19.103-42.667 42.667v85.333c0 23.564 19.103 42.667 42.667 42.667z" style="fill: rgb(161, 40, 100);"/></svg><text x="313.953125" y="51" style="fill: rgb(161, 40, 100); dominant-baseline: text-before-edge; font-size: 11px; font-family: sans-serif;"> displayName: Pretraining-bert-base-uncased</text><svg viewBox="0 0 1024 1024" x="174.171875" y="67" height="11" width="11"><path d="M128 533.333h768c23.564 0 42.667-19.103 42.667-42.667v-85.333c0-23.564-19.103-42.667-42.667-42.667h-768c-23.564 0-42.667 19.103-42.667 42.667v85.333c0 23.564 19.103 42.667 42.667 42.667z" style="fill: rgb(71, 154, 95);"/></svg><text x="193.171875" y="65" style="fill: rgb(71, 154, 95); dominant-baseline: text-before-edge; font-size: 11px; font-family: sans-serif;"> displayName: Pretraining-roberta-base</text></g><g transform="translate(0, 78)"><svg class="rv-xy-plot__inner" width="600" height="222"><g transform="translate(32,5)" class="rv-xy-plot__grid-lines"><line y1="187" y2="187" x1="0" x2="548" class="rv-xy-plot__grid-lines__line" style="stroke-width: 0.5;"/><line y1="140.25" y2="140.25" x1="0" x2="548" class="rv-xy-plot__grid-lines__line" style="stroke-width: 0.5;"/><line y1="93.5" y2="93.5" x1="0" x2="548" class="rv-xy-plot__grid-lines__line" style="stroke-width: 0.5;"/><line y1="46.75" y2="46.75" x1="0" x2="548" class="rv-xy-plot__grid-lines__line" style="stroke-width: 0.5;"/><line y1="0" y2="0" x1="0" x2="548" class="rv-xy-plot__grid-lines__line" style="stroke-width: 0.5;"/></g><path d="M0,144.61653931946464L136.99999999999997,146.69383403126767L273.99999999999994,147.97522910270746L410.99999999999994,148.17149511749219L548,148.48107284046702L548,150.57267655489096L410.99999999999994,149.1999338517415L273.99999999999994,149.09442479946813L136.99999999999997,147.61449386849827L0,146.02894122373826Z" class="rv-xy-plot__series rv-xy-plot__series--line" transform="translate(32,5)" style="opacity: 1; stroke: rgba(0, 0, 0, 0); fill: rgba(71, 154, 95, 0.1);"/><path d="M0,145.6180809035293L136.99999999999997,147.30160640913638L273.99999999999994,148.63878738520634L410.99999999999994,148.8980920066088L548,149.67493586499515" class="rv-xy-plot__series rv-xy-plot__series--line" transform="translate(32,5)" style="opacity: 1; stroke-width: 1.5; stroke: rgb(71, 154, 95);"/><path d="M0,118.17050653645612L136.99999999999997,121.00482601704745L273.99999999999994,123.03542893908826L410.99999999999994,125.69221582008413L548,126.30974811672944L548,134.4332932759001L410.99999999999994,133.0815672356391L273.99999999999994,129.35448464225811L136.99999999999997,126.73385613187362L0,122.94664088291114Z" class="rv-xy-plot__series rv-xy-plot__series--line" transform="translate(32,5)" style="opacity: 1; stroke: rgba(0, 0, 0, 0); fill: rgba(161, 40, 100, 0.1);"/><path d="M0,120.77889806716388L136.99999999999997,123.71564788998414L273.99999999999994,125.9344720315805L410.99999999999994,128.89892480154634L548,129.76191147517724" class="rv-xy-plot__series rv-xy-plot__series--line" transform="translate(32,5)" style="opacity: 1; stroke-width: 1.5; stroke: rgb(161, 40, 100);"/><path d="M0,81.70050745429569L136.99999999999997,110.17630339093124L273.99999999999994,117.7113084277005L410.99999999999994,122.1339325931725L548,122.11764561356506L548,130.7381991767985L410.99999999999994,129.86815068279867L273.99999999999994,127.66146937849993L136.99999999999997,124.6663462696766L0,122.17349616313757Z" class="rv-xy-plot__series rv-xy-plot__series--line" transform="translate(32,5)" style="opacity: 1; stroke: rgba(0, 0, 0, 0); fill: rgba(229, 116, 57, 0.1);"/><path d="M0,107.6787901313932L136.99999999999997,119.17640129403182L273.99999999999994,123.75522860977716L410.99999999999994,126.58496202496912L548,127.21937239383303" class="rv-xy-plot__series rv-xy-plot__series--line" transform="translate(32,5)" style="opacity: 1; stroke-width: 1.5; stroke: rgb(229, 116, 57);"/><path d="M0,-11795.767397019607L136.99999999999997,93.26235112089765L273.99999999999994,97.79671142539773L410.99999999999994,103.87473977271182L548,107.32416110339263L548,117.15336745822601L410.99999999999994,113.67566579387076L273.99999999999994,111.2555883235727L136.99999999999997,104.63230112748414L0,93.14431992196914Z" class="rv-xy-plot__series rv-xy-plot__series--line" transform="translate(32,5)" style="opacity: 1; stroke: rgba(0, 0, 0, 0); fill: rgba(76, 159, 218, 0.1);"/><path d="M0,-2897.2553887388035L136.99999999999997,100.45891085837242L273.99999999999994,107.24506545447554L410.99999999999994,111.01428156241211L548,114.44600869298107" class="rv-xy-plot__series rv-xy-plot__series--line" transform="translate(32,5)" style="opacity: 1; stroke-width: 1.5; stroke: rgb(76, 159, 218);"/><path d="M0,94.49235560785385L136.99999999999997,97.80749350843087L273.99999999999994,102.8472078692451L410.99999999999994,105.37511609182924L548,106.77375339769105L548,116.71828081208095L410.99999999999994,113.573780583956L273.99999999999994,110.67098121980452L136.99999999999997,104.85424470040417L0,100.15843853692364Z" class="rv-xy-plot__series rv-xy-plot__series--line" transform="translate(32,5)" style="opacity: 1; stroke: rgba(0, 0, 0, 0); fill: rgba(160, 199, 92, 0.1);"/><path d="M0,98.197080263225L136.99999999999997,102.33981889329954L273.99999999999994,107.5632702381482L410.99999999999994,110.21709404500794L548,112.54507328880031" class="rv-xy-plot__series rv-xy-plot__series--line" transform="translate(32,5)" style="opacity: 1; stroke-width: 1.5; stroke: rgb(160, 199, 92);"/><path d="M0,-18.915472702808067L136.99999999999997,25.24278949666108L273.99999999999994,44.01486912162615L410.99999999999994,56.73324530644261L548,64.03275666968239L548,101.5884464527562L410.99999999999994,96.68875082299554L273.99999999999994,89.06001797530641L136.99999999999997,84.71295318491849L0,72.89104314763433Z" class="rv-xy-plot__series rv-xy-plot__series--line" transform="translate(32,5)" style="opacity: 1; stroke: rgba(0, 0, 0, 0); fill: rgba(232, 123, 159, 0.1);"/><path d="M0,28.459274115870535L136.99999999999997,57.06256666908865L273.99999999999994,66.61114769756442L410.99999999999994,76.62709851681193L548,83.23109265735877" class="rv-xy-plot__series rv-xy-plot__series--line" transform="translate(32,5)" style="opacity: 1; stroke-width: 1.5; stroke: rgb(232, 123, 159);"/><path d="M0,26.461601350842663L136.99999999999997,64.71104908712638L273.99999999999994,77.81499969086369L410.99999999999994,87.38943066898265L548,88.7655674300841L548,116.67453282140426L410.99999999999994,112.52443811670972L273.99999999999994,109.14865591072581L136.99999999999997,105.6813605324704L0,97.83630313375225Z" class="rv-xy-plot__series rv-xy-plot__series--line" transform="translate(32,5)" style="opacity: 1; stroke: rgba(0, 0, 0, 0); fill: rgba(135, 206, 191, 0.1);"/><path d="M0,64.99562890134074L136.99999999999997,86.2960116148279L273.99999999999994,94.44718088973204L410.99999999999994,100.73869555301556L548,104.88330038246824" class="rv-xy-plot__series rv-xy-plot__series--line" transform="translate(32,5)" style="opacity: 1; stroke-width: 1.5; stroke: rgb(135, 206, 191);"/><g class="rv-xy-plot__series rv-xy-plot__series--mark" transform="translate(32,5)"><circle r="2" cx="548" cy="104.88330038246824" style="opacity: 1; stroke: rgb(135, 206, 191); fill: rgb(135, 206, 191); stroke-width: 1;"/></g><g class="rv-xy-plot__series rv-xy-plot__series--mark" transform="translate(32,5)"><circle r="2" cx="548" cy="83.23109265735877" style="opacity: 1; stroke: rgb(232, 123, 159); fill: rgb(232, 123, 159); stroke-width: 1;"/></g><g class="rv-xy-plot__series rv-xy-plot__series--mark" transform="translate(32,5)"><circle r="2" cx="548" cy="112.54507328880031" style="opacity: 1; stroke: rgb(160, 199, 92); fill: rgb(160, 199, 92); stroke-width: 1;"/></g><g class="rv-xy-plot__series rv-xy-plot__series--mark" transform="translate(32,5)"><circle r="2" cx="548" cy="114.44600869298107" style="opacity: 1; stroke: rgb(76, 159, 218); fill: rgb(76, 159, 218); stroke-width: 1;"/></g><g class="rv-xy-plot__series rv-xy-plot__series--mark" transform="translate(32,5)"><circle r="2" cx="548" cy="127.21937239383303" style="opacity: 1; stroke: rgb(229, 116, 57); fill: rgb(229, 116, 57); stroke-width: 1;"/></g><g class="rv-xy-plot__series rv-xy-plot__series--mark" transform="translate(32,5)"><circle r="2" cx="548" cy="129.76191147517724" style="opacity: 1; stroke: rgb(161, 40, 100); fill: rgb(161, 40, 100); stroke-width: 1;"/></g><g class="rv-xy-plot__series rv-xy-plot__series--mark" transform="translate(32,5)"><circle r="2" cx="548" cy="149.67493586499515" style="opacity: 1; stroke: rgb(71, 154, 95); fill: rgb(71, 154, 95); stroke-width: 1;"/></g><defs class="rv-gradient-defs"><linearGradient id="leftFadeGradient" x1="0" x2="1" y1="0" y2="0"><stop offset="0%" stop-color="white" stop-opacity="1"/><stop offset="60%" stop-color="white" stop-opacity="1"/><stop offset="100%" stop-color="white" stop-opacity="0"/></linearGradient><linearGradient id="rightFadeGradient" x1="1" x2="0" y1="0" y2="0"><stop offset="0%" stop-color="white" stop-opacity="1"/><stop offset="100%" stop-color="white" stop-opacity="0"/></linearGradient><linearGradient id="bottomFadeGradient" x1="0" x2="0" y1="1" y2="0"><stop offset="0%" stop-color="white" stop-opacity="1"/><stop offset="40%" stop-color="white" stop-opacity="1"/><stop offset="100%" stop-color="white" stop-opacity="0"/></linearGradient><linearGradient id="topFadeGradient" x1="0" x2="0" y1="0" y2="1"><stop offset="0%" stop-color="white" stop-opacity="1"/><stop offset="100%" stop-color="white" stop-opacity="0"/></linearGradient></defs><g class="rv-xy-plot__borders plot-border"><rect class="rv-xy-plot__borders-bottom plot-border-bottom" x="0" y="192" width="600" height="30" style="fill: url(&quot;#bottomFadeGradient&quot;); opacity: 1;"/><rect class="rv-xy-plot__borders-left plot-border-left" x="0" y="0" width="32" height="222" style="fill: url(&quot;#leftFadeGradient&quot;); opacity: 1;"/><rect class="rv-xy-plot__borders-right plot-border-right" x="580" y="0" width="20" height="222" style="fill: url(&quot;#rightFadeGradient&quot;); opacity: 1;"/><rect class="rv-xy-plot__borders-top plot-border-top" x="0" y="0" width="600" height="5" style="fill: url(&quot;#topFadeGradient&quot;); opacity: 1;"/></g><g transform="translate(32,192)" class="rv-xy-plot__axis rv-xy-plot__axis--horizontal"><line x1="0" x2="548" y1="0" y2="0" class="rv-xy-plot__axis__line"/><g transform="translate(0, 0)" class="rv-xy-plot__axis__ticks"/></g><g transform="translate(32,192)" class="rv-xy-plot__axis rv-xy-plot__axis--horizontal" style="font-family: &quot;Source Sans Pro&quot;; fill: rgb(107, 107, 118); font-size: 11px;"><line x1="0" x2="548" y1="0" y2="0" class="rv-xy-plot__axis__line" style="font-family: &quot;Source Sans Pro&quot;; fill: rgb(107, 107, 118); font-size: 11px; stroke-width: 0;"/><g transform="translate(0, 0)" class="rv-xy-plot__axis__ticks"><g transform="translate(96.94022617124392, 0)" class="rv-xy-plot__axis__tick" style="font-family: &quot;Source Sans Pro&quot;; fill: rgb(107, 107, 118); font-size: 11px;"><line x1="0" x2="0" y1="-6" y2="6" class="rv-xy-plot__axis__tick__line" style="font-family: &quot;Source Sans Pro&quot;; fill: rgb(107, 107, 118); font-size: 11px; stroke-width: 0;"/><text text-anchor="middle" dy="0.72em" transform="translate(0, 14)" class="rv-xy-plot__axis__tick__text" style="font-family: sans-serif; fill: rgb(107, 107, 118); font-size: 11px;">300</text></g><g transform="translate(207.60258481421644, 0)" class="rv-xy-plot__axis__tick" style="font-family: &quot;Source Sans Pro&quot;; fill: rgb(107, 107, 118); font-size: 11px;"><line x1="0" x2="0" y1="-6" y2="6" class="rv-xy-plot__axis__tick__line" style="font-family: &quot;Source Sans Pro&quot;; fill: rgb(107, 107, 118); font-size: 11px; stroke-width: 0;"/><text text-anchor="middle" dy="0.72em" transform="translate(0, 14)" class="rv-xy-plot__axis__tick__text" style="font-family: sans-serif; fill: rgb(107, 107, 118); font-size: 11px;">400</text></g><g transform="translate(318.264943457189, 0)" class="rv-xy-plot__axis__tick" style="font-family: &quot;Source Sans Pro&quot;; fill: rgb(107, 107, 118); font-size: 11px;"><line x1="0" x2="0" y1="-6" y2="6" class="rv-xy-plot__axis__tick__line" style="font-family: &quot;Source Sans Pro&quot;; fill: rgb(107, 107, 118); font-size: 11px; stroke-width: 0;"/><text text-anchor="middle" dy="0.72em" transform="translate(0, 14)" class="rv-xy-plot__axis__tick__text" style="font-family: sans-serif; fill: rgb(107, 107, 118); font-size: 11px;">500</text></g><g transform="translate(428.9273021001615, 0)" class="rv-xy-plot__axis__tick" style="font-family: &quot;Source Sans Pro&quot;; fill: rgb(107, 107, 118); font-size: 11px;"><line x1="0" x2="0" y1="-6" y2="6" class="rv-xy-plot__axis__tick__line" style="font-family: &quot;Source Sans Pro&quot;; fill: rgb(107, 107, 118); font-size: 11px; stroke-width: 0;"/><text text-anchor="middle" dy="0.72em" transform="translate(0, 14)" class="rv-xy-plot__axis__tick__text" style="font-family: sans-serif; fill: rgb(107, 107, 118); font-size: 11px;">600</text></g><g transform="translate(539.589660743134, 0)" class="rv-xy-plot__axis__tick" style="font-family: &quot;Source Sans Pro&quot;; fill: rgb(107, 107, 118); font-size: 11px;"><line x1="0" x2="0" y1="-6" y2="6" class="rv-xy-plot__axis__tick__line" style="font-family: &quot;Source Sans Pro&quot;; fill: rgb(107, 107, 118); font-size: 11px; stroke-width: 0;"/><text text-anchor="middle" dy="0.72em" transform="translate(0, 14)" class="rv-xy-plot__axis__tick__text" style="font-family: sans-serif; fill: rgb(107, 107, 118); font-size: 11px;">700</text></g></g><g transform="translate(0, 0)" class="rv-xy-plot__axis__title"><g transform="translate(542, -6) rotate(0)" style="text-anchor: end; font-family: &quot;Source Sans Pro&quot;; fill: rgb(107, 107, 118); font-size: 11px;"><text style="font-family: sans-serif; fill: rgb(107, 107, 118); font-size: 11px;">Step</text></g></g></g><g transform="translate(32,192)" class="rv-xy-plot__axis rv-xy-plot__axis--horizontal"><line x1="0" x2="0" y1="0" y2="0" class="rv-xy-plot__axis__line"/><g transform="translate(0, 0)" class="rv-xy-plot__axis__ticks"><g transform="translate(96.94022617124392, 0)" class="rv-xy-plot__axis__tick"><line x1="0" x2="0" y1="-6" y2="6" class="rv-xy-plot__axis__tick__line"/><text text-anchor="middle" dy="0.72em" transform="translate(0, 14)" class="rv-xy-plot__axis__tick__text" style="font-family: sans-serif;"/></g><g transform="translate(207.60258481421644, 0)" class="rv-xy-plot__axis__tick"><line x1="0" x2="0" y1="-6" y2="6" class="rv-xy-plot__axis__tick__line"/><text text-anchor="middle" dy="0.72em" transform="translate(0, 14)" class="rv-xy-plot__axis__tick__text" style="font-family: sans-serif;"/></g><g transform="translate(318.264943457189, 0)" class="rv-xy-plot__axis__tick"><line x1="0" x2="0" y1="-6" y2="6" class="rv-xy-plot__axis__tick__line"/><text text-anchor="middle" dy="0.72em" transform="translate(0, 14)" class="rv-xy-plot__axis__tick__text" style="font-family: sans-serif;"/></g><g transform="translate(428.9273021001615, 0)" class="rv-xy-plot__axis__tick"><line x1="0" x2="0" y1="-6" y2="6" class="rv-xy-plot__axis__tick__line"/><text text-anchor="middle" dy="0.72em" transform="translate(0, 14)" class="rv-xy-plot__axis__tick__text" style="font-family: sans-serif;"/></g><g transform="translate(539.589660743134, 0)" class="rv-xy-plot__axis__tick"><line x1="0" x2="0" y1="-6" y2="6" class="rv-xy-plot__axis__tick__line"/><text text-anchor="middle" dy="0.72em" transform="translate(0, 14)" class="rv-xy-plot__axis__tick__text" style="font-family: sans-serif;"/></g></g></g><g transform="translate(0,5)" class="rv-xy-plot__axis rv-xy-plot__axis--vertical" style="font-family: &quot;Source Sans Pro&quot;; fill: rgb(107, 107, 118); font-size: 11px;"><line x1="32" x2="32" y1="0" y2="187" class="rv-xy-plot__axis__line" style="font-family: &quot;Source Sans Pro&quot;; fill: rgb(107, 107, 118); font-size: 11px; stroke: none;"/><g transform="translate(32, 0)" class="rv-xy-plot__axis__ticks"><g transform="translate(0, 187)" class="rv-xy-plot__axis__tick" style="font-family: &quot;Source Sans Pro&quot;; fill: rgb(107, 107, 118); font-size: 11px;"><line y1="0" y2="0" x1="6" x2="-6" class="rv-xy-plot__axis__tick__line" style="font-family: &quot;Source Sans Pro&quot;; fill: rgb(107, 107, 118); font-size: 11px; stroke: none;"/><text text-anchor="end" dy="0.32em" transform="translate(-14, 0)" class="rv-xy-plot__axis__tick__text" style="font-family: sans-serif; fill: rgb(107, 107, 118); font-size: 11px;">0</text></g><g transform="translate(0, 140.25)" class="rv-xy-plot__axis__tick" style="font-family: &quot;Source Sans Pro&quot;; fill: rgb(107, 107, 118); font-size: 11px;"><line y1="0" y2="0" x1="6" x2="-6" class="rv-xy-plot__axis__tick__line" style="font-family: &quot;Source Sans Pro&quot;; fill: rgb(107, 107, 118); font-size: 11px; stroke: none;"/><text text-anchor="end" dy="0.32em" transform="translate(-14, 0)" class="rv-xy-plot__axis__tick__text" style="font-family: sans-serif; fill: rgb(107, 107, 118); font-size: 11px;">5</text></g><g transform="translate(0, 93.5)" class="rv-xy-plot__axis__tick" style="font-family: &quot;Source Sans Pro&quot;; fill: rgb(107, 107, 118); font-size: 11px;"><line y1="0" y2="0" x1="6" x2="-6" class="rv-xy-plot__axis__tick__line" style="font-family: &quot;Source Sans Pro&quot;; fill: rgb(107, 107, 118); font-size: 11px; stroke: none;"/><text text-anchor="end" dy="0.32em" transform="translate(-14, 0)" class="rv-xy-plot__axis__tick__text" style="font-family: sans-serif; fill: rgb(107, 107, 118); font-size: 11px;">10</text></g><g transform="translate(0, 46.75)" class="rv-xy-plot__axis__tick" style="font-family: &quot;Source Sans Pro&quot;; fill: rgb(107, 107, 118); font-size: 11px;"><line y1="0" y2="0" x1="6" x2="-6" class="rv-xy-plot__axis__tick__line" style="font-family: &quot;Source Sans Pro&quot;; fill: rgb(107, 107, 118); font-size: 11px; stroke: none;"/><text text-anchor="end" dy="0.32em" transform="translate(-14, 0)" class="rv-xy-plot__axis__tick__text" style="font-family: sans-serif; fill: rgb(107, 107, 118); font-size: 11px;">15</text></g><g transform="translate(0, 0)" class="rv-xy-plot__axis__tick" style="font-family: &quot;Source Sans Pro&quot;; fill: rgb(107, 107, 118); font-size: 11px;"><line y1="0" y2="0" x1="6" x2="-6" class="rv-xy-plot__axis__tick__line" style="font-family: &quot;Source Sans Pro&quot;; fill: rgb(107, 107, 118); font-size: 11px; stroke: none;"/><text text-anchor="end" dy="0.32em" transform="translate(-14, 0)" class="rv-xy-plot__axis__tick__text" style="font-family: sans-serif; fill: rgb(107, 107, 118); font-size: 11px;">20</text></g></g></g></svg></g><style xmlns="http://www.w3.org/1999/xhtml">/*&lt;![CDATA[*/<br />text { font-size: 10px; fill: black }<br />.react-vis-magic-css-import-rule{display:inherit}.rv-treemap{font-size:12px;position:relative}.rv-treemap__leaf{overflow:hidden;position:absolute}.rv-treemap__leaf--circle{align-items:center;border-radius:100%;display:flex;justify-content:center}.rv-treemap__leaf__content{overflow:hidden;padding:10px;text-overflow:ellipsis}.rv-xy-plot{color:#c3c3c3;position:relative}.rv-xy-plot canvas{pointer-events:none}.rv-xy-plot .rv-xy-canvas{pointer-events:none;position:absolute}.rv-xy-plot__inner{display:block}.rv-xy-plot__axis__line{fill:none;stroke-width:2px;stroke:#e6e6e9}.rv-xy-plot__axis__tick__line{stroke:#e6e6e9}.rv-xy-plot__axis__tick__text{fill:#6b6b76;font-size:11px}.rv-xy-plot__axis__title text{fill:#6b6b76;font-size:11px}.rv-xy-plot__grid-lines__line{stroke:#e6e6e9}.rv-xy-plot__circular-grid-lines__line{fill-opacity:0;stroke:#e6e6e9}.rv-xy-plot__series,.rv-xy-plot__series path{pointer-events:all}.rv-xy-plot__series--line{fill:none;stroke:#000;stroke-width:2px}.rv-crosshair{position:absolute;font-size:11px;pointer-events:none}.rv-crosshair__line{background:#47d3d9;width:1px}.rv-crosshair__inner{position:absolute;text-align:left;top:0}.rv-crosshair__inner__content{border-radius:4px;background:#3a3a48;color:#fff;font-size:12px;padding:7px 10px;box-shadow:0 2px 4px rgba(0,0,0,0.5)}.rv-crosshair__inner--left{right:4px}.rv-crosshair__inner--right{left:4px}.rv-crosshair__title{font-weight:bold;white-space:nowrap}.rv-crosshair__item{white-space:nowrap}.rv-hint{position:absolute;pointer-events:none}.rv-hint__content{border-radius:4px;padding:7px 10px;font-size:12px;background:#3a3a48;box-shadow:0 2px 4px rgba(0,0,0,0.5);color:#fff;text-align:left;white-space:nowrap}.rv-discrete-color-legend{box-sizing:border-box;overflow-y:auto;font-size:12px}.rv-discrete-color-legend.horizontal{white-space:nowrap}.rv-discrete-color-legend-item{color:#3a3a48;border-radius:1px;padding:9px 10px}.rv-discrete-color-legend-item.horizontal{display:inline-block}.rv-discrete-color-legend-item.horizontal .rv-discrete-color-legend-item__title{margin-left:0;display:block}.rv-discrete-color-legend-item__color{display:inline-block;vertical-align:middle;overflow:visible}.rv-discrete-color-legend-item__color__path{stroke:#dcdcdc;stroke-width:2px}.rv-discrete-color-legend-item__title{margin-left:10px}.rv-discrete-color-legend-item.disabled{color:#b8b8b8}.rv-discrete-color-legend-item.clickable{cursor:pointer}.rv-discrete-color-legend-item.clickable:hover{background:#f9f9f9}.rv-search-wrapper{display:flex;flex-direction:column}.rv-search-wrapper__form{flex:0}.rv-search-wrapper__form__input{width:100%;color:#a6a6a5;border:1px solid #e5e5e4;padding:7px 10px;font-size:12px;box-sizing:border-box;border-radius:2px;margin:0 0 9px;outline:0}.rv-search-wrapper__contents{flex:1;overflow:auto}.rv-continuous-color-legend{font-size:12px}.rv-continuous-color-legend .rv-gradient{height:4px;border-radius:2px;margin-bottom:5px}.rv-continuous-size-legend{font-size:12px}.rv-continuous-size-legend .rv-bubbles{text-align:justify;overflow:hidden;margin-bottom:5px;width:100%}.rv-continuous-size-legend .rv-bubble{background:#d8d9dc;display:inline-block;vertical-align:bottom}.rv-continuous-size-legend .rv-spacer{display:inline-block;font-size:0;line-height:0;width:100%}.rv-legend-titles{height:16px;position:relative}.rv-legend-titles__left,.rv-legend-titles__right,.rv-legend-titles__center{position:absolute;white-space:nowrap;overflow:hidden}.rv-legend-titles__center{display:block;text-align:center;width:100%}.rv-legend-titles__right{right:0}.rv-radial-chart .rv-xy-plot__series--label{pointer-events:none}<br /><br />/*]]&gt;*/</style></svg>