<svg xmlns="http://www.w3.org/2000/svg" viewBox="0 0 600 300"><g><text x="50%" y="0" style="fill: rgb(54, 58, 61); dominant-baseline: text-before-edge; text-anchor: middle; font-weight: bold; font-size: 13px; font-family: sans-serif;">PreTraining Loss</text><svg viewBox="0 0 1024 1024" x="38.125" y="25" height="11" width="11"><path d="M128 533.333h768c23.564 0 42.667-19.103 42.667-42.667v-85.333c0-23.564-19.103-42.667-42.667-42.667h-768c-23.564 0-42.667 19.103-42.667 42.667v85.333c0 23.564 19.103 42.667 42.667 42.667z" style="fill: rgb(135, 206, 191);"/></svg><text x="57.125" y="23" style="fill: rgb(135, 206, 191); dominant-baseline: text-before-edge; font-size: 11px; font-family: sans-serif;"> displayName: Pretraining-electra-base</text><svg viewBox="0 0 1024 1024" x="304.09375" y="25" height="11" width="11"><path d="M128 533.333h768c23.564 0 42.667-19.103 42.667-42.667v-85.333c0-23.564-19.103-42.667-42.667-42.667h-768c-23.564 0-42.667 19.103-42.667 42.667v85.333c0 23.564 19.103 42.667 42.667 42.667z" style="fill: rgb(232, 123, 159);"/></svg><text x="323.09375" y="23" style="fill: rgb(232, 123, 159); dominant-baseline: text-before-edge; font-size: 11px; font-family: sans-serif;"> displayName: Pretraining-electra-small</text><svg viewBox="0 0 1024 1024" x="10.671875" y="39" height="11" width="11"><path d="M128 533.333h768c23.564 0 42.667-19.103 42.667-42.667v-85.333c0-23.564-19.103-42.667-42.667-42.667h-768c-23.564 0-42.667 19.103-42.667 42.667v85.333c0 23.564 19.103 42.667 42.667 42.667z" style="fill: rgb(160, 199, 92);"/></svg><text x="29.671875" y="37" style="fill: rgb(160, 199, 92); dominant-baseline: text-before-edge; font-size: 11px; font-family: sans-serif;"> displayName: Pretraining-distilbert-base-uncased</text><svg viewBox="0 0 1024 1024" x="343.75" y="39" height="11" width="11"><path d="M128 533.333h768c23.564 0 42.667-19.103 42.667-42.667v-85.333c0-23.564-19.103-42.667-42.667-42.667h-768c-23.564 0-42.667 19.103-42.667 42.667v85.333c0 23.564 19.103 42.667 42.667 42.667z" style="fill: rgb(76, 159, 218);"/></svg><text x="362.75" y="37" style="fill: rgb(76, 159, 218); dominant-baseline: text-before-edge; font-size: 11px; font-family: sans-serif;"> displayName: Pretraining-albert-base</text><svg viewBox="0 0 1024 1024" x="22.875" y="53" height="11" width="11"><path d="M128 533.333h768c23.564 0 42.667-19.103 42.667-42.667v-85.333c0-23.564-19.103-42.667-42.667-42.667h-768c-23.564 0-42.667 19.103-42.667 42.667v85.333c0 23.564 19.103 42.667 42.667 42.667z" style="fill: rgb(229, 116, 57);"/></svg><text x="41.875" y="51" style="fill: rgb(229, 116, 57); dominant-baseline: text-before-edge; font-size: 11px; font-family: sans-serif;"> displayName: Pretraining-electra-large</text><svg viewBox="0 0 1024 1024" x="294.953125" y="53" height="11" width="11"><path d="M128 533.333h768c23.564 0 42.667-19.103 42.667-42.667v-85.333c0-23.564-19.103-42.667-42.667-42.667h-768c-23.564 0-42.667 19.103-42.667 42.667v85.333c0 23.564 19.103 42.667 42.667 42.667z" style="fill: rgb(161, 40, 100);"/></svg><text x="313.953125" y="51" style="fill: rgb(161, 40, 100); dominant-baseline: text-before-edge; font-size: 11px; font-family: sans-serif;"> displayName: Pretraining-bert-base-uncased</text><svg viewBox="0 0 1024 1024" x="174.171875" y="67" height="11" width="11"><path d="M128 533.333h768c23.564 0 42.667-19.103 42.667-42.667v-85.333c0-23.564-19.103-42.667-42.667-42.667h-768c-23.564 0-42.667 19.103-42.667 42.667v85.333c0 23.564 19.103 42.667 42.667 42.667z" style="fill: rgb(71, 154, 95);"/></svg><text x="193.171875" y="65" style="fill: rgb(71, 154, 95); dominant-baseline: text-before-edge; font-size: 11px; font-family: sans-serif;"> displayName: Pretraining-roberta-base</text></g><g transform="translate(0, 78)"><svg class="rv-xy-plot__inner" width="600" height="222"><g transform="translate(34,5)" class="rv-xy-plot__grid-lines"><line y1="187" y2="187" x1="0" x2="546" class="rv-xy-plot__grid-lines__line" style="stroke-width: 0.5;"/><line y1="140.25" y2="140.25" x1="0" x2="546" class="rv-xy-plot__grid-lines__line" style="stroke-width: 0.5;"/><line y1="93.5" y2="93.5" x1="0" x2="546" class="rv-xy-plot__grid-lines__line" style="stroke-width: 0.5;"/><line y1="46.75" y2="46.75" x1="0" x2="546" class="rv-xy-plot__grid-lines__line" style="stroke-width: 0.5;"/><line y1="0" y2="0" x1="0" x2="546" class="rv-xy-plot__grid-lines__line" style="stroke-width: 0.5;"/></g><path d="M0,141.6167122742368L2.192771084337349,139.49950540272724L4.385542168674699,140.7482222215169L6.578313253012048,144.87755052041678L8.771084337349398,141.48019104657902L10.963855421686747,138.13502118115622L13.156626506024097,139.01167331992957L15.349397590361445,143.05698275710972L17.542168674698797,145.32560602885982L19.73493975903615,141.3408052018947L21.927710843373493,146.79369373184937L24.12048192771085,143.3113329458154L26.313253012048197,149.4437573365867L28.50602409638555,142.76063213083478L30.698795180722897,144.88446886195905L32.89156626506025,143.07980998295048L35.08433734939759,142.80361353854337L37.27710843373494,144.50272545653087L39.4698795180723,141.6732106121878L41.66265060240964,142.7102043752869L43.855421686746986,146.13111429226896L46.048192771084345,144.2105387383037L48.2409638554217,143.1594779400362L50.43373493975904,147.01295799306698L52.626506024096386,145.5086350403726L54.819277108433745,146.02094484762185L57.01204819277109,144.37574054197304L59.20481927710844,143.2103479777773L61.39759036144578,142.28066442182492L63.590361445783145,139.52728252795836L65.78313253012048,147.13876850675376L67.97590361445785,143.7277138042781L70.16867469879519,147.60191127362972L72.36144578313254,144.64944154417347L74.55421686746988,144.6907542538312L76.74698795180724,146.94325640156038L78.9397590361446,147.3142921504461L81.13253012048193,143.74042330247661L83.32530120481928,143.5599951564024L85.51807228915665,144.71006547556155L87.71084337349397,144.10326073091062L89.90361445783132,141.79542586083215L92.09638554216866,144.92315717558893L94.28915662650603,146.55896987352105L96.48192771084338,147.4884000112199L98.67469879518072,145.0249780213667L100.86746987951807,146.4141533197835L103.06024096385543,143.11553812523684L105.25301204819277,139.674538348491L107.44578313253012,139.3804673835014L109.63855421686745,143.36312632697323L111.83132530120483,139.52194317409564L114.02409638554218,142.6174004667749L116.2168674698795,143.727074995223L118.40963855421685,144.28260712780886L120.60240963855424,146.2074724862145L122.79518072289156,144.76246763331193L124.98795180722891,143.4829889037129L127.18072289156626,145.4818542111251L129.3734939759036,144.41901447592923L131.56626506024097,147.89374018563993L133.75903614457832,144.800882016826L135.95180722891567,144.08834949715268L138.144578313253,148.31061615401674L140.33734939759037,143.88557553477585L142.53012048192772,147.48883447568448L144.72289156626508,147.10324598621162L146.91566265060243,145.6112838687582L149.10843373493975,146.88022991187043L151.3012048192771,147.66289535268314L153.49397590361446,151.6973245917923L155.6867469879518,144.25936494312353L157.87951807228916,145.28029032284394L160.07228915662654,141.85671151263844L162.26506024096383,147.26886824435658L164.45783132530119,144.52048261442948L166.65060240963854,144.90231762660875L168.84337349397592,150.6582225575629L171.03614457831327,146.8851450184981L173.2289156626506,148.60122508431476L175.42168674698794,147.31608206199274L177.6144578313253,141.35189012189707L179.80722891566265,149.1458652632104L182,147.14056770669092L184.19277108433738,144.85408715593317L186.38554216867468,147.08678784842292L188.57831325301206,142.2812111210078L190.7710843373494,145.0524813712885L192.96385542168676,149.77375051317117L195.1566265060241,144.190323640075L197.34939759036143,148.37760282639L199.5421686746988,144.5667925555673L201.73493975903617,148.79956260178653L203.9277108433735,147.49650935663118L206.12048192771087,147.1555289816525L208.31325301204816,143.12141659276355L210.50602409638554,148.07980897774297L212.6987951807229,145.3759799891462L214.89156626506025,148.33297348405338L217.0843373493976,148.28051650544836L219.27710843373498,146.3213884031607L221.46987951807228,144.42186320593788L223.66265060240966,150.39516686358385L225.85542168674698,148.29458481777044L228.04819277108436,145.28783300870825L230.2409638554217,143.48249449042808L232.433734939759,148.52264193383357L234.6265060240964,152.51784978310266L236.8192771084337,146.8759156867034L239.0120481927711,144.734635087351L241.20481927710847,144.22241510657798L243.39759036144576,146.86104791487256L245.59036144578312,143.56064236371054L247.7831325301205,143.21446602439715L249.97590361445782,147.3528039459553L252.1686746987952,145.88542595340147L254.36144578313252,147.4315821139349L256.5542168674699,141.41721955190104L258.7469879518073,147.07550489219526L260.9397590361446,143.2168566238963L263.13253012048193,148.8362363409251L265.32530120481925,147.7063800363491L267.51807228915663,147.71658728085458L269.710843373494,146.88081403552658L271.90361445783134,150.1914634235824L274.09638554216866,146.28225173118213L276.28915662650604,147.74208646702272L278.48192771084337,145.61204433637775L280.67469879518075,151.56422841942143L282.86746987951807,148.41571150575248L285.06024096385545,144.95923301329216L287.2530120481928,145.84742060738307L289.44578313253015,147.27794013793272L291.6385542168675,150.85049007315604L293.83132530120486,149.6297011611362L296.0240963855422,148.17508301759761L298.2168674698795,146.1755909373363L300.4096385542168,149.97246862244276L302.6024096385542,149.23706768872216L304.7951807228916,144.52972193124393L306.9879518072289,147.16676181927323L309.1807228915663,146.09250760037037L311.3734939759036,142.68347989560831L313.566265060241,149.35650386061104L315.7590361445784,153.41729059122088L317.9518072289157,147.79454361978503L320.1445783132531,148.61328505310746L322.33734939759034,144.8739906286614L324.53012048192767,144.6386631410569L326.72289156626505,147.59999708148342L328.91566265060237,149.6797571875569L331.10843373493975,149.2746679641617L333.30120481927713,148.3716507870704L335.49397590361446,146.33038130671613L337.68674698795184,148.56833168139886L339.87951807228916,145.1328298577832L342.07228915662654,145.97910800182987L344.2650602409639,147.8545305610945L346.4578313253012,146.48018295897376L348.65060240963857,148.44481803187065L350.8433734939759,146.4414233956486L353.03614457831327,144.9336571979026L355.2289156626506,143.00863552362554L357.421686746988,146.77904133457275L359.6144578313253,151.83797385108969L361.8072289156627,143.57870886371367L364,147.0260534238898L366.1927710843374,145.01811815798283L368.38554216867476,144.97257040668694L370.5783132530121,146.17320885219507L372.77108433734935,146.3461242771397L374.96385542168673,146.35464513695075L377.1566265060241,146.07614184336532L379.3493975903615,148.6957006322013L381.5421686746988,148.90800920480655L383.73493975903614,149.02906460439164L385.9277108433735,146.0954361524847L388.1204819277109,146.97706255332255L390.3132530120482,147.7762092658215L392.50602409638554,145.07770314419434L394.69879518072287,146.3058707923111L396.8915662650602,146.4978559408337L399.0843373493976,149.48634329107074L401.27710843373495,144.09713275399474L403.46987951807233,144.5673131311519L405.6626506024096,146.8016111558924L407.855421686747,148.04101996247965L410.04819277108436,153.48290999316507L412.24096385542174,147.01420375973814L414.4337349397591,144.7411969482071L416.6265060240964,149.35459186478207L418.8192771084337,148.84288706071675L421.0120481927711,146.2816022017764L423.2048192771084,145.6764282275819L425.3975903614458,149.96188198588789L427.5903614457832,142.1281640664157L429.7831325301205,148.96356662880214L431.9759036144578,150.77345074992627L434.1686746987952,148.8922057824416L436.3614457831326,148.46891699317428L438.55421686746996,148.86016427973905L440.74698795180717,146.09689729371004L442.93975903614455,146.3301439496378L445.13253012048193,148.39696501816312L447.3253012048193,145.52813276524344L449.51807228915663,148.478515693297L451.71084337349396,145.29354331766567L453.90361445783134,148.54990324378014L456.0963855421687,152.23795288263094L458.28915662650604,148.41272254039845L460.4819277108434,148.46314801255036L462.6746987951808,148.32112828993962L464.867469879518,148.58840033267109L467.0602409638554,146.77728277134398L469.2530120481928,147.19175455595058L471.44578313253015,148.9251728732553L473.63855421686753,148.9789167003085L475.8313253012048,145.9795862765362L478.0240963855422,137.96447783311208L480.21686746987956,143.31482778787614L482.40963855421694,141.9287996709347L484.60240963855426,145.82697646518548L486.79518072289153,143.74217883149782L488.9879518072289,141.19297969341278L491.18072289156623,142.67372914453347L493.3734939759036,146.34315368731816L495.566265060241,140.756088172396L497.7590361445783,141.82233038047949L499.95180722891564,144.10489233732224L502.144578313253,138.7948166579008L504.3373493975904,141.34806079715491L506.5301204819278,144.60372627675534L508.72289156626505,137.94720384180545L510.91566265060237,138.57521105607353L513.1084337349398,142.92229186097782L515.3012048192771,143.56964177687965L517.4939759036146,145.75318391819795L519.6867469879519,142.48154844443005L521.8795180722892,142.12620601952077L524.0722891566265,140.83803722659746L526.2650602409639,141.45236524244152L528.4578313253012,144.56226401627063L530.6506024096386,141.12900664707024L532.8433734939758,139.6523138076067L535.0361445783133,141.6950041949749L537.2289156626506,142.18944974144298L539.421686746988,147.62300147563218" class="rv-xy-plot__series rv-xy-plot__series--line" transform="translate(34,5)" style="opacity: 1; stroke-width: 1.5; stroke: rgb(71, 154, 95);"/><path d="M0,122.8638706517716L2.192771084337349,125.86250243377354L4.385542168674699,127.26805542864734L6.578313253012048,126.58788598349524L8.771084337349398,133.75459680375127L10.963855421686747,130.88287849310373L13.156626506024097,129.34626745029044L15.349397590361445,133.24039448694222L17.542168674698797,129.85591572730075L19.73493975903615,127.92678382413256L21.927710843373493,125.00594208016992L24.12048192771085,133.18096910624038L26.313253012048197,127.86829800282914L28.50602409638555,129.15092921215629L30.698795180722897,127.92753463569615L32.89156626506025,129.3848491989904L35.08433734939759,129.60419330166448L37.27710843373494,132.9800390828815L39.4698795180723,132.83082913979888L41.66265060240964,131.15117114611593L43.855421686746986,126.46747752030689L46.048192771084345,130.49807324715786L48.2409638554217,134.09099877625704L50.43373493975904,133.2915295921266L52.626506024096386,131.52408422384823L54.819277108433745,131.37716143081587L57.01204819277109,130.71572128973074L59.20481927710844,130.02454754006533L61.39759036144578,131.9141808336394L63.590361445783145,132.3010277452154L65.78313253012048,131.07681668053073L67.97590361445785,133.6253909189254L70.16867469879519,130.89642284344882L72.36144578313254,128.19681273856096L74.55421686746988,130.52414684287376L76.74698795180724,134.98071040171715L78.9397590361446,135.27010352040332L81.13253012048193,130.56163401280838L83.32530120481928,135.96202339873545L85.51807228915665,130.22106492001976L87.71084337349397,132.0475415703323L89.90361445783132,128.56014740549855L92.09638554216866,128.58483374139502L94.28915662650603,130.76052035805253L96.48192771084338,133.75359040664304L98.67469879518072,132.2394851533075L100.86746987951807,135.07872378143173L103.06024096385543,132.12967137661244L105.25301204819277,131.27044486792553L107.44578313253012,133.2279871903981L109.63855421686745,131.39616180107825L111.83132530120483,132.71363318256206L114.02409638554218,136.22525050222046L116.2168674698795,132.7315131020215L118.40963855421685,135.40104838543468L120.60240963855424,135.7987896502018L122.79518072289156,129.34181283497148L124.98795180722891,133.71488223907846L127.18072289156626,130.85130930505693L129.3734939759036,134.72275858155143L131.56626506024097,134.47799499871005L133.75903614457832,133.74519459178876L135.95180722891567,137.1283097770065L138.144578313253,131.1370056056314L140.33734939759037,133.0729075457073L142.53012048192772,133.79460046957763L144.72289156626508,131.43351843042504L146.91566265060243,133.0846375057267L149.10843373493975,136.22538715766538L151.3012048192771,137.81583330531916L153.49397590361446,133.7947341836989L155.6867469879518,133.64219214663737L157.87951807228916,134.34614674095064L160.07228915662654,137.26831786644954L162.26506024096383,135.13074766947992L164.45783132530119,135.1048056979974L166.65060240963854,133.72110693136023L168.84337349397592,133.24468676828675L171.03614457831327,136.97264312538837L173.2289156626506,129.37183620263303L175.42168674698794,137.51382926147846L177.6144578313253,131.43671294012003L179.80722891566265,130.01457262142665L182,135.58872058594395L184.19277108433738,136.52428729231988L186.38554216867468,130.90276533380774L188.57831325301206,130.8722057067272L190.7710843373494,134.08176944446234L192.96385542168676,137.3203599055608L195.1566265060241,132.5098101351824L197.34939759036143,130.94759307035972L199.5421686746988,133.32595766935913L201.73493975903617,137.6706774737686L203.9277108433735,132.96713120014303L206.12048192771087,136.56858885122668L208.31325301204816,134.49512921522063L210.50602409638554,136.71904529631138L212.6987951807229,130.87030700490706L214.89156626506025,135.01826518339413L217.0843373493976,139.09607124473484L219.27710843373498,134.0436965254032L221.46987951807228,140.25006594757238L223.66265060240966,136.71652237594955L225.85542168674698,130.5359051324841L228.04819277108436,136.39424808406167L230.2409638554217,133.30618632398546L232.433734939759,136.2134414360755L234.6265060240964,142.07303557255202L236.8192771084337,139.5349285374913L239.0120481927711,131.63218796915478L241.20481927710847,137.6777788353049L243.39759036144576,135.83813149885583L245.59036144578312,136.79655997227462L247.7831325301205,137.5822460750739L249.97590361445782,133.28328602947295L252.1686746987952,134.32169871032238L254.36144578313252,141.66371168485946L256.5542168674699,138.88228187047773L258.7469879518073,135.1239785614113L260.9397590361446,134.24154160337318L263.13253012048193,134.67403824503225L265.32530120481925,135.0344776045531L267.51807228915663,137.90345189244383L269.710843373494,139.5692493725154L271.90361445783134,139.52395403323072L274.09638554216866,132.77195279005292L276.28915662650604,132.1168820756591L278.48192771084337,133.08989156120353L280.67469879518075,136.56082522744936L282.86746987951807,136.4311604961339L285.06024096385545,131.47745286569827L287.2530120481928,136.77738327739965L289.44578313253015,138.48982883472408L291.6385542168675,136.41053423182004L293.83132530120486,134.0078267738637L296.0240963855422,130.96289898330969L298.2168674698795,135.18054872958194L300.4096385542168,133.50544215366244L302.6024096385542,134.8124262650187L304.7951807228916,135.82146775867378L306.9879518072289,137.12707074441843L309.1807228915663,133.2323554623872L311.3734939759036,136.37730311850706L313.566265060241,136.9574895033406L315.7590361445784,134.8540010427435L317.9518072289157,136.8719108015713L320.1445783132531,133.31095780887537L322.33734939759034,140.3693788451039L324.53012048192767,136.41401490134496L326.72289156626505,137.7726780112005L328.91566265060237,133.58265724033117L331.10843373493975,138.02509975588572L333.30120481927713,139.75727871163852L335.49397590361446,135.90337363734014L337.68674698795184,139.95430644994806L339.87951807228916,135.47089665610758L342.07228915662654,134.78936804851725L344.2650602409639,137.2205647803429L346.4578313253012,135.2150282025751L348.65060240963857,134.28130833783914L350.8433734939759,138.30967845022678L353.03614457831327,134.53311714550685L355.2289156626506,138.92408133049807L357.421686746988,134.70063798936707L359.6144578313253,137.80906906398013L361.8072289156627,134.8451946036269L364,135.77811067427197L366.1927710843374,137.71261451807288L368.38554216867476,134.7024161743207L370.5783132530121,138.25820269332164L372.77108433734935,132.64640814686814L374.96385542168673,134.42493584213983L377.1566265060241,135.78989450695616L379.3493975903615,134.00604406081968L381.5421686746988,136.9983711929785L383.73493975903614,137.6855651769373L385.9277108433735,138.3536824323237L388.1204819277109,136.35996375434723L390.3132530120482,135.6212700087991L392.50602409638554,135.21742952242494L394.69879518072287,134.20800261861748L396.8915662650602,133.37678846365046L399.0843373493976,136.26888794120813L401.27710843373495,136.92243213765323L403.46987951807233,135.3278775026815L405.6626506024096,137.03026651963592L407.855421686747,141.11522081018322L410.04819277108436,138.26324145164756L412.24096385542174,138.3935513777865L414.4337349397591,137.42817280814052L416.6265060240964,140.49309206924713L418.8192771084337,136.1926888883528L421.0120481927711,137.50172056733734L423.2048192771084,132.9665045433988L425.3975903614458,130.98009531593155L427.5903614457832,136.78218731035787L429.7831325301205,139.50902190059423L431.9759036144578,136.6422316422686L434.1686746987952,140.1843894413776L436.3614457831326,139.45337387608984L438.55421686746996,140.21255455041927L440.74698795180717,141.46907930634916L442.93975903614455,139.5359423653119L445.13253012048193,136.45610460421693L447.3253012048193,135.34716500031453L449.51807228915663,137.00316767911943L451.71084337349396,137.4281577532076L453.90361445783134,139.7890547985832L456.0963855421687,138.79353749172557L458.28915662650604,135.5913859669947L460.4819277108434,135.15702197183336L462.6746987951808,136.88622498532962L464.867469879518,135.95118624654907L467.0602409638554,132.08738826235964L469.2530120481928,140.2386124719762L471.44578313253015,140.2187420891391L473.63855421686753,136.04944646524058L475.8313253012048,136.42243587225676L478.0240963855422,134.02242045303186L480.21686746987956,134.91728145380816L482.40963855421694,132.61942709088325L484.60240963855426,130.2336382349332L486.79518072289153,125.77321807444095L488.9879518072289,128.04491651554903L491.18072289156623,132.45626053611437L493.3734939759036,130.02811476190885L495.566265060241,130.71898858944576L497.7590361445783,129.18994080821673L499.95180722891564,128.0091274182002L502.144578313253,131.89002018968264L504.3373493975904,128.63307230845095L506.5301204819278,129.84179577926793L508.72289156626505,133.99762156506378L510.91566265060237,126.53964775701364L513.1084337349398,122.83600143988927L515.3012048192771,130.45800970991453L517.4939759036146,132.57304737071198L519.6867469879519,127.7687314261993L521.8795180722892,130.89181581338246L524.0722891566265,124.52597021460534L526.2650602409639,134.06622691750528L528.4578313253012,126.83175296187402L530.6506024096386,130.71173677146436L532.8433734939758,128.725886875391L535.0361445783133,123.86768321891626L537.2289156626506,128.78971446553868L539.421686746988,135.55140154361726" class="rv-xy-plot__series rv-xy-plot__series--line" transform="translate(34,5)" style="opacity: 1; stroke-width: 1.5; stroke: rgb(161, 40, 100);"/><path d="M0,40.485107409457356L2.192771084337349,76.1187216298034L4.385542168674699,86.29589021081725L6.578313253012048,93.47893799406788L8.771084337349398,99.72222799435258L10.963855421686747,98.88957069441676L13.156626506024097,102.68601578241214L15.349397590361445,111.10393595136702L17.542168674698797,106.99294854700565L19.73493975903615,110.47951403260231L21.927710843373493,103.46251956621808L24.12048192771085,115.1843428394447L26.313253012048197,107.21162837495407L28.50602409638555,108.72090161405504L30.698795180722897,110.11961630235115L32.89156626506025,107.9721985924989L35.08433734939759,107.93503318789107L37.27710843373494,113.44523499595624L39.4698795180723,113.973841826121L41.66265060240964,114.84035179717466L43.855421686746986,114.62707075911266L46.048192771084345,115.74268145921329L48.2409638554217,115.93687767038742L50.43373493975904,113.14944283415875L52.626506024096386,117.77022354987758L54.819277108433745,117.26235281924409L57.01204819277109,115.3819615903L59.20481927710844,117.86184910995263L61.39759036144578,118.04727766104043L63.590361445783145,108.5340416058898L65.78313253012048,118.98508058612546L67.97590361445785,116.09445846577484L70.16867469879519,124.17500906833448L72.36144578313254,119.79440550723422L74.55421686746988,115.97328363296884L76.74698795180724,116.99792778429887L78.9397590361446,118.00364126699665L81.13253012048193,115.64076935499907L83.32530120481928,114.49398031458259L85.51807228915665,116.6642797421664L87.71084337349397,116.30680616572499L89.90361445783132,119.31688052881509L92.09638554216866,115.55269555933774L94.28915662650603,120.68782914119464L96.48192771084338,120.88922716397792L98.67469879518072,122.01572844386101L100.86746987951807,122.59073174232617L103.06024096385543,119.24815566961965L105.25301204819277,112.65752868757892L107.44578313253012,112.68452910985798L109.63855421686745,115.91158526701233L111.83132530120483,121.472522295701L114.02409638554218,121.31393231668818L116.2168674698795,121.85210212537396L118.40963855421685,121.21750361379236L120.60240963855424,118.58946916864562L122.79518072289156,120.9167603335033L124.98795180722891,125.23634066401672L127.18072289156626,116.90329597859332L129.3734939759036,119.89361421088688L131.56626506024097,117.8447059340154L133.75903614457832,124.67072221015889L135.95180722891567,121.05909644191462L138.144578313253,116.08975151584795L140.33734939759037,121.81958161263418L142.53012048192772,120.19587749273825L144.72289156626508,116.61745917176208L146.91566265060243,121.17974084957191L149.10843373493975,128.4168474137162L151.3012048192771,122.98693218889338L153.49397590361446,124.39077070169151L155.6867469879518,121.56846672513831L157.87951807228916,117.65993706183508L160.07228915662654,118.08186292493093L162.26506024096383,124.49081194990623L164.45783132530119,125.0124761145562L166.65060240963854,122.01886739737043L168.84337349397592,118.15947648355117L171.03614457831327,117.57891068731743L173.2289156626506,124.12875983553627L175.42168674698794,123.0174413587277L177.6144578313253,118.55616500601172L179.80722891566265,120.45495856832713L182,128.96000154688954L184.19277108433738,117.55793668888509L186.38554216867468,122.00670840078965L188.57831325301206,118.1179957507799L190.7710843373494,125.30003435040516L192.96385542168676,118.85396665303657L195.1566265060241,120.31728459335864L197.34939759036143,124.63688901563486L199.5421686746988,112.33375147605938L201.73493975903617,117.85854766766232L203.9277108433735,124.29597704578191L206.12048192771087,119.58294055269408L208.31325301204816,117.1162266411508L210.50602409638554,117.91900324697298L212.6987951807229,123.7948837634176L214.89156626506025,116.5963309860478L217.0843373493976,123.64846204034984L219.27710843373498,122.33232038871694L221.46987951807228,121.61437662690878L223.66265060240966,124.80443120344233L225.85542168674698,123.91498816727352L228.04819277108436,123.30954707444954L230.2409638554217,123.84979237398753L232.433734939759,109.91441125857335L234.6265060240964,121.95288493546349L236.8192771084337,118.11470975043875L239.0120481927711,118.25898928040019L241.20481927710847,121.868099868608L243.39759036144576,121.43050868506543L245.59036144578312,120.26238004645953L247.7831325301205,123.77634761917096L249.97590361445782,123.66753458914658L252.1686746987952,117.9109088210389L254.36144578313252,121.68758319256204L256.5542168674699,117.82209479870897L258.7469879518073,117.53088906997195L260.9397590361446,123.14477305921417L263.13253012048193,122.7103412201007L265.32530120481925,118.52797294128686L267.51807228915663,120.72464222554117L269.710843373494,118.92480137012899L271.90361445783134,129.42321265116334L274.09638554216866,125.79756660899147L276.28915662650604,121.37530042231083L278.48192771084337,124.07437712202469L280.67469879518075,122.62987450013557L282.86746987951807,122.87859112521011L285.06024096385545,117.18335859943181L287.2530120481928,123.88084032852203L289.44578313253015,126.72137282943973L291.6385542168675,125.77240554926294L293.83132530120486,128.34034538517398L296.0240963855422,120.46801015020657L298.2168674698795,120.38341532119861L300.4096385542168,127.81104860175401L302.6024096385542,121.43123300536536L304.7951807228916,117.58707402149838L306.9879518072289,124.54707486586022L309.1807228915663,128.41487792662036L311.3734939759036,121.67868439201266L313.566265060241,125.88758809305727L315.7590361445784,124.04106436762959L317.9518072289157,121.3031169148162L320.1445783132531,121.3093931383143L322.33734939759034,125.68529960388938L324.53012048192767,117.34242292493582L326.72289156626505,119.34043635148555L328.91566265060237,125.50254111674923L331.10843373493975,127.6417007218115L333.30120481927713,121.24946641673642L335.49397590361446,120.55991360731423L337.68674698795184,120.38677789270878L339.87951807228916,121.72205612498024L342.07228915662654,125.11274829537916L344.2650602409639,120.90868181393793L346.4578313253012,125.65976517988989L348.65060240963857,125.07477439443272L350.8433734939759,123.17264897034815L353.03614457831327,123.91596931157011L355.2289156626506,123.98578950421265L357.421686746988,120.34317725896835L359.6144578313253,118.89121574023739L361.8072289156627,130.2109781730299L364,121.63478287247318L366.1927710843374,126.21108601428568L368.38554216867476,119.26709336259711L370.5783132530121,124.04729734205952L372.77108433734935,127.4722299448525L374.96385542168673,126.58796210959554L377.1566265060241,131.77330925284576L379.3493975903615,123.86960689102608L381.5421686746988,125.12271880203235L383.73493975903614,127.85003023501486L385.9277108433735,123.39202351185182L388.1204819277109,125.30315548181534L390.3132530120482,121.76559441039961L392.50602409638554,123.09546714772779L394.69879518072287,119.05262773546082L396.8915662650602,124.60883726365864L399.0843373493976,127.0533306747675L401.27710843373495,124.81616093125194L403.46987951807233,119.73571541874358L405.6626506024096,123.80219813870886L407.855421686747,125.98521592716375L410.04819277108436,122.1479040980339L412.24096385542174,125.33737693106136L414.4337349397591,125.93924129692215L416.6265060240964,122.6350427637808L418.8192771084337,120.6176383998245L421.0120481927711,125.74836539508152L423.2048192771084,123.83460347540677L425.3975903614458,128.63833343858522L427.5903614457832,121.28571621825296L429.7831325301205,127.44504276787242L431.9759036144578,124.48116845265031L434.1686746987952,126.51139866157123L436.3614457831326,126.77780142705888L438.55421686746996,124.39590677525848L440.74698795180717,125.43686633277684L442.93975903614455,129.26435876575607L445.13253012048193,123.07040720083751L447.3253012048193,123.26542036949348L449.51807228915663,128.0907681326692L451.71084337349396,124.51817949581891L453.90361445783134,120.24741586887589L456.0963855421687,124.16698162040365L458.28915662650604,121.67123016839224L460.4819277108434,128.20234155623865L462.6746987951808,121.41499000508338L464.867469879518,127.83350386625779L467.0602409638554,123.94782558828592L469.2530120481928,122.37865053210407L471.44578313253015,123.84423489775509L473.63855421686753,123.16488608190167L475.8313253012048,126.70291552040726L478.0240963855422,106.20304710169631L480.21686746987956,106.90234200076925L482.40963855421694,105.89135162863468L484.60240963855426,104.65052359468406L486.79518072289153,105.28701008773511L488.9879518072289,106.17171039432287L491.18072289156623,104.18249150613946L493.3734939759036,103.56912691311705L495.566265060241,113.51027884665464L497.7590361445783,100.7222567498684L499.95180722891564,113.32133363352882L502.144578313253,105.84387433032197L504.3373493975904,106.99628156982362L506.5301204819278,110.08488159212803L508.72289156626505,116.21761927256983L510.91566265060237,107.75349573708242L513.1084337349398,107.37107118301923L515.3012048192771,102.56986746854251L517.4939759036146,102.07586364696425L519.6867469879519,106.03579260243309L521.8795180722892,107.24133001599048L524.0722891566265,108.0813678709997L526.2650602409639,113.55317031178207L528.4578313253012,101.54708393663168L530.6506024096386,109.6921178210113L532.8433734939758,104.09548332107562L535.0361445783133,103.57851329611408L537.2289156626506,103.28999560823041L539.421686746988,106.4250540311138" class="rv-xy-plot__series rv-xy-plot__series--line" transform="translate(34,5)" style="opacity: 1; stroke-width: 1.5; stroke: rgb(229, 116, 57);"/><path d="M0,-195.4777006854614L2.192771084337349,-146.64828177293145L4.385542168674699,-124.64670730878908L6.578313253012048,-105.48602701226868L8.771084337349398,-84.25574330985546L10.963855421686747,-82.92457205553848L13.156626506024097,-71.89970316179097L15.349397590361445,-59.93206890424096L17.542168674698797,-62.32456323504444L19.73493975903615,-59.584963609774896L21.927710843373493,-39.72273025165003L24.12048192771085,-42.021726947277784L26.313253012048197,-44.103324684004L28.50602409638555,-35.74840572290127L30.698795180722897,-29.532469800363L32.89156626506025,-34.96443061903119L35.08433734939759,-32.393669086198024L37.27710843373494,-27.620513137429995L39.4698795180723,-33.92556060105562L41.66265060240964,-32.04373570904136L43.855421686746986,-24.795851012691813L46.048192771084345,-26.183636168017983L48.2409638554217,-24.552380122244315L50.43373493975904,-24.583993623654063L52.626506024096386,-21.64926813542843L54.819277108433745,-27.483410804842936L57.01204819277109,-21.992701148614287L59.20481927710844,-24.482660302271473L61.39759036144578,-19.26820549120504L63.590361445783145,-24.150630529969888L65.78313253012048,-16.578444931035268L67.97590361445785,0.3077092828849882L70.16867469879519,79.41068741073832L72.36144578313254,76.44377663359046L74.55421686746988,83.08285238283375L76.74698795180724,83.07632815930992L78.9397590361446,85.87640130209425L81.13253012048193,81.99128804852566L83.32530120481928,84.03966341850659L85.51807228915665,86.39626601524651L87.71084337349397,84.22003455708423L89.90361445783132,91.49033463591087L92.09638554216866,89.01081929045418L94.28915662650603,88.02349426659447L96.48192771084338,85.05946460304162L98.67469879518072,84.57000055971244L100.86746987951807,85.46446408703923L103.06024096385543,92.01077662253132L105.25301204819277,91.17167277323702L107.44578313253012,89.3478968385607L109.63855421686745,87.81679088932773L111.83132530120483,100.28031542121121L114.02409638554218,89.18750874325633L116.2168674698795,88.10571086127311L118.40963855421685,92.73652060050517L120.60240963855424,96.10138280193013L122.79518072289156,90.43529161438346L124.98795180722891,95.11029882449657L127.18072289156626,96.00199121857685L129.3734939759036,87.3508822042495L131.56626506024097,93.68892777804285L133.75903614457832,94.58366943461198L135.95180722891567,91.54195939407995L138.144578313253,94.22002465153736L140.33734939759037,100.65150435113657L142.53012048192772,108.53435694674653L144.72289156626508,103.20333237076801L146.91566265060243,105.21067615970969L149.10843373493975,112.19454532302916L151.3012048192771,114.21556348043185L153.49397590361446,115.98778658391285L155.6867469879518,115.72457519328842L157.87951807228916,117.52247777930461L160.07228915662654,117.28212913777679L162.26506024096383,113.63380760916817L164.45783132530119,115.56772423318279L166.65060240963854,112.3052932989473L168.84337349397592,115.54885689976317L171.03614457831327,118.1427954050402L173.2289156626506,109.21146900206804L175.42168674698794,111.9606053661555L177.6144578313253,121.94680696104965L179.80722891566265,114.19635561139634L182,120.0292270484691L184.19277108433738,117.9918915691475L186.38554216867468,122.18635803461075L188.57831325301206,118.72194861123961L190.7710843373494,123.7249233160789L192.96385542168676,110.06954462112236L195.1566265060241,111.61751085675013L197.34939759036143,115.0258019727965L199.5421686746988,117.6253864262253L201.73493975903617,114.67640407135087L203.9277108433735,113.51867313279459L206.12048192771087,115.0857952805236L208.31325301204816,121.5778269264847L210.50602409638554,119.08900252388167L212.6987951807229,110.9159285367156L214.89156626506025,121.00711442902684L217.0843373493976,115.70322974631563L219.27710843373498,112.50249070518962L221.46987951807228,123.39243208492798L223.66265060240966,118.89877617079765L225.85542168674698,116.8132945516457L228.04819277108436,113.47584970512739L230.2409638554217,113.78143746157488L232.433734939759,115.6306415842846L234.6265060240964,114.23944195856652L236.8192771084337,116.3183988897751L239.0120481927711,110.04575792389613L241.20481927710847,117.26359845045954L243.39759036144576,119.49639297020622L245.59036144578312,123.68147954003263L247.7831325301205,121.0999310510233L249.97590361445782,119.88661240444827L252.1686746987952,121.31875397823751L254.36144578313252,117.95601771523556L256.5542168674699,118.23799711155397L258.7469879518073,120.7379917325452L260.9397590361446,114.95180328159282L263.13253012048193,116.79547175578773L265.32530120481925,126.32068884776285L267.51807228915663,116.14933805012456L269.710843373494,117.77205434969318L271.90361445783134,111.96898645504069L274.09638554216866,121.45918416697532L276.28915662650604,115.44683536669862L278.48192771084337,122.74573701216528L280.67469879518075,123.07522060442716L282.86746987951807,120.30196855993319L285.06024096385545,116.47625833687681L287.2530120481928,121.11639716134718L289.44578313253015,114.38959836928797L291.6385542168675,126.33011702851701L293.83132530120486,118.87020769404867L296.0240963855422,124.70815506236005L298.2168674698795,122.38527843728662L300.4096385542168,116.17253226414323L302.6024096385542,118.82355927815661L304.7951807228916,123.87803552486002L306.9879518072289,119.82995955025154L309.1807228915663,115.1460299702982L311.3734939759036,124.17113422757637L313.566265060241,118.5225171148777L315.7590361445784,115.93262979915988L317.9518072289157,118.02710594733554L320.1445783132531,118.54022241259617L322.33734939759034,122.01091943774372L324.53012048192767,121.9616011030351L326.72289156626505,124.49759828019887L328.91566265060237,118.32158911367878L331.10843373493975,121.87185982358642L333.30120481927713,117.31840372768539L335.49397590361446,122.74718298235288L337.68674698795184,125.01745509821922L339.87951807228916,119.98784401795515L342.07228915662654,121.8525862827276L344.2650602409639,119.82345163946349L346.4578313253012,118.15423167776316L348.65060240963857,117.70785015014312L350.8433734939759,129.73266153347987L353.03614457831327,121.16298587030423L355.2289156626506,114.80552053606758L357.421686746988,122.51308976703635L359.6144578313253,122.2848129128106L361.8072289156627,125.20381620371094L364,117.1594581194222L366.1927710843374,121.52816654679674L368.38554216867476,118.81033623839417L370.5783132530121,113.79171750384072L372.77108433734935,116.46729173107693L374.96385542168673,120.78395167551935L377.1566265060241,120.19437097385526L379.3493975903615,117.70528295512003L381.5421686746988,123.58510128470758L383.73493975903614,117.41536657108614L385.9277108433735,124.09107103012502L388.1204819277109,121.21369562041946L390.3132530120482,119.21637770564607L392.50602409638554,120.93777624579769L394.69879518072287,118.7159587604304L396.8915662650602,120.0751999951899L399.0843373493976,123.18148669973016L401.27710843373495,115.82180960600576L403.46987951807233,121.42805998958647L405.6626506024096,119.68144985505688L407.855421686747,119.10861350906393L410.04819277108436,117.38111069674292L412.24096385542174,120.31258507414412L414.4337349397591,116.80174676018459L416.6265060240964,118.68225364410318L418.8192771084337,119.54823227568221L421.0120481927711,121.51554803612333L423.2048192771084,126.10513375047594L425.3975903614458,122.33546154821912L427.5903614457832,121.19735233454657L429.7831325301205,119.68973480910063L431.9759036144578,115.00343007159731L434.1686746987952,120.84512669872493L436.3614457831326,121.7424110521873L438.55421686746996,121.80776413856074L440.74698795180717,117.27612953415763L442.93975903614455,122.63760865262401L445.13253012048193,118.64036532514729L447.3253012048193,117.83905098773539L449.51807228915663,119.76855905136716L451.71084337349396,122.2936183360095L453.90361445783134,120.91403285569203L456.0963855421687,119.87159139352539L458.28915662650604,119.50880526409796L460.4819277108434,118.9239536303406L462.6746987951808,119.53939054068178L464.867469879518,119.05146308739978L467.0602409638554,123.71988093915087L469.2530120481928,124.45771253822991L471.44578313253015,123.5404503081615L473.63855421686753,120.8159469878301L475.8313253012048,125.0543936919421L478.0240963855422,118.6383551287775L480.21686746987956,121.09236809518188L482.40963855421694,109.5717288247413L484.60240963855426,97.56616445713574L486.79518072289153,100.0657687915696L488.9879518072289,102.9518088714944L491.18072289156623,99.66824797126984L493.3734939759036,102.13373310615617L495.566265060241,103.12105155073935L497.7590361445783,103.24955473012393L499.95180722891564,107.6989725753665L502.144578313253,100.78830479168231L504.3373493975904,110.30271741499502L506.5301204819278,104.85388222253984L508.72289156626505,104.47579704970121L510.91566265060237,96.20875597662395L513.1084337349398,110.86762153357267L515.3012048192771,99.79146249592304L517.4939759036146,100.60509655293494L519.6867469879519,72.78824580460787L521.8795180722892,68.97878567874432L524.0722891566265,63.692682313422374L526.2650602409639,74.35367073118687L528.4578313253012,71.33033353338641L530.6506024096386,65.71399630606174L532.8433734939758,-9.720653593540192L535.0361445783133,5.053096195062008L537.2289156626506,9.178007245063782L539.421686746988,7.222180585066471L541.6144578313254,3.2535968621571927L543.8072289156627,-4.872671067714691L546,-12.90496277809143" class="rv-xy-plot__series rv-xy-plot__series--line" transform="translate(34,5)" style="opacity: 1; stroke-width: 1.5; stroke: rgb(76, 159, 218);"/><path d="M0,65.48864211936792L2.192771084337349,75.86602170169354L4.385542168674699,78.03937085618577L6.578313253012048,75.5032532085975L8.771084337349398,82.92262279391288L10.963855421686747,78.36713484227657L13.156626506024097,76.99786003269254L15.349397590361445,82.70374976744255L17.542168674698797,73.8069275058806L19.73493975903615,76.65360587934651L21.927710843373493,81.28333579674363L24.12048192771085,74.10989311486482L26.313253012048197,75.59236481934785L28.50602409638555,75.61154692471028L30.698795180722897,79.15207354699571L32.89156626506025,79.74259704351424L35.08433734939759,88.56350584700704L37.27710843373494,74.6456154326598L39.4698795180723,76.37121312643092L41.66265060240964,78.70575484372675L43.855421686746986,85.75312534247836L46.048192771084345,79.04946841274698L48.2409638554217,77.09696393137176L50.43373493975904,83.93985741039116L52.626506024096386,80.06408825442195L54.819277108433745,76.11177876691026L57.01204819277109,79.04642010231811L59.20481927710844,74.9094853701691L61.39759036144578,82.71711478605867L63.590361445783145,80.81455151885747L65.78313253012048,88.84774536415934L67.97590361445785,86.66524031807978L70.16867469879519,84.98709197230637L72.36144578313254,78.43059702714285L74.55421686746988,82.81774349013963L76.74698795180724,85.93500679656863L78.9397590361446,82.67686038787167L81.13253012048193,85.67791473691662L83.32530120481928,83.66179732009769L85.51807228915665,78.27567178259292L87.71084337349397,76.88350886950889L89.90361445783132,74.98270134031772L92.09638554216866,88.80437907651067L94.28915662650603,90.23045130247871L96.48192771084338,77.24252123037975L98.67469879518072,87.9057866041859L100.86746987951807,76.93933425582945L103.06024096385543,82.73027225558958L105.25301204819277,64.655090440313L107.44578313253012,83.46031791940332L109.63855421686745,82.00835602333147L111.83132530120483,75.85516143689551L114.02409638554218,86.1711206547916L116.2168674698795,88.07285725524028L118.40963855421685,84.69136989141505L120.60240963855424,83.40025045548876L122.79518072289156,82.79847119450567L124.98795180722891,83.49199309572577L127.18072289156626,83.20802540332078L129.3734939759036,86.2070587495342L131.56626506024097,77.61283152500789L133.75903614457832,86.98994373306631L135.95180722891567,86.8490900285542L138.144578313253,80.53653025403618L140.33734939759037,84.10239811340968L142.53012048192772,89.15214691186947L144.72289156626508,87.45404698724549L146.91566265060243,81.02938869322338L149.10843373493975,91.83200068374474L151.3012048192771,74.63435808916884L153.49397590361446,85.2630710683763L155.6867469879518,78.48477077508964L157.87951807228916,88.54011693671346L160.07228915662654,86.43391852627198L162.26506024096383,83.29648821999629L164.45783132530119,77.79983287925523L166.65060240963854,83.82162246927619L168.84337349397592,83.11735919465619L171.03614457831327,87.22043839370211L173.2289156626506,81.32807950625818L175.42168674698794,93.2468706463774L177.6144578313253,86.3500159377853L179.80722891566265,86.37905344342194L182,84.98385977496702L184.19277108433738,90.3283916677038L186.38554216867468,83.17264910526573L188.57831325301206,84.70890052095056L190.7710843373494,84.24401504496734L192.96385542168676,88.50749248688419L195.1566265060241,92.28043897449969L197.34939759036143,79.65195591350395L199.5421686746988,78.83138188074032L201.73493975903617,89.66673122147719L203.9277108433735,84.8425051939984L206.12048192771087,81.53521911278368L208.31325301204816,89.54793321813146L210.50602409638554,93.81539654061199L212.6987951807229,84.57880797411005L214.89156626506025,90.51374883751076L217.0843373493976,85.31721709047753L219.27710843373498,84.65064252838492L221.46987951807228,79.77358032763003L223.66265060240966,87.82682386040688L225.85542168674698,85.18452049692472L228.04819277108436,88.14421475778023L230.2409638554217,87.35180205677946L232.433734939759,84.4418458265563L234.6265060240964,92.24880253076553L236.8192771084337,81.48169104730088L239.0120481927711,86.34235166882476L241.20481927710847,84.12776568308472L243.39759036144576,82.17788279186935L245.59036144578312,85.78673036769032L247.7831325301205,81.01413539126516L249.97590361445782,91.77051070282857L252.1686746987952,81.8936571724713L254.36144578313252,86.09000774150094L256.5542168674699,93.71757288401324L258.7469879518073,78.53783177385728L260.9397590361446,85.24485328371325L263.13253012048193,81.45002097959319L265.32530120481925,92.64867043445508L267.51807228915663,83.34791878114146L269.710843373494,86.14939269448321L271.90361445783134,83.38925713449716L274.09638554216866,88.07299791630358L276.28915662650604,91.34095329493286L278.48192771084337,83.85120891879001L280.67469879518075,87.49591069196661L282.86746987951807,82.78634900897741L285.06024096385545,92.06376116623481L287.2530120481928,84.31762196347118L289.44578313253015,89.36229925428827L291.6385542168675,91.65127512340744L293.83132530120486,80.37128272826473L296.0240963855422,91.63039212798077L298.2168674698795,80.93795893241962L300.4096385542168,77.54828914677104L302.6024096385542,79.91986004281789L304.7951807228916,99.13034630293646L306.9879518072289,89.33936598598959L309.1807228915663,90.54313688700397L311.3734939759036,82.04741672401629L313.566265060241,87.18701950783532L315.7590361445784,84.72454997276265L317.9518072289157,90.97691493953266L320.1445783132531,87.11145794043937L322.33734939759034,83.42532915621996L324.53012048192767,92.67202788032591L326.72289156626505,91.23726741001009L328.91566265060237,80.82102817421156L331.10843373493975,89.15285498909653L333.30120481927713,82.53102699145676L335.49397590361446,90.7196551779906L337.68674698795184,95.6239866534869L339.87951807228916,94.22699075862765L342.07228915662654,88.66258106778066L344.2650602409639,81.80767732833822L346.4578313253012,95.89173774495721L348.65060240963857,85.3858423665166L350.8433734939759,92.15536392331123L353.03614457831327,89.67796599417925L355.2289156626506,87.4110016134878L357.421686746988,82.48425692667566L359.6144578313253,85.81041666902603L361.8072289156627,88.49352753112714L364,94.22212122703596L366.1927710843374,92.0858429213365L368.38554216867476,88.36152640581132L370.5783132530121,86.40556218475103L372.77108433734935,85.02683595021566L374.96385542168673,91.99220586741964L377.1566265060241,82.6461328131457L379.3493975903615,91.69626260673007L381.5421686746988,92.01546687657635L383.73493975903614,84.66100298489133L385.9277108433735,89.71781579007704L388.1204819277109,80.87808606028557L390.3132530120482,95.31633946349224L392.50602409638554,91.99050767098862L394.69879518072287,83.42256743907929L396.8915662650602,95.43084771657983L399.0843373493976,87.031259701401L401.27710843373495,94.88056742573778L403.46987951807233,82.53442891091107L405.6626506024096,91.70901143352192L407.855421686747,91.90911313369871L410.04819277108436,94.10099063018959L412.24096385542174,92.09425030797719L414.4337349397591,89.4131454827885L416.6265060240964,87.94980623722076L418.8192771084337,87.59730044032138L421.0120481927711,90.4649367665251L423.2048192771084,85.69388500973584L425.3975903614458,87.19759684825938L427.5903614457832,89.31797166466711L429.7831325301205,81.78223586951691L431.9759036144578,82.08100203461946L434.1686746987952,88.9286172437171L436.3614457831326,95.9107828465601L438.55421686746996,86.82605704938372L440.74698795180717,89.59175877024728L442.93975903614455,86.05711796879768L445.13253012048193,87.26702235396952L447.3253012048193,89.56274197772144L449.51807228915663,86.40395399282374L451.71084337349396,86.11063725675147L453.90361445783134,89.32511383319893L456.0963855421687,97.07202206825217L458.28915662650604,91.15120150893925L460.4819277108434,85.07146805971858L462.6746987951808,89.0940415740013L464.867469879518,86.28225499292215L467.0602409638554,87.72241984357437L469.2530120481928,87.78012907803058L471.44578313253015,98.48552719478808L473.63855421686753,86.68326365028818L475.8313253012048,89.78228351287544L478.0240963855422,72.83278456578651L480.21686746987956,72.03008278956017L482.40963855421694,76.52512400907773L484.60240963855426,69.82831673324108L486.79518072289153,76.98639999330044L488.9879518072289,68.69509988899031L491.18072289156623,68.1981915490081L493.3734939759036,76.30766990035772L495.566265060241,78.62619903621572L497.7590361445783,62.03875551248591L499.95180722891564,64.77700425746542L502.144578313253,64.11157722957432L504.3373493975904,66.4161213003099L506.5301204819278,60.246772345155456L508.72289156626505,56.119911081468054L510.91566265060237,74.41635842683414L513.1084337349398,70.9835764374584L515.3012048192771,58.449798757831246L517.4939759036146,64.51646095700562L519.6867469879519,61.00904349920651L521.8795180722892,65.15702563400069L524.0722891566265,62.824064429228514L526.2650602409639,63.36072243625918L528.4578313253012,70.29166530569395L530.6506024096386,67.04119990828138L532.8433734939758,71.08639508858323L535.0361445783133,63.56637448382875L537.2289156626506,71.92902045696974L539.421686746988,65.34875200409442" class="rv-xy-plot__series rv-xy-plot__series--line" transform="translate(34,5)" style="opacity: 1; stroke-width: 1.5; stroke: rgb(160, 199, 92);"/><path d="M0,36.739708848297575L2.192771084337349,47.98102429260811L4.385542168674699,62.37939051414531L6.578313253012048,61.26865436136725L8.771084337349398,73.23946722224356L10.963855421686747,79.39868962578475L13.156626506024097,79.66600631084293L15.349397590361445,80.70797905760509L17.542168674698797,87.62755340151489L19.73493975903615,89.09558363258839L21.927710843373493,89.10680447270474L24.12048192771085,87.18031113035977L26.313253012048197,87.80537557353577L28.50602409638555,88.6704733899484L30.698795180722897,95.34323522883159L32.89156626506025,90.1759931904574L35.08433734939759,91.85475575427213L37.27710843373494,91.55283220981559L39.4698795180723,94.57595948999125L41.66265060240964,94.35468210559338L43.855421686746986,88.25773957930505L46.048192771084345,89.7423733888815L48.2409638554217,91.62901883944869L50.43373493975904,95.17010833819708L52.626506024096386,94.32172486434382L54.819277108433745,91.9584705028683L57.01204819277109,96.6660869879027L59.20481927710844,92.09372235586247L61.39759036144578,103.64168913538259L63.590361445783145,91.27004216921824L65.78313253012048,93.53953220260638L67.97590361445785,101.07502134454748L70.16867469879519,95.67667419509962L72.36144578313254,97.10348193968338L74.55421686746988,98.75269070267677L76.74698795180724,97.925840968887L78.9397590361446,91.91755978701016L81.13253012048193,98.38848315924406L83.32530120481928,94.66911554460725L85.51807228915665,97.95804881118238L87.71084337349397,96.65532371712226L89.90361445783132,100.59099820815027L92.09638554216866,102.62007810796302L94.28915662650603,96.80004996061325L96.48192771084338,97.91198431576294L98.67469879518072,101.57466395447653L100.86746987951807,96.7867985041812L103.06024096385543,100.06759392159682L105.25301204819277,94.73985383659601L107.44578313253012,103.7656923411414L109.63855421686745,101.18569321371615L111.83132530120483,103.08053334678215L114.02409638554218,104.11145563734073L116.2168674698795,99.95632643438876L118.40963855421685,98.15763414651155L120.60240963855424,107.68069929257035L122.79518072289156,104.77757314095896L124.98795180722891,101.71372834344706L127.18072289156626,102.91900440491736L129.3734939759036,95.99259244138375L131.56626506024097,99.59841154329479L133.75903614457832,100.4151776842773L135.95180722891567,103.86869844359654L138.144578313253,105.29580971536535L140.33734939759037,104.14531356220445L142.53012048192772,100.39788908697665L144.72289156626508,102.43717553466558L146.91566265060243,98.76766114992401L149.10843373493975,100.0459747283409L151.3012048192771,107.48358014101782L153.49397590361446,98.01006507501006L155.6867469879518,102.07019912203151L157.87951807228916,102.23639835370705L160.07228915662654,102.21933932478228L162.26506024096383,102.24941908071438L164.45783132530119,106.57801791590947L166.65060240963854,106.08011989792189L168.84337349397592,102.73324878637987L171.03614457831327,96.65128698262077L173.2289156626506,98.4458535996576L175.42168674698794,104.47477091476321L177.6144578313253,97.77756528307992L179.80722891566265,101.76601431891322L182,99.29908723880848L184.19277108433738,101.41503564951321L186.38554216867468,104.49219195870683L188.57831325301206,108.57716574519873L190.7710843373494,98.26437284673253L192.96385542168676,105.6437019687146L195.1566265060241,105.67185078437129L197.34939759036143,97.2122345951696L199.5421686746988,111.12977915629745L201.73493975903617,107.89003790232042L203.9277108433735,110.24311694813272L206.12048192771087,100.15561500564218L208.31325301204816,103.77109127615887L210.50602409638554,105.15690322903296L212.6987951807229,104.7701915409416L214.89156626506025,111.15501919637126L217.0843373493976,108.4469466904799L219.27710843373498,110.01282361336052L221.46987951807228,109.029904305314L223.66265060240966,105.11015290208161L225.85542168674698,109.95923447671038L228.04819277108436,98.21319184141856L230.2409638554217,106.21658342145383L232.433734939759,112.09141736850142L234.6265060240964,102.72726241871715L236.8192771084337,103.99529572265845L239.0120481927711,102.41426792554557L241.20481927710847,103.32079637547335L243.39759036144576,105.49554172018543L245.59036144578312,107.09239307418466L247.7831325301205,101.51626424429315L249.97590361445782,110.85379878307384L252.1686746987952,109.85790045869845L254.36144578313252,106.11509637720883L256.5542168674699,105.57650870705646L258.7469879518073,99.86220264558992L260.9397590361446,106.88872897438705L263.13253012048193,114.20354697356623L265.32530120481925,105.6124324860672L267.51807228915663,109.48122522483271L269.710843373494,98.74821729771793L271.90361445783134,109.79050320076445L274.09638554216866,99.33062115032226L276.28915662650604,102.19979121039313L278.48192771084337,112.56077390412489L280.67469879518075,105.05921641364694L282.86746987951807,109.87058154990274L285.06024096385545,103.67544941604137L287.2530120481928,110.76398956775665L289.44578313253015,102.36083773647744L291.6385542168675,109.45831854455173L293.83132530120486,108.25319074901441L296.0240963855422,101.94178677536547L298.2168674698795,109.23453579097986L300.4096385542168,103.10840734218556L302.6024096385542,112.97102513117716L304.7951807228916,107.06797343119979L306.9879518072289,105.78398209189376L309.1807228915663,103.70074878570932L311.3734939759036,103.38421831838787L313.566265060241,104.74957015303275L315.7590361445784,114.14377734189233L317.9518072289157,102.34768874260288L320.1445783132531,98.87974009414512L322.33734939759034,104.73698566108942L324.53012048192767,109.3258560532704L326.72289156626505,110.2412869029989L328.91566265060237,105.68556358354789L331.10843373493975,106.49491372844204L333.30120481927713,110.37568074092269L335.49397590361446,103.96376500402889L337.68674698795184,105.09556014401215L339.87951807228916,107.56860502250493L342.07228915662654,110.34270788356662L344.2650602409639,106.36193558635813L346.4578313253012,104.22708959691226L348.65060240963857,111.57904786399254L350.8433734939759,112.24935448976854L353.03614457831327,106.28510016265017L355.2289156626506,105.24314198705059L357.421686746988,109.97348275159797L359.6144578313253,109.88822123385035L361.8072289156627,107.02199496949714L364,116.02561918521923L366.1927710843374,110.48081870314974L368.38554216867476,104.72775869009396L370.5783132530121,104.86072467019159L372.77108433734935,110.86693303162852L374.96385542168673,108.3683630755792L377.1566265060241,111.4181169203172L379.3493975903615,108.62416465270024L381.5421686746988,104.05379992723465L383.73493975903614,109.95949815089506L385.9277108433735,101.18853499678272L388.1204819277109,108.05966031225398L390.3132530120482,108.9602125827223L392.50602409638554,107.74310856871307L394.69879518072287,105.8962660773347L396.8915662650602,107.33321421903867L399.0843373493976,107.01326097982627L401.27710843373495,102.06173240579665L403.46987951807233,110.50495847531903L405.6626506024096,112.00386946989843L407.855421686747,105.79560070733231L410.04819277108436,115.27898857773593L412.24096385542174,103.41556129542488L414.4337349397591,108.4875479868303L416.6265060240964,104.1975982314907L418.8192771084337,111.03667198183635L421.0120481927711,111.40438925971588L423.2048192771084,110.03074498226243L425.3975903614458,111.28422523600358L427.5903614457832,105.8369015355905L429.7831325301205,104.1353615162273L431.9759036144578,118.41992878681049L434.1686746987952,106.66644467040896L436.3614457831326,106.61450341033441L438.55421686746996,106.78257834538817L440.74698795180717,106.23756368954975L442.93975903614455,110.69309935253114L445.13253012048193,108.56080862833187L447.3253012048193,109.9815104752779L449.51807228915663,111.71331044534844L451.71084337349396,107.51818740678328L453.90361445783134,107.48178365019459L456.0963855421687,113.0508069774757L458.28915662650604,107.0401935968548L460.4819277108434,107.9989601870378L462.6746987951808,105.21294508129358L464.867469879518,106.5035449943195L467.0602409638554,107.61023326652747L469.2530120481928,104.46639383149642L471.44578313253015,106.69488653478521L473.63855421686753,106.62309273332357L475.8313253012048,108.61538056377321L478.0240963855422,92.7215799341599L480.21686746987956,97.12202845596606L482.40963855421694,80.79633986453214L484.60240963855426,87.34627907143698L486.79518072289153,88.08070978439518L488.9879518072289,90.25484876169098L491.18072289156623,91.0732358429167L493.3734939759036,88.98750190850761L495.566265060241,82.94237263666258L497.7590361445783,87.97837014330759L499.95180722891564,89.69273379196724L502.144578313253,96.03052368346185L504.3373493975904,87.12952743594846L506.5301204819278,88.88583722379472L508.72289156626505,86.97108939952322L510.91566265060237,85.37593341867128L513.1084337349398,91.59925442437333L515.3012048192771,83.17494959963693L517.4939759036146,90.28638950404194L519.6867469879519,89.65112381511265L521.8795180722892,94.1536523674925L524.0722891566265,91.03378851297829L526.2650602409639,87.74381119261184L528.4578313253012,86.76792892399762L530.6506024096386,86.48922225336233L532.8433734939758,97.40029094802838L535.0361445783133,89.00775276703968L537.2289156626506,82.59324618842867L539.421686746988,79.74723055710396" class="rv-xy-plot__series rv-xy-plot__series--line" transform="translate(34,5)" style="opacity: 1; stroke-width: 1.5; stroke: rgb(232, 123, 159);"/><path d="M0,46.31125033646822L2.192771084337349,61.37922231666744L4.385542168674699,72.25565228114525L6.578313253012048,79.87759009872875L8.771084337349398,84.53066004626453L10.963855421686747,86.93033058755101L13.156626506024097,89.63187306467444L15.349397590361445,92.1245118609319L17.542168674698797,92.86295655183494L19.73493975903615,90.31331101370355L21.927710843373493,89.75754156274101L24.12048192771085,89.81289375200868L26.313253012048197,98.11532610841095L28.50602409638555,92.22703502513468L30.698795180722897,100.31745208986104L32.89156626506025,91.57499256792167L35.08433734939759,105.92065739072859L37.27710843373494,105.76478124720353L39.4698795180723,106.6841463688761L41.66265060240964,101.4405306559056L43.855421686746986,98.88613933076462L46.048192771084345,104.20884986842674L48.2409638554217,97.93564823207754L50.43373493975904,102.27297873484594L52.626506024096386,100.33016998631257L54.819277108433745,110.05136927279335L57.01204819277109,100.50843602729341L59.20481927710844,103.6371310899655L61.39759036144578,99.19052360206842L63.590361445783145,107.38041607787213L65.78313253012048,101.87338648736477L67.97590361445785,110.71609769761562L70.16867469879519,103.01570987282321L72.36144578313254,107.74820313478509L74.55421686746988,102.25796660594642L76.74698795180724,101.5122950828324L78.9397590361446,105.0912319862594L81.13253012048193,103.27772007137537L83.32530120481928,102.74246588846049L85.51807228915665,107.44100064970553L87.71084337349397,108.99136677322286L89.90361445783132,105.45304091895622L92.09638554216866,101.48420431961614L94.28915662650603,105.09483866828185L96.48192771084338,108.68959927372634L98.67469879518072,103.38106316824755L100.86746987951807,110.46180702233687L103.06024096385543,105.38932801720995L105.25301204819277,109.42251365693909L107.44578313253012,99.95965980552137L109.63855421686745,110.57979764975607L111.83132530120483,107.52103975539404L114.02409638554218,107.17590371581417L116.2168674698795,110.16159286101657L118.40963855421685,106.7813763115555L120.60240963855424,102.49138200096786L122.79518072289156,104.10967586562037L124.98795180722891,108.53499482696253L127.18072289156626,107.37472635818023L129.3734939759036,105.92825988028198L131.56626506024097,106.62747789857286L133.75903614457832,103.50393278400102L135.95180722891567,108.40557933412492L138.144578313253,107.44215577716628L140.33734939759037,112.43958943461377L142.53012048192772,107.08835192769766L144.72289156626508,109.76265161360305L146.91566265060243,109.60162830849487L149.10843373493975,108.46258880446356L151.3012048192771,108.18223917235929L153.49397590361446,113.37030752375722L155.6867469879518,105.47437913840014L157.87951807228916,109.58262132992968L160.07228915662654,108.59164390775064L162.26506024096383,111.38676825414103L164.45783132530119,108.09144271723926L166.65060240963854,105.2298067609469L168.84337349397592,109.5344169344753L171.03614457831327,114.62958083053428L173.2289156626506,117.23477640065053L175.42168674698794,112.31846975162625L177.6144578313253,115.36318818572909L179.80722891566265,113.78743648466966L182,108.34028694157797L184.19277108433738,108.32071072980762L186.38554216867468,107.58854290097952L188.57831325301206,109.93127804684141L190.7710843373494,109.8368606287986L192.96385542168676,111.97769670126337L195.1566265060241,112.10957373368242L197.34939759036143,112.01820325603086L199.5421686746988,109.71951934695244L201.73493975903617,115.82604429932931L203.9277108433735,108.81101630131403L206.12048192771087,111.04993040456128L208.31325301204816,115.68460974531868L210.50602409638554,110.36207243613899L212.6987951807229,111.06343392468989L214.89156626506025,114.7314538654561L217.0843373493976,110.23490473379692L219.27710843373498,110.1740705364694L221.46987951807228,110.38010514962178L223.66265060240966,110.34524361416698L225.85542168674698,114.87396697575849L228.04819277108436,108.67609836595756L230.2409638554217,111.89368779553723L232.433734939759,111.04382392639917L234.6265060240964,113.66385119842988L236.8192771084337,109.98585546823838L239.0120481927711,109.19029820586243L241.20481927710847,105.44481674581766L243.39759036144576,111.91314174886793L245.59036144578312,110.98579023685306L247.7831325301205,109.95797764137387L249.97590361445782,108.28131100287041L252.1686746987952,115.35963880146545L254.36144578313252,112.72229251265526L256.5542168674699,115.13762833084911L258.7469879518073,111.26947248540819L260.9397590361446,114.6732628537963L263.13253012048193,111.3553721010685L265.32530120481925,110.42777479502061L267.51807228915663,113.97185225288072L269.710843373494,115.37497225062299L271.90361445783134,108.89447539237639L274.09638554216866,112.3920030654408L276.28915662650604,112.88295148064691L278.48192771084337,113.43580820846063L280.67469879518075,110.03350491138798L282.86746987951807,112.26113890297711L285.06024096385545,112.93079284516472L287.2530120481928,112.46247974410653L289.44578313253015,112.24025192515305L291.6385542168675,116.63863821141422L293.83132530120486,116.70393077811849L296.0240963855422,110.24660392602283L298.2168674698795,111.55758338049054L300.4096385542168,109.87424883867305L302.6024096385542,113.54190368764102L304.7951807228916,109.74702122621238L306.9879518072289,109.70070002290109L309.1807228915663,116.82973645410189L311.3734939759036,112.04889006633312L313.566265060241,118.19449563138187L315.7590361445784,112.6494706024726L317.9518072289157,115.14658146848282L320.1445783132531,111.9031887159993L322.33734939759034,117.66429392651963L324.53012048192767,106.57393578439951L326.72289156626505,115.77088414753479L328.91566265060237,116.64978085489321L331.10843373493975,117.72096766508184L333.30120481927713,115.28923309190819L335.49397590361446,112.11849302674335L337.68674698795184,112.09703231664997L339.87951807228916,120.56493502731126L342.07228915662654,113.47085440872857L344.2650602409639,111.9095171286414L346.4578313253012,114.58571965744096L348.65060240963857,114.4867739168306L350.8433734939759,115.94846035136533L353.03614457831327,107.66057123430073L355.2289156626506,110.21132267142335L357.421686746988,114.01933206679922L359.6144578313253,114.25971037312411L361.8072289156627,110.08924326548976L364,113.31122064683586L366.1927710843374,112.4965049761037L368.38554216867476,115.542925043342L370.5783132530121,114.93513282667845L372.77108433734935,119.66721719627577L374.96385542168673,112.39302603652081L377.1566265060241,116.24647104522836L379.3493975903615,115.05024292102706L381.5421686746988,115.54901480240127L383.73493975903614,112.90881059194606L385.9277108433735,109.74292295612395L388.1204819277109,113.12349054869264L390.3132530120482,115.75325814945003L392.50602409638554,120.82064569431049L394.69879518072287,112.90420854277909L396.8915662650602,113.29359720305848L399.0843373493976,119.06116498541087L401.27710843373495,114.21554310402524L403.46987951807233,114.98626239753017L405.6626506024096,109.66285853957135L407.855421686747,116.8324513345336L410.04819277108436,114.70356338315952L412.24096385542174,119.57443854057539L414.4337349397591,113.39942935636887L416.6265060240964,117.26833505067043L418.8192771084337,111.88297584311417L421.0120481927711,113.35911698701483L423.2048192771084,112.28931558380523L425.3975903614458,116.93058306382346L427.5903614457832,111.99349602125585L429.7831325301205,118.05861640566337L431.9759036144578,119.81694062286988L434.1686746987952,121.64258866167316L436.3614457831326,118.6961084830885L438.55421686746996,117.84903136330348L440.74698795180717,103.92006568113962L442.93975903614455,114.94023134031642L445.13253012048193,118.11436859075911L447.3253012048193,116.17080195310217L449.51807228915663,110.45804426632822L451.71084337349396,107.09719970015189L453.90361445783134,114.39881512305388L456.0963855421687,118.61340784716111L458.28915662650604,115.82352377846837L460.4819277108434,114.20818565382314L462.6746987951808,115.12162037038553L464.867469879518,114.38044704062241L467.0602409638554,117.47582754927376L469.2530120481928,118.16158936017501L471.44578313253015,110.30755306718251L473.63855421686753,117.29701720861095L475.8313253012048,114.71402791608125L478.0240963855422,100.36953677816523L480.21686746987956,96.40513081848621L482.40963855421694,87.94198798222673L484.60240963855426,97.76956256065101L486.79518072289153,92.84431177212132L488.9879518072289,91.96016737570366L491.18072289156623,89.43245281113519L493.3734939759036,99.50403696795303L495.566265060241,94.46848530405099L497.7590361445783,103.36994682252407L499.95180722891564,96.47615434146589L502.144578313253,99.27196668667925L504.3373493975904,88.8851415620496L506.5301204819278,98.28326334307593L508.72289156626505,93.05905332250728L510.91566265060237,96.91665502140921L513.1084337349398,90.17392675578594L515.3012048192771,94.25491145915454L517.4939759036146,102.58804190738333L519.6867469879519,96.2343205685417L521.8795180722892,95.85743112117052L524.0722891566265,98.86999084469348L526.2650602409639,95.64568012290532L528.4578313253012,92.60356071591377L530.6506024096386,101.7391573248638L532.8433734939758,96.79645523739356L535.0361445783133,94.05883431020712L537.2289156626506,100.57728726665181L539.421686746988,80.59559498975673" class="rv-xy-plot__series rv-xy-plot__series--line" transform="translate(34,5)" style="opacity: 1; stroke-width: 1.5; stroke: rgb(135, 206, 191);"/><g class="rv-xy-plot__series rv-xy-plot__series--mark" transform="translate(34,5)"><circle r="2" cx="539.421686746988" cy="80.59559498975673" style="opacity: 1; stroke: rgb(135, 206, 191); fill: rgb(135, 206, 191); stroke-width: 1;"/></g><g class="rv-xy-plot__series rv-xy-plot__series--mark" transform="translate(34,5)"><circle r="2" cx="539.421686746988" cy="79.74723055710396" style="opacity: 1; stroke: rgb(232, 123, 159); fill: rgb(232, 123, 159); stroke-width: 1;"/></g><g class="rv-xy-plot__series rv-xy-plot__series--mark" transform="translate(34,5)"><circle r="2" cx="539.421686746988" cy="65.34875200409442" style="opacity: 1; stroke: rgb(160, 199, 92); fill: rgb(160, 199, 92); stroke-width: 1;"/></g><g class="rv-xy-plot__series rv-xy-plot__series--mark" transform="translate(34,5)"><circle r="2" cx="546" cy="-12.90496277809143" style="opacity: 1; stroke: rgb(76, 159, 218); fill: rgb(76, 159, 218); stroke-width: 1;"/></g><g class="rv-xy-plot__series rv-xy-plot__series--mark" transform="translate(34,5)"><circle r="2" cx="539.421686746988" cy="106.4250540311138" style="opacity: 1; stroke: rgb(229, 116, 57); fill: rgb(229, 116, 57); stroke-width: 1;"/></g><g class="rv-xy-plot__series rv-xy-plot__series--mark" transform="translate(34,5)"><circle r="2" cx="539.421686746988" cy="135.55140154361726" style="opacity: 1; stroke: rgb(161, 40, 100); fill: rgb(161, 40, 100); stroke-width: 1;"/></g><g class="rv-xy-plot__series rv-xy-plot__series--mark" transform="translate(34,5)"><circle r="2" cx="539.421686746988" cy="147.62300147563218" style="opacity: 1; stroke: rgb(71, 154, 95); fill: rgb(71, 154, 95); stroke-width: 1;"/></g><defs class="rv-gradient-defs"><linearGradient id="leftFadeGradient" x1="0" x2="1" y1="0" y2="0"><stop offset="0%" stop-color="white" stop-opacity="1"/><stop offset="60%" stop-color="white" stop-opacity="1"/><stop offset="100%" stop-color="white" stop-opacity="0"/></linearGradient><linearGradient id="rightFadeGradient" x1="1" x2="0" y1="0" y2="0"><stop offset="0%" stop-color="white" stop-opacity="1"/><stop offset="100%" stop-color="white" stop-opacity="0"/></linearGradient><linearGradient id="bottomFadeGradient" x1="0" x2="0" y1="1" y2="0"><stop offset="0%" stop-color="white" stop-opacity="1"/><stop offset="40%" stop-color="white" stop-opacity="1"/><stop offset="100%" stop-color="white" stop-opacity="0"/></linearGradient><linearGradient id="topFadeGradient" x1="0" x2="0" y1="0" y2="1"><stop offset="0%" stop-color="white" stop-opacity="1"/><stop offset="100%" stop-color="white" stop-opacity="0"/></linearGradient></defs><g class="rv-xy-plot__borders plot-border"><rect class="rv-xy-plot__borders-bottom plot-border-bottom" x="0" y="192" width="600" height="30" style="fill: url(&quot;#bottomFadeGradient&quot;); opacity: 1;"/><rect class="rv-xy-plot__borders-left plot-border-left" x="0" y="0" width="34" height="222" style="fill: url(&quot;#leftFadeGradient&quot;); opacity: 1;"/><rect class="rv-xy-plot__borders-right plot-border-right" x="580" y="0" width="20" height="222" style="fill: url(&quot;#rightFadeGradient&quot;); opacity: 1;"/><rect class="rv-xy-plot__borders-top plot-border-top" x="0" y="0" width="600" height="5" style="fill: url(&quot;#topFadeGradient&quot;); opacity: 1;"/></g><g transform="translate(34,192)" class="rv-xy-plot__axis rv-xy-plot__axis--horizontal"><line x1="0" x2="546" y1="0" y2="0" class="rv-xy-plot__axis__line"/><g transform="translate(0, 0)" class="rv-xy-plot__axis__ticks"/></g><g transform="translate(34,192)" class="rv-xy-plot__axis rv-xy-plot__axis--horizontal" style="font-family: &quot;Source Sans Pro&quot;; fill: rgb(107, 107, 118); font-size: 11px;"><line x1="0" x2="546" y1="0" y2="0" class="rv-xy-plot__axis__line" style="font-family: &quot;Source Sans Pro&quot;; fill: rgb(107, 107, 118); font-size: 11px; stroke-width: 0;"/><g transform="translate(0, 0)" class="rv-xy-plot__axis__ticks"><g transform="translate(141.832939038338, 0)" class="rv-xy-plot__axis__tick" style="font-family: &quot;Source Sans Pro&quot;; fill: rgb(107, 107, 118); font-size: 11px;"><line x1="0" x2="0" y1="-6" y2="6" class="rv-xy-plot__axis__tick__line" style="font-family: &quot;Source Sans Pro&quot;; fill: rgb(107, 107, 118); font-size: 11px; stroke-width: 0;"/><text text-anchor="middle" dy="0.72em" transform="translate(0, 14)" class="rv-xy-plot__axis__tick__text" style="font-family: sans-serif; fill: rgb(107, 107, 118); font-size: 11px;">200</text></g><g transform="translate(284.4058313879706, 0)" class="rv-xy-plot__axis__tick" style="font-family: &quot;Source Sans Pro&quot;; fill: rgb(107, 107, 118); font-size: 11px;"><line x1="0" x2="0" y1="-6" y2="6" class="rv-xy-plot__axis__tick__line" style="font-family: &quot;Source Sans Pro&quot;; fill: rgb(107, 107, 118); font-size: 11px; stroke-width: 0;"/><text text-anchor="middle" dy="0.72em" transform="translate(0, 14)" class="rv-xy-plot__axis__tick__text" style="font-family: sans-serif; fill: rgb(107, 107, 118); font-size: 11px;">400</text></g><g transform="translate(426.9787237376032, 0)" class="rv-xy-plot__axis__tick" style="font-family: &quot;Source Sans Pro&quot;; fill: rgb(107, 107, 118); font-size: 11px;"><line x1="0" x2="0" y1="-6" y2="6" class="rv-xy-plot__axis__tick__line" style="font-family: &quot;Source Sans Pro&quot;; fill: rgb(107, 107, 118); font-size: 11px; stroke-width: 0;"/><text text-anchor="middle" dy="0.72em" transform="translate(0, 14)" class="rv-xy-plot__axis__tick__text" style="font-family: sans-serif; fill: rgb(107, 107, 118); font-size: 11px;">600</text></g></g><g transform="translate(0, 0)" class="rv-xy-plot__axis__title"><g transform="translate(540, -6) rotate(0)" style="text-anchor: end; font-family: &quot;Source Sans Pro&quot;; fill: rgb(107, 107, 118); font-size: 11px;"><text style="font-family: sans-serif; fill: rgb(107, 107, 118); font-size: 11px;">Step</text></g></g></g><g transform="translate(34,192)" class="rv-xy-plot__axis rv-xy-plot__axis--horizontal"><line x1="0" x2="0" y1="0" y2="0" class="rv-xy-plot__axis__line"/><g transform="translate(0, 0)" class="rv-xy-plot__axis__ticks"><g transform="translate(141.832939038338, 0)" class="rv-xy-plot__axis__tick"><line x1="0" x2="0" y1="-6" y2="6" class="rv-xy-plot__axis__tick__line"/><text text-anchor="middle" dy="0.72em" transform="translate(0, 14)" class="rv-xy-plot__axis__tick__text" style="font-family: sans-serif;"/></g><g transform="translate(284.4058313879706, 0)" class="rv-xy-plot__axis__tick"><line x1="0" x2="0" y1="-6" y2="6" class="rv-xy-plot__axis__tick__line"/><text text-anchor="middle" dy="0.72em" transform="translate(0, 14)" class="rv-xy-plot__axis__tick__text" style="font-family: sans-serif;"/></g><g transform="translate(426.9787237376032, 0)" class="rv-xy-plot__axis__tick"><line x1="0" x2="0" y1="-6" y2="6" class="rv-xy-plot__axis__tick__line"/><text text-anchor="middle" dy="0.72em" transform="translate(0, 14)" class="rv-xy-plot__axis__tick__text" style="font-family: sans-serif;"/></g></g></g><g transform="translate(0,5)" class="rv-xy-plot__axis rv-xy-plot__axis--vertical" style="font-family: &quot;Source Sans Pro&quot;; fill: rgb(107, 107, 118); font-size: 11px;"><line x1="34" x2="34" y1="0" y2="187" class="rv-xy-plot__axis__line" style="font-family: &quot;Source Sans Pro&quot;; fill: rgb(107, 107, 118); font-size: 11px; stroke: none;"/><g transform="translate(34, 0)" class="rv-xy-plot__axis__ticks"><g transform="translate(0, 187)" class="rv-xy-plot__axis__tick" style="font-family: &quot;Source Sans Pro&quot;; fill: rgb(107, 107, 118); font-size: 11px;"><line y1="0" y2="0" x1="6" x2="-6" class="rv-xy-plot__axis__tick__line" style="font-family: &quot;Source Sans Pro&quot;; fill: rgb(107, 107, 118); font-size: 11px; stroke: none;"/><text text-anchor="end" dy="0.32em" transform="translate(-14, 0)" class="rv-xy-plot__axis__tick__text" style="font-family: sans-serif; fill: rgb(107, 107, 118); font-size: 11px;">0</text></g><g transform="translate(0, 140.25)" class="rv-xy-plot__axis__tick" style="font-family: &quot;Source Sans Pro&quot;; fill: rgb(107, 107, 118); font-size: 11px;"><line y1="0" y2="0" x1="6" x2="-6" class="rv-xy-plot__axis__tick__line" style="font-family: &quot;Source Sans Pro&quot;; fill: rgb(107, 107, 118); font-size: 11px; stroke: none;"/><text text-anchor="end" dy="0.32em" transform="translate(-14, 0)" class="rv-xy-plot__axis__tick__text" style="font-family: sans-serif; fill: rgb(107, 107, 118); font-size: 11px;">0.5</text></g><g transform="translate(0, 93.5)" class="rv-xy-plot__axis__tick" style="font-family: &quot;Source Sans Pro&quot;; fill: rgb(107, 107, 118); font-size: 11px;"><line y1="0" y2="0" x1="6" x2="-6" class="rv-xy-plot__axis__tick__line" style="font-family: &quot;Source Sans Pro&quot;; fill: rgb(107, 107, 118); font-size: 11px; stroke: none;"/><text text-anchor="end" dy="0.32em" transform="translate(-14, 0)" class="rv-xy-plot__axis__tick__text" style="font-family: sans-serif; fill: rgb(107, 107, 118); font-size: 11px;">1</text></g><g transform="translate(0, 46.75)" class="rv-xy-plot__axis__tick" style="font-family: &quot;Source Sans Pro&quot;; fill: rgb(107, 107, 118); font-size: 11px;"><line y1="0" y2="0" x1="6" x2="-6" class="rv-xy-plot__axis__tick__line" style="font-family: &quot;Source Sans Pro&quot;; fill: rgb(107, 107, 118); font-size: 11px; stroke: none;"/><text text-anchor="end" dy="0.32em" transform="translate(-14, 0)" class="rv-xy-plot__axis__tick__text" style="font-family: sans-serif; fill: rgb(107, 107, 118); font-size: 11px;">1.5</text></g><g transform="translate(0, 0)" class="rv-xy-plot__axis__tick" style="font-family: &quot;Source Sans Pro&quot;; fill: rgb(107, 107, 118); font-size: 11px;"><line y1="0" y2="0" x1="6" x2="-6" class="rv-xy-plot__axis__tick__line" style="font-family: &quot;Source Sans Pro&quot;; fill: rgb(107, 107, 118); font-size: 11px; stroke: none;"/><text text-anchor="end" dy="0.32em" transform="translate(-14, 0)" class="rv-xy-plot__axis__tick__text" style="font-family: sans-serif; fill: rgb(107, 107, 118); font-size: 11px;">2</text></g></g></g></svg></g><style xmlns="http://www.w3.org/1999/xhtml">/*&lt;![CDATA[*/<br />text { font-size: 10px; fill: black }<br />.react-vis-magic-css-import-rule{display:inherit}.rv-treemap{font-size:12px;position:relative}.rv-treemap__leaf{overflow:hidden;position:absolute}.rv-treemap__leaf--circle{align-items:center;border-radius:100%;display:flex;justify-content:center}.rv-treemap__leaf__content{overflow:hidden;padding:10px;text-overflow:ellipsis}.rv-xy-plot{color:#c3c3c3;position:relative}.rv-xy-plot canvas{pointer-events:none}.rv-xy-plot .rv-xy-canvas{pointer-events:none;position:absolute}.rv-xy-plot__inner{display:block}.rv-xy-plot__axis__line{fill:none;stroke-width:2px;stroke:#e6e6e9}.rv-xy-plot__axis__tick__line{stroke:#e6e6e9}.rv-xy-plot__axis__tick__text{fill:#6b6b76;font-size:11px}.rv-xy-plot__axis__title text{fill:#6b6b76;font-size:11px}.rv-xy-plot__grid-lines__line{stroke:#e6e6e9}.rv-xy-plot__circular-grid-lines__line{fill-opacity:0;stroke:#e6e6e9}.rv-xy-plot__series,.rv-xy-plot__series path{pointer-events:all}.rv-xy-plot__series--line{fill:none;stroke:#000;stroke-width:2px}.rv-crosshair{position:absolute;font-size:11px;pointer-events:none}.rv-crosshair__line{background:#47d3d9;width:1px}.rv-crosshair__inner{position:absolute;text-align:left;top:0}.rv-crosshair__inner__content{border-radius:4px;background:#3a3a48;color:#fff;font-size:12px;padding:7px 10px;box-shadow:0 2px 4px rgba(0,0,0,0.5)}.rv-crosshair__inner--left{right:4px}.rv-crosshair__inner--right{left:4px}.rv-crosshair__title{font-weight:bold;white-space:nowrap}.rv-crosshair__item{white-space:nowrap}.rv-hint{position:absolute;pointer-events:none}.rv-hint__content{border-radius:4px;padding:7px 10px;font-size:12px;background:#3a3a48;box-shadow:0 2px 4px rgba(0,0,0,0.5);color:#fff;text-align:left;white-space:nowrap}.rv-discrete-color-legend{box-sizing:border-box;overflow-y:auto;font-size:12px}.rv-discrete-color-legend.horizontal{white-space:nowrap}.rv-discrete-color-legend-item{color:#3a3a48;border-radius:1px;padding:9px 10px}.rv-discrete-color-legend-item.horizontal{display:inline-block}.rv-discrete-color-legend-item.horizontal .rv-discrete-color-legend-item__title{margin-left:0;display:block}.rv-discrete-color-legend-item__color{display:inline-block;vertical-align:middle;overflow:visible}.rv-discrete-color-legend-item__color__path{stroke:#dcdcdc;stroke-width:2px}.rv-discrete-color-legend-item__title{margin-left:10px}.rv-discrete-color-legend-item.disabled{color:#b8b8b8}.rv-discrete-color-legend-item.clickable{cursor:pointer}.rv-discrete-color-legend-item.clickable:hover{background:#f9f9f9}.rv-search-wrapper{display:flex;flex-direction:column}.rv-search-wrapper__form{flex:0}.rv-search-wrapper__form__input{width:100%;color:#a6a6a5;border:1px solid #e5e5e4;padding:7px 10px;font-size:12px;box-sizing:border-box;border-radius:2px;margin:0 0 9px;outline:0}.rv-search-wrapper__contents{flex:1;overflow:auto}.rv-continuous-color-legend{font-size:12px}.rv-continuous-color-legend .rv-gradient{height:4px;border-radius:2px;margin-bottom:5px}.rv-continuous-size-legend{font-size:12px}.rv-continuous-size-legend .rv-bubbles{text-align:justify;overflow:hidden;margin-bottom:5px;width:100%}.rv-continuous-size-legend .rv-bubble{background:#d8d9dc;display:inline-block;vertical-align:bottom}.rv-continuous-size-legend .rv-spacer{display:inline-block;font-size:0;line-height:0;width:100%}.rv-legend-titles{height:16px;position:relative}.rv-legend-titles__left,.rv-legend-titles__right,.rv-legend-titles__center{position:absolute;white-space:nowrap;overflow:hidden}.rv-legend-titles__center{display:block;text-align:center;width:100%}.rv-legend-titles__right{right:0}.rv-radial-chart .rv-xy-plot__series--label{pointer-events:none}<br /><br />/*]]&gt;*/</style></svg>